<svg width="31" height="36" viewBox="0 0 31 36" fill="none" xmlns="http://www.w3.org/2000/svg">
<path d="M30.9126 28.0752C30.8265 26.9538 30.36 26.0577 29.5408 25.3627C29.2457 25.1122 28.9648 24.8437 28.6738 24.5878C28.1246 24.1057 27.7091 23.514 27.4174 22.8217C26.9032 21.6042 26.5931 20.3238 26.3807 19.0102C26.053 16.9827 25.7713 14.9436 25.3725 12.9323C24.6235 9.16211 22.5761 6.56541 19.1452 5.29221C19.0206 5.24552 18.9044 5.17189 18.7941 5.11532C19.233 3.14985 18.9128 1.91704 17.7524 1.01287C16.7066 0.19669 15.4008 0.113186 14.3474 0.850353C12.846 1.90178 12.5375 3.39048 13.0843 5.13867C13.0416 5.1701 13.0216 5.19165 12.9965 5.20152C12.892 5.24193 12.7858 5.27694 12.6813 5.31645C9.72692 6.42355 7.72137 8.5291 6.78673 11.7669C6.16225 13.9299 5.89138 16.1647 5.54612 18.3879C5.33712 19.7347 4.99436 21.0645 4.62235 22.3727C4.26287 23.6406 3.3717 24.5043 2.41533 25.2801C1.66293 25.8907 1.16635 26.6718 0.996648 27.6793C0.968224 27.8508 0.922245 28.0187 0.883789 28.1884V29.7148C0.938129 29.9258 0.988288 30.1377 1.04681 30.3478C1.26667 31.1397 1.70557 31.5052 2.4705 31.5124C5.38812 31.5411 8.30657 31.5653 11.2242 31.5905C11.3889 31.5923 11.5527 31.5905 11.7341 31.5905C11.7843 31.902 11.8161 32.1813 11.8737 32.4542C12.26 34.2644 13.32 35.3885 14.9544 35.9219C15.0037 35.938 15.0488 35.9731 15.0957 36H16.7676C17.3219 35.7064 17.9163 35.4774 18.4204 35.1066C19.3617 34.4134 19.8332 33.3755 20.0297 32.1858C20.0564 32.0241 20.079 31.8616 20.1058 31.7009C20.1108 31.674 20.13 31.6515 20.1668 31.5797C21.0998 31.5797 22.057 31.586 23.0133 31.5779C25.1108 31.5617 27.2075 31.5429 29.305 31.5159C30.2096 31.5043 30.7254 31.0167 30.9001 30.047C30.9151 29.9635 30.9528 29.8854 30.9795 29.8046V28.2782C30.9561 28.2108 30.9177 28.1444 30.9126 28.0752ZM28.8979 29.3296H2.93615C2.95203 29.0234 2.95705 28.7388 2.9838 28.4577C3.04065 27.8553 3.23711 27.3524 3.74121 26.9906C5.65814 25.6141 6.66886 23.5903 7.14203 21.2387C7.45553 19.68 7.62858 18.0898 7.91532 16.5239C8.17531 15.1061 8.41608 13.6731 8.81986 12.3002C9.67425 9.39915 11.5887 7.70035 14.3608 7.19394C16.2326 6.85184 18.0785 7.01436 19.7981 8.00473C21.7059 9.10285 22.8144 10.8708 23.2658 13.0769C23.7147 15.274 23.9923 17.5116 24.3835 19.7231C24.7104 21.5745 25.11 23.4251 26.1976 24.9569C26.7218 25.6958 27.3806 26.3522 28.0661 26.9232C28.8385 27.5661 28.9305 28.3841 28.8979 29.3296Z" fill="white"/>
</svg>
