<svg width="35" height="46" viewBox="0 0 35 46" fill="none" xmlns="http://www.w3.org/2000/svg">
<path d="M34.5659 20.1768C34.4994 16.7557 32.0159 14.1524 28.8376 14.0637C26.5468 13.9997 24.2536 14.0095 21.9604 14.0613C19.2729 14.1228 17.0233 16.0464 16.3582 18.8147C16.1931 19.5019 16.1771 20.2285 16.0968 20.8959C15.1498 20.625 14.2829 20.1915 13.4047 20.1595C10.7744 20.061 8.13039 19.9846 5.50702 20.1546C2.47546 20.3516 0.228161 23.0559 0.196056 26.3021C0.161659 29.9103 0.209815 33.5235 0.173125 37.1341C0.161659 38.1119 0.510219 38.4469 1.38621 38.4149C2.70707 38.3705 4.03251 38.405 5.4451 38.405C5.4451 40.5354 5.45198 42.459 5.44051 44.3801C5.43593 45.0377 5.55747 45.5106 6.30504 45.5032C7.94006 45.4884 9.57738 45.4983 11.2881 45.4983C11.6114 42.6462 11.8568 39.9542 12.2374 37.2844C12.5012 35.4199 13.6798 34.4397 15.4135 34.4076C16.2917 34.3929 17.1723 34.4052 18.0506 34.4052C20.9354 34.4052 21.9559 35.4519 22.2127 38.506C22.4076 40.8162 22.7011 43.1191 22.9603 45.5007C24.726 45.5007 26.4023 45.4441 28.0763 45.5229C29.1656 45.5746 29.4797 45.0894 29.4499 44.0008C29.3995 42.161 29.4361 40.3187 29.4361 38.5158C32.9676 37.2622 34.5247 35.415 34.5728 32.2378C34.6347 28.2183 34.6462 24.1938 34.5659 20.1768ZM17.0347 33.0333C15.1842 33.0161 13.6661 31.3733 13.7005 29.43C13.7372 27.4942 15.3263 25.8267 17.1104 25.8538C18.9472 25.8809 20.4011 27.5016 20.3919 29.5089C20.3827 31.5309 18.9335 33.053 17.0347 33.0333Z" fill="white"/>
<path d="M15.2345 12.2238C15.262 15.6892 12.5905 18.524 9.32045 18.4994C6.07333 18.4748 3.56003 15.731 3.57379 12.2213C3.58755 8.75598 6.19487 5.9433 9.37778 5.96546C12.5515 5.98763 15.207 8.82248 15.2345 12.2238Z" fill="white"/>
<path d="M31.2386 6.32265C31.195 9.7757 28.5992 12.512 25.3704 12.5096C22.1302 12.5071 19.5687 9.75846 19.5664 6.28571C19.5664 2.77355 22.2012 -0.0317469 25.4644 0.000271372C28.6359 0.0322896 31.2822 2.93118 31.2386 6.32265Z" fill="white"/>
</svg>
