<svg width="42" height="29" viewBox="0 0 42 29" fill="none" xmlns="http://www.w3.org/2000/svg">
<path d="M21.1198 2.74617C21.9179 1.48009 23.0249 0.727792 24.355 0.342466C25.5736 -0.0153369 26.8265 -0.0428602 28.088 0.0947562C30.9628 0.406687 33.6317 1.4434 36.2577 2.6636C36.4465 2.75534 36.6696 2.78286 36.8755 2.79204C37.8024 2.82874 38.7377 2.78286 39.656 2.88378C40.5999 2.99387 41.3208 3.94801 41.3208 4.9572C41.3294 12.1408 41.3294 19.3244 41.3208 26.5079C41.3208 27.6823 40.4111 28.5905 39.2355 28.6639C39.1497 28.6731 39.0638 28.6639 38.978 28.6639C27.0411 28.6639 15.0955 28.6639 3.15858 28.6639C2.04297 28.6639 1.22772 28.0951 0.953113 27.0859C0.875879 26.7832 0.841553 26.4529 0.841553 26.141C0.841553 19.1959 0.841553 12.26 0.841553 5.315C0.841553 3.70031 1.69971 2.72782 3.1929 2.80121C4.76333 2.88378 6.20503 2.5902 7.65532 1.90212C9.48319 1.03055 11.4312 0.443384 13.4221 0.158977C15.3616 -0.116256 17.301 -0.12543 19.1031 0.883757C19.4893 1.10394 19.8497 1.38835 20.1844 1.70028C20.5105 2.00304 20.7937 2.37001 21.1198 2.74617ZM20.5277 24.4529C20.5277 24.1409 20.5277 23.9758 20.5277 23.8106C20.5277 17.4252 20.5191 11.0307 20.5362 4.64527C20.5362 4.05811 20.3732 3.59021 20.0643 3.13149C19.4378 2.21405 18.5625 1.70028 17.567 1.4067C15.7134 0.865408 13.8598 1.11312 12.0319 1.55349C9.07985 2.2691 6.32517 3.58104 3.63056 5.01225C3.51042 5.07647 3.39886 5.30583 3.39886 5.4618C3.39028 11.8197 3.39028 18.1775 3.39028 24.5354C3.39028 25.0492 3.39028 25.563 3.39028 26.1226C3.50184 26.0767 3.57049 26.0584 3.63056 26.0217C6.66844 24.5813 9.7578 23.3061 13.0703 22.7281C14.4433 22.4895 15.825 22.3886 17.198 22.618C18.4423 22.829 19.5665 23.3519 20.5277 24.4529ZM38.7463 26.141C38.7463 25.9116 38.7463 25.7465 38.7463 25.5813C38.7463 22.2785 38.7463 18.9757 38.7463 15.6729C38.7463 12.2967 38.7463 8.91138 38.7463 5.53519C38.7463 5.27831 38.7377 5.09482 38.4631 4.97555C36.7039 4.17738 34.9704 3.28746 33.1855 2.5535C31.186 1.7278 29.1264 1.16816 26.9553 1.13147C25.5736 1.10394 24.2435 1.28743 23.085 2.159C22.141 2.86543 21.5317 3.75535 21.5403 5.12234C21.5832 11.4252 21.5575 17.7188 21.5575 24.0217C21.5575 24.1776 21.5575 24.3336 21.5575 24.5721C22.2011 23.7831 22.9133 23.2877 23.7372 22.9849C25.3591 22.3794 27.0067 22.4437 28.6716 22.6914C31.6494 23.1317 34.4555 24.1776 37.2102 25.4345C37.708 25.6547 38.1971 25.8841 38.7463 26.141Z" fill="white"/>
</svg>
