<svg width="36" height="41" viewBox="0 0 36 41" fill="none" xmlns="http://www.w3.org/2000/svg">
<path fill-rule="evenodd" clip-rule="evenodd" d="M29.1957 13.3275C29.3541 13.4971 29.4797 13.6987 29.5655 13.9206C29.6512 14.1425 29.6954 14.3804 29.6954 14.6206C29.6954 14.8609 29.6512 15.0987 29.5655 15.3206C29.4797 15.5425 29.3541 15.7441 29.1957 15.9137L18.9906 26.8725C18.8327 27.0426 18.645 27.1775 18.4383 27.2696C18.2317 27.3617 18.0102 27.4091 17.7865 27.4091C17.5627 27.4091 17.3412 27.3617 17.1346 27.2696C16.9279 27.1775 16.7403 27.0426 16.5823 26.8725L11.4798 21.3931C11.3216 21.2233 11.1962 21.0217 11.1106 20.7998C11.025 20.5779 10.981 20.3401 10.981 20.1C10.981 19.8598 11.025 19.622 11.1106 19.4001C11.1962 19.1783 11.3216 18.9767 11.4798 18.8069C11.6379 18.637 11.8256 18.5023 12.0322 18.4104C12.2389 18.3185 12.4603 18.2712 12.6839 18.2712C12.9076 18.2712 13.129 18.3185 13.3356 18.4104C13.5423 18.5023 13.73 18.637 13.8881 18.8069L17.7865 22.9967L26.7873 13.3275C26.9453 13.1574 27.133 13.0224 27.3396 12.9304C27.5462 12.8383 27.7678 12.7909 27.9915 12.7909C28.2152 12.7909 28.4367 12.8383 28.6434 12.9304C28.85 13.0224 29.0377 13.1574 29.1957 13.3275Z" fill="#F7A81E"/>
<path d="M7.7909 0H31.1839C32.4247 0 33.6148 0.529418 34.4922 1.47179C35.3696 2.41416 35.8625 3.69229 35.8625 5.025V35.175C35.8625 36.5077 35.3696 37.7858 34.4922 38.7282C33.6148 39.6706 32.4247 40.2 31.1839 40.2H7.7909C6.55006 40.2 5.36004 39.6706 4.48263 38.7282C3.60523 37.7858 3.1123 36.5077 3.1123 35.175V32.6625H5.4516V35.175C5.4516 35.8414 5.69807 36.4804 6.13677 36.9516C6.57547 37.4228 7.17048 37.6875 7.7909 37.6875H31.1839C31.8043 37.6875 32.3993 37.4228 32.838 36.9516C33.2767 36.4804 33.5232 35.8414 33.5232 35.175V5.025C33.5232 4.35864 33.2767 3.71958 32.838 3.24839C32.3993 2.77721 31.8043 2.5125 31.1839 2.5125H7.7909C7.17048 2.5125 6.57547 2.77721 6.13677 3.24839C5.69807 3.71958 5.4516 4.35864 5.4516 5.025V7.5375H3.1123V5.025C3.1123 3.69229 3.60523 2.41416 4.48263 1.47179C5.36004 0.529418 6.55006 0 7.7909 0V0Z" fill="white"/>
<path d="M3.112 12.5624V11.3062C3.112 10.973 3.23524 10.6535 3.45459 10.4179C3.67394 10.1823 3.97144 10.0499 4.28165 10.0499C4.59187 10.0499 4.88937 10.1823 5.10872 10.4179C5.32807 10.6535 5.4513 10.973 5.4513 11.3062V12.5624H6.62095C6.93116 12.5624 7.22867 12.6948 7.44802 12.9304C7.66737 13.166 7.7906 13.4855 7.7906 13.8187C7.7906 14.1519 7.66737 14.4714 7.44802 14.707C7.22867 14.9426 6.93116 15.0749 6.62095 15.0749H1.94235C1.63214 15.0749 1.33464 14.9426 1.11529 14.707C0.895936 14.4714 0.772705 14.1519 0.772705 13.8187C0.772705 13.4855 0.895936 13.166 1.11529 12.9304C1.33464 12.6948 1.63214 12.5624 1.94235 12.5624H3.112ZM3.112 20.0999V18.8437C3.112 18.5105 3.23524 18.191 3.45459 17.9554C3.67394 17.7198 3.97144 17.5874 4.28165 17.5874C4.59187 17.5874 4.88937 17.7198 5.10872 17.9554C5.32807 18.191 5.4513 18.5105 5.4513 18.8437V20.0999H6.62095C6.93116 20.0999 7.22867 20.2323 7.44802 20.4679C7.66737 20.7035 7.7906 21.023 7.7906 21.3562C7.7906 21.6894 7.66737 22.0089 7.44802 22.2445C7.22867 22.4801 6.93116 22.6124 6.62095 22.6124H1.94235C1.63214 22.6124 1.33464 22.4801 1.11529 22.2445C0.895936 22.0089 0.772705 21.6894 0.772705 21.3562C0.772705 21.023 0.895936 20.7035 1.11529 20.4679C1.33464 20.2323 1.63214 20.0999 1.94235 20.0999H3.112ZM3.112 27.6374V26.3812C3.112 26.048 3.23524 25.7285 3.45459 25.4929C3.67394 25.2573 3.97144 25.1249 4.28165 25.1249C4.59187 25.1249 4.88937 25.2573 5.10872 25.4929C5.32807 25.7285 5.4513 26.048 5.4513 26.3812V27.6374H6.62095C6.93116 27.6374 7.22867 27.7698 7.44802 28.0054C7.66737 28.241 7.7906 28.5605 7.7906 28.8937C7.7906 29.2269 7.66737 29.5464 7.44802 29.782C7.22867 30.0176 6.93116 30.1499 6.62095 30.1499H1.94235C1.63214 30.1499 1.33464 30.0176 1.11529 29.782C0.895936 29.5464 0.772705 29.2269 0.772705 28.8937C0.772705 28.5605 0.895936 28.241 1.11529 28.0054C1.33464 27.7698 1.63214 27.6374 1.94235 27.6374H3.112Z" fill="white"/>
</svg>
