<svg width="1439" height="675" viewBox="0 0 1439 675" fill="none" xmlns="http://www.w3.org/2000/svg">
<g clip-path="url(#clip0_885_1731)">
<g filter="url(#filter0_i_885_1731)">
<path d="M1351.7 446.473C761.454 -15.5866 182.441 187.674 -33.284 347.062L149.622 550.818L529.509 637.889L1394.55 809.882L1351.7 446.473Z" fill="#CFE7FE"/>
</g>
<g filter="url(#filter1_i_885_1731)">
<path d="M694.5 274.5C414.752 191.575 289.667 196.841 228 216.508C265.5 332.675 342.2 575.108 349 615.508C357.5 666.008 528.5 713.508 556.5 736.008C578.9 754.008 773.833 796.174 868.5 815.008L1744.5 654.508L1744.5 247.508C1704.17 83.6747 1608.4 -202.992 1548 -38.992C1472.5 166.008 1114.5 399 694.5 274.5Z" fill="white"/>
</g>
<g filter="url(#filter2_i_885_1731)">
<path d="M844.521 411.822C233.728 -34.7754 -350.298 -12.6291 -565.962 54.2687L-375.294 235.124L12.9652 375.121L896.469 675.488L844.521 411.822Z" fill="white"/>
</g>
<g filter="url(#filter3_d_885_1731)">
<path d="M-150.324 178.576L-195.661 245.733C-230.806 365.592 -300.463 609.406 -297.933 625.789C-295.402 642.171 -102.175 652.089 -5.87805 655C287.231 649.881 901.073 639.642 1011.57 639.642C1149.69 639.642 1677.39 636.329 1749.61 605.31C1821.84 574.291 1864.01 455.637 1900.38 371.314C1929.48 303.856 1775.8 62.3307 1695.31 -49.9995C1723.43 48.578 1697.74 259.827 1370.05 316.203C960.432 386.673 719.514 286.991 367.361 156.29C85.6394 51.73 -95.1462 127.581 -150.324 178.576Z" fill="#FAA520"/>
</g>
<path d="M-117.45 209.867V224.872C-120.784 285.938 -126.853 411.699 -124.452 426.215C-122.051 440.732 78.2881 468.787 178.158 481L1473.63 442.965C1502.8 394.112 1507.14 302.618 1291.06 327.463C1020.96 358.519 909.423 368.29 486.769 230.804C148.647 120.815 -56.9276 171.017 -117.45 209.867Z" fill="url(#paint0_linear_885_1731)"/>
<g filter="url(#filter4_d_885_1731)">
<path d="M613 288.581C227 163.795 -50.5 227.769 -141 275.355L1 693L1444 741V275.355C1327.83 331.758 999 413.368 613 288.581Z" fill="#0053A8"/>
</g>
</g>
<defs>
<filter id="filter0_i_885_1731" x="-33.284" y="162.146" width="1427.84" height="650.736" filterUnits="userSpaceOnUse" color-interpolation-filters="sRGB">
<feFlood flood-opacity="0" result="BackgroundImageFix"/>
<feBlend mode="normal" in="SourceGraphic" in2="BackgroundImageFix" result="shape"/>
<feColorMatrix in="SourceAlpha" type="matrix" values="0 0 0 0 0 0 0 0 0 0 0 0 0 0 0 0 0 0 127 0" result="hardAlpha"/>
<feOffset dy="5"/>
<feGaussianBlur stdDeviation="1.5"/>
<feComposite in2="hardAlpha" operator="arithmetic" k2="-1" k3="1"/>
<feColorMatrix type="matrix" values="0 0 0 0 0 0 0 0 0 0.333333 0 0 0 0 0.721569 0 0 0 0.18 0"/>
<feBlend mode="normal" in2="shape" result="effect1_innerShadow_885_1731"/>
</filter>
<filter id="filter1_i_885_1731" x="228" y="-88" width="1516.5" height="907.008" filterUnits="userSpaceOnUse" color-interpolation-filters="sRGB">
<feFlood flood-opacity="0" result="BackgroundImageFix"/>
<feBlend mode="normal" in="SourceGraphic" in2="BackgroundImageFix" result="shape"/>
<feColorMatrix in="SourceAlpha" type="matrix" values="0 0 0 0 0 0 0 0 0 0 0 0 0 0 0 0 0 0 127 0" result="hardAlpha"/>
<feOffset dy="4"/>
<feGaussianBlur stdDeviation="2"/>
<feComposite in2="hardAlpha" operator="arithmetic" k2="-1" k3="1"/>
<feColorMatrix type="matrix" values="0 0 0 0 0 0 0 0 0 0.333333 0 0 0 0 0.721569 0 0 0 0.2 0"/>
<feBlend mode="normal" in2="shape" result="effect1_innerShadow_885_1731"/>
</filter>
<filter id="filter2_i_885_1731" x="-565.962" y="17.5759" width="1462.43" height="660.912" filterUnits="userSpaceOnUse" color-interpolation-filters="sRGB">
<feFlood flood-opacity="0" result="BackgroundImageFix"/>
<feBlend mode="normal" in="SourceGraphic" in2="BackgroundImageFix" result="shape"/>
<feColorMatrix in="SourceAlpha" type="matrix" values="0 0 0 0 0 0 0 0 0 0 0 0 0 0 0 0 0 0 127 0" result="hardAlpha"/>
<feOffset dy="5"/>
<feGaussianBlur stdDeviation="1.5"/>
<feComposite in2="hardAlpha" operator="arithmetic" k2="-1" k3="1"/>
<feColorMatrix type="matrix" values="0 0 0 0 0 0 0 0 0 0.333333 0 0 0 0 0.721569 0 0 0 0.18 0"/>
<feBlend mode="normal" in2="shape" result="effect1_innerShadow_885_1731"/>
</filter>
<filter id="filter3_d_885_1731" x="-309" y="-67.9995" width="2224" height="727" filterUnits="userSpaceOnUse" color-interpolation-filters="sRGB">
<feFlood flood-opacity="0" result="BackgroundImageFix"/>
<feColorMatrix in="SourceAlpha" type="matrix" values="0 0 0 0 0 0 0 0 0 0 0 0 0 0 0 0 0 0 127 0" result="hardAlpha"/>
<feOffset dy="-7"/>
<feGaussianBlur stdDeviation="5.5"/>
<feComposite in2="hardAlpha" operator="out"/>
<feColorMatrix type="matrix" values="0 0 0 0 0 0 0 0 0 0 0 0 0 0 0 0 0 0 0.07 0"/>
<feBlend mode="normal" in2="BackgroundImageFix" result="effect1_dropShadow_885_1731"/>
<feBlend mode="normal" in="SourceGraphic" in2="effect1_dropShadow_885_1731" result="shape"/>
</filter>
<filter id="filter4_d_885_1731" x="-149" y="205" width="1601" height="541" filterUnits="userSpaceOnUse" color-interpolation-filters="sRGB">
<feFlood flood-opacity="0" result="BackgroundImageFix"/>
<feColorMatrix in="SourceAlpha" type="matrix" values="0 0 0 0 0 0 0 0 0 0 0 0 0 0 0 0 0 0 127 0" result="hardAlpha"/>
<feOffset dy="-3"/>
<feGaussianBlur stdDeviation="4"/>
<feComposite in2="hardAlpha" operator="out"/>
<feColorMatrix type="matrix" values="0 0 0 0 0 0 0 0 0 0 0 0 0 0 0 0 0 0 0.25 0"/>
<feBlend mode="normal" in2="BackgroundImageFix" result="effect1_dropShadow_885_1731"/>
<feBlend mode="normal" in="SourceGraphic" in2="effect1_dropShadow_885_1731" result="shape"/>
</filter>
<linearGradient id="paint0_linear_885_1731" x1="-80.4363" y1="219.637" x2="212.768" y2="-729.131" gradientUnits="userSpaceOnUse">
<stop stop-color="#FAA520"/>
<stop offset="1" stop-color="#FFFBF4"/>
</linearGradient>
<clipPath id="clip0_885_1731">
<rect width="1440" height="678" fill="white" transform="translate(-1)"/>
</clipPath>
</defs>
</svg>
