<svg width="1440" height="1351" viewBox="0 0 1440 1351" fill="none" xmlns="http://www.w3.org/2000/svg">
<path d="M937 376L30 375.999C74.9288 68.5484 744.649 -67.7937 937 376Z" fill="#CFE7FE"/>
<path d="M1 116.373C25 104.736 49 100.58 78 100.58C126 100.58 194.405 136.686 263.675 188.135C393.5 284.558 594.5 352.72 772.5 213.072C1014.3 23.3706 1263 1.42692e-05 1398 1.42939e-05C1414 -0.000188452 1429 1.24667 1441 3.32456V894H1V116.373Z" fill="#6AB6FF"/>
<path d="M1618.49 758.112C1618.49 758.112 1421.19 796.831 1199.85 758.383C989.476 721.739 892.173 655.765 820.078 585.736C695.179 451.224 570.281 411.009 348.917 429.037C181.402 442.679 51.3373 411.702 -11.6633 293.831C-79.5544 166.81 -172 193.294 -172 193.294V861H2108C1939.53 706.667 1618.49 758.112 1618.49 758.112Z" fill="#0A72CF"/>
<path d="M1742.78 300.644C1552.87 191.039 1263.29 179.745 1038.02 273.153C917.232 323.233 817.923 398.629 701.468 454.415C554.753 524.696 381.437 562.153 212.698 560.041C43.9593 557.928 -119.415 516.277 -248.029 442.551M-244.66 459.829C-206.371 481.326 -165.046 499.884 -121.523 515.479C-17.2605 552.827 99.7498 573.144 219.273 573.89C388.695 574.944 562.388 536.656 709.51 465.725C722.341 459.538 734.968 453.115 747.434 446.516C848.437 393.057 939.196 327.96 1047.21 283.151C1052.63 280.904 1058.09 278.71 1063.59 276.584C1175.52 233.231 1302.04 215.087 1423.55 221.505C1545.07 227.915 1661.55 258.87 1753.64 313.232M-241.291 477.115C-202.582 498.395 -160.832 516.581 -116.945 531.805C-11.7963 568.271 105.841 587.736 225.848 587.74C395.944 587.743 570.033 548.622 717.553 477.043C730.425 470.798 743.084 464.318 755.591 457.669C856.874 403.763 947.91 338.205 1056.41 293.17C1061.86 290.911 1067.35 288.706 1072.87 286.569C1185.32 243.007 1312.59 224.96 1434.51 231.864C1556.44 238.767 1672.99 270.606 1764.5 325.835M-237.922 494.4C-198.802 515.466 -156.628 533.28 -112.357 548.13C-6.32204 583.713 111.952 602.325 232.441 601.579C403.221 600.523 577.686 560.572 725.614 488.343C738.517 482.042 751.218 475.511 763.755 468.799C865.317 414.446 956.621 348.429 1065.61 303.159C1071.09 300.882 1076.6 298.673 1082.15 296.525C1195.13 252.745 1323.12 234.798 1445.48 242.193C1567.84 249.587 1684.43 282.311 1775.36 338.408M-234.542 511.684C-195.002 532.533 -152.405 549.968 -107.769 564.455C-0.847673 599.156 118.063 616.907 239.024 615.42C410.479 613.313 585.341 572.53 733.666 499.652C746.6 493.294 759.342 486.706 771.91 479.937C873.75 425.131 965.332 358.659 1074.81 313.163C1080.31 310.876 1085.85 308.656 1091.42 306.496C1204.93 262.499 1333.67 244.649 1456.45 252.536C1579.22 260.422 1695.88 294.031 1786.22 351.003M-231.173 528.97C-191.222 549.604 -148.19 566.665 -103.191 580.781C4.61655 614.6 124.154 631.499 245.598 629.263C417.735 626.096 592.974 584.483 741.717 510.953C754.691 504.538 767.454 497.896 780.065 491.076C882.185 435.823 974.034 368.892 1084.01 323.16C1089.54 320.861 1095.1 318.63 1100.7 316.46C1214.74 272.252 1344.22 254.494 1467.4 262.881C1590.59 271.268 1707.32 305.759 1797.08 363.592M-227.803 546.256C-187.44 566.681 -143.986 583.363 -98.6121 597.115C10.0821 630.051 130.257 646.097 252.183 643.119C425.006 638.9 600.63 596.448 749.771 522.277C762.777 515.805 775.581 509.105 788.223 502.229C890.622 446.529 982.748 379.137 1093.22 333.179C1098.76 330.869 1104.35 328.626 1109.98 326.445C1224.54 282.021 1354.77 264.36 1478.37 273.239C1601.98 282.118 1718.78 317.492 1807.94 376.194M-224.435 563.534C-183.652 583.743 -139.773 600.053 -94.0352 613.434C15.5453 645.488 136.356 660.673 258.756 656.954C432.251 651.677 608.263 608.401 757.811 533.573C770.857 527.044 783.694 520.294 796.367 513.362C899.045 457.216 991.437 389.356 1102.4 343.171C1107.97 340.851 1113.58 338.597 1119.23 336.405C1234.33 291.769 1365.29 274.199 1489.32 283.571C1613.35 292.942 1730.2 329.201 1818.78 388.777M-221.066 580.82C-179.872 600.814 -135.558 616.75 -89.4473 629.759C21.0182 660.923 142.457 675.264 265.339 670.795C439.519 664.466 615.907 620.352 765.863 544.881C778.941 538.296 791.818 531.489 804.532 524.5C907.489 467.899 1000.16 399.586 1111.61 353.174C1117.21 350.842 1122.84 348.578 1128.52 346.374C1244.14 301.522 1375.85 284.049 1500.3 293.92C1624.74 303.784 1741.66 340.926 1829.66 401.371M-217.696 598.105C-176.082 617.883 -131.354 633.448 -84.8692 646.085C26.4825 676.367 148.557 689.847 271.912 684.638C446.765 677.25 623.55 632.304 773.903 556.185C787.022 549.542 799.931 542.678 812.676 535.633C915.912 478.585 1008.85 409.812 1120.8 363.165C1126.41 360.823 1132.08 358.546 1137.79 356.332C1253.94 311.269 1386.38 293.896 1511.24 304.252C1636.11 314.608 1753.08 352.635 1840.5 413.954M-214.317 615.389C-172.292 634.952 -127.131 650.137 -80.2813 662.41C31.9567 691.81 154.668 704.436 278.507 698.484C454.044 690.045 631.205 644.269 781.966 567.499C795.116 560.8 808.066 553.879 820.843 546.785C924.359 489.29 1017.57 420.056 1130.01 373.182C1135.66 370.828 1141.35 368.542 1147.08 366.316C1263.75 321.036 1396.94 303.761 1522.22 314.609C1647.51 325.456 1764.54 364.368 1851.37 426.555M-210.948 632.675C-168.512 652.022 -122.916 666.834 -75.702 678.744C37.4223 707.261 160.761 719.035 285.082 712.334C461.292 702.837 638.85 656.227 790.009 578.809C803.189 572.054 816.17 565.077 828.988 557.925C932.783 499.983 1026.27 430.289 1139.2 383.18C1144.88 380.815 1150.58 378.511 1156.34 376.281C1273.55 330.783 1407.48 313.606 1533.18 324.953C1658.89 336.3 1775.98 376.089 1862.23 439.143M-207.578 649.96C-164.722 669.091 -118.712 683.532 -71.124 695.07C42.8865 722.705 166.861 733.619 291.655 726.177C468.55 715.627 646.483 668.181 798.051 590.12C811.272 583.307 824.285 576.281 837.134 569.072C941.209 510.684 1034.97 440.529 1148.38 393.195C1154.08 390.819 1159.82 388.502 1165.6 386.262C1283.33 340.555 1418 323.468 1544.13 335.307C1670.25 347.146 1787.42 387.817 1873.07 451.748M-204.21 667.239C-160.943 686.155 -114.499 700.222 -66.5373 711.388C48.3595 738.14 172.971 748.201 298.248 740.016C475.826 728.407 654.147 680.136 806.111 601.42C819.364 594.551 832.418 587.467 845.298 580.202C949.651 521.36 1043.68 450.745 1157.59 403.183C1163.31 400.796 1169.08 398.469 1174.88 396.217C1293.15 350.292 1428.56 333.303 1555.09 345.636C1681.63 357.969 1798.86 399.523 1883.93 464.321M-200.841 684.524C-157.153 703.224 -110.285 716.919 -61.9591 727.715C53.8239 753.584 179.063 762.793 304.822 753.859C483.075 741.199 661.781 692.09 814.152 612.723C827.446 605.796 840.531 598.656 853.452 591.334C958.085 532.045 1052.39 460.969 1166.79 413.18C1172.53 410.782 1178.33 408.444 1184.16 406.181C1302.96 360.045 1439.11 343.147 1566.06 355.979C1693.02 368.812 1810.31 411.243 1894.8 476.909M-197.471 701.81C-153.373 720.294 -106.07 733.616 -57.3798 744.048C59.2895 769.035 185.164 777.383 311.396 767.709C490.334 753.997 669.425 704.049 822.205 624.039C835.531 617.063 848.656 609.859 861.609 602.487C966.522 542.751 1061.09 471.215 1176 423.191C1181.76 420.782 1187.59 418.432 1193.45 416.157C1312.77 369.805 1449.66 353.006 1577.04 366.329C1704.43 379.652 1821.77 422.968 1905.67 489.51M-194.092 719.094C-149.583 737.363 -101.857 750.306 -52.792 760.373C64.7635 784.478 191.265 791.974 317.989 781.548C497.6 766.779 677.079 716.006 830.266 635.339C843.633 628.306 856.789 621.045 869.773 613.617C974.965 553.435 1069.81 481.438 1185.2 433.188C1190.99 430.768 1196.83 428.408 1202.73 426.121C1322.58 379.558 1460.2 362.857 1588.01 376.665C1715.81 390.473 1833.21 434.681 1916.53 502.09M-190.722 736.38C-145.793 754.433 -97.6426 767.003 -48.2137 776.7C70.228 799.922 197.367 806.565 324.564 795.398C504.859 779.576 684.724 727.965 838.309 646.657C851.707 639.567 864.905 632.256 877.921 624.772C983.391 564.135 1078.51 491.686 1194.39 443.201C1200.2 440.763 1206.07 438.399 1211.99 436.101C1332.37 389.32 1470.74 372.717 1598.96 387.019C1727.17 401.32 1844.65 446.409 1927.38 514.688M-187.354 753.658C-142.013 771.503 -93.4295 783.693 -43.627 793.018C75.6911 815.358 203.476 821.139 331.146 809.232C512.115 792.352 692.367 739.917 846.359 657.951C859.788 650.805 873.017 643.438 886.074 635.896C991.823 574.813 1087.22 501.902 1203.59 453.191C1209.43 450.741 1215.32 448.367 1221.27 446.057C1342.17 399.059 1481.29 382.554 1609.92 397.355C1738.56 412.156 1856.09 458.122 1938.24 527.275M-183.985 770.943C-138.224 788.572 -89.2252 800.391 -39.049 809.344C81.1541 830.795 209.567 835.731 337.73 823.073C519.382 805.141 700.021 751.867 854.41 669.26C867.881 662.056 881.141 654.633 894.229 647.035C1000.26 585.505 1095.92 512.134 1212.79 463.187C1218.65 460.728 1224.58 458.341 1230.54 456.021C1351.97 408.813 1491.84 392.398 1620.89 407.691C1749.94 422.984 1867.54 469.842 1949.11 539.854M-180.616 788.229C-134.443 805.642 -85.0108 817.088 -34.4697 825.677C86.6197 846.246 215.668 850.322 344.305 836.93C526.641 817.939 707.656 763.834 862.454 680.578C875.955 673.318 889.256 665.836 902.386 658.188C1008.69 596.211 1104.63 522.372 1221.98 473.207C1227.87 470.736 1233.82 468.339 1239.81 466.008C1361.77 418.582 1502.37 402.267 1631.85 418.05C1761.33 433.834 1878.98 481.578 1959.97 552.465M-177.246 805.514C-130.663 822.713 -80.7963 833.785 -29.8916 842.004C92.0841 861.69 221.77 864.912 350.879 850.772C533.889 830.73 715.301 775.793 870.496 691.888C884.038 684.57 897.371 677.04 910.531 669.328C1017.12 606.905 1113.32 532.606 1231.17 483.206C1237.09 480.723 1243.06 478.315 1249.08 475.973C1371.56 428.337 1512.9 412.113 1642.8 428.397C1772.69 444.681 1890.41 493.3 1970.81 565.055M-173.877 822.8C-126.873 839.782 -76.5931 850.476 -25.3035 858.329C97.5583 877.133 227.871 879.503 357.472 864.612C541.166 843.511 722.954 787.743 878.556 703.188C892.13 695.814 905.504 688.226 918.696 680.466C1025.57 617.586 1122.04 542.835 1240.38 493.208C1246.32 490.716 1252.32 488.295 1258.37 485.942C1381.38 438.089 1523.46 421.962 1653.77 438.739C1784.09 455.515 1901.87 505.017 1981.68 577.641M-170.497 840.084C-123.084 856.851 -72.3689 867.172 -20.7156 874.654C103.032 892.575 233.981 894.085 364.056 878.453C548.424 856.301 730.597 799.695 886.608 714.497C900.213 707.067 913.628 699.421 926.851 691.604C1034.01 628.279 1130.75 553.067 1249.58 503.205C1255.55 500.701 1261.57 498.27 1267.64 495.906C1391.18 447.836 1534.01 431.807 1664.74 449.075C1795.47 466.343 1913.32 516.73 1992.55 590.229M-167.129 857.363C-119.305 873.914 -68.1558 883.862 -16.1389 890.973C108.495 908.012 240.081 908.668 370.629 892.296C555.68 869.084 738.242 811.654 894.649 725.8C908.295 718.313 921.731 710.612 934.995 702.738C1042.43 638.965 1139.45 563.293 1258.76 513.205C1264.76 510.689 1270.8 508.241 1276.9 505.872C1400.97 457.592 1544.54 441.661 1675.69 459.422C1806.84 477.182 1924.75 528.453 2003.39 602.82M-163.76 874.648C-115.515 890.983 -63.9513 900.56 -11.5595 907.307C113.961 923.463 246.174 923.268 377.214 906.144C562.939 881.882 745.886 823.613 902.712 737.115C916.389 729.571 929.866 721.813 943.172 713.888C1050.89 649.668 1148.17 573.536 1267.99 523.214C1274 520.688 1280.08 518.227 1286.2 515.848C1410.79 467.35 1555.1 451.517 1686.67 469.771C1818.23 488.025 1936.2 540.178 2014.26 615.413M-160.39 891.934C-111.735 908.054 -59.7371 917.257 -6.9816 923.633C119.425 938.907 252.274 937.851 383.787 919.987C570.196 894.665 753.529 835.564 910.753 748.418C924.471 740.816 937.98 733.009 951.316 725.021C1059.31 660.347 1156.87 583.761 1277.18 533.212C1283.22 530.674 1289.31 528.203 1295.46 525.812C1420.59 477.104 1565.63 461.364 1697.62 480.108C1829.61 498.853 1947.64 551.892 2025.12 628.002M-157.021 909.219C-107.945 925.123 -55.5226 933.954 -2.39352 939.958C124.9 954.35 258.385 952.44 390.372 933.835C577.465 907.461 761.175 847.531 918.806 759.734C932.555 752.076 946.105 744.211 959.474 736.174C1067.75 671.054 1165.57 594 1286.38 543.223C1292.44 540.676 1298.56 538.193 1304.74 535.791C1430.4 486.864 1576.18 471.222 1708.59 490.459C1841 509.696 1959.09 563.619 2035.98 640.596M-153.651 926.505C-104.165 942.193 -51.3193 950.645 2.1846 956.284C130.364 969.793 264.476 967.025 396.955 947.676C584.722 920.244 768.828 859.481 926.857 771.035C940.646 763.32 954.228 755.399 967.628 747.305C1076.18 681.738 1174.28 604.224 1295.58 553.22C1301.67 550.661 1307.81 548.168 1314.02 545.754C1440.2 496.619 1586.73 481.066 1719.56 500.803C1852.39 520.539 1970.54 575.338 2046.84 653.191M-150.272 943.789C-100.375 959.262 -47.0952 967.34 6.77238 972.609C135.838 985.236 270.587 981.614 403.538 961.517C591.989 933.033 776.471 871.433 934.907 782.337C948.728 774.566 962.351 766.587 975.781 758.437C1084.61 692.423 1182.98 614.449 1304.77 563.211C1310.89 560.64 1317.06 558.136 1323.28 555.712C1450 506.358 1597.26 490.905 1730.5 511.134C1863.75 531.364 1981.97 587.046 2057.68 665.767M-146.904 961.067C-96.5865 976.324 -42.8821 984.03 11.3505 988.936C141.301 1000.67 276.688 996.205 410.112 975.36C599.236 945.818 784.116 883.392 942.95 793.647C956.801 785.82 970.456 777.792 983.928 769.585C1093.04 703.124 1191.69 624.689 1313.96 573.224C1320.1 570.643 1326.3 568.127 1332.55 565.692C1459.79 516.121 1607.8 500.765 1741.46 521.487C1875.12 542.208 1993.41 598.775 2068.54 678.364M-143.535 978.353C-92.8052 993.402 -38.6676 1000.73 15.9286 1005.26C146.766 1016.12 282.778 1010.79 416.696 989.208C606.505 958.614 791.761 895.35 951.002 804.956C964.894 797.071 978.58 788.987 992.093 780.722C1101.48 713.807 1200.4 634.919 1323.17 583.219C1329.34 580.627 1335.56 578.101 1341.84 575.654C1469.61 525.872 1618.35 510.616 1752.44 531.828C1886.53 553.041 2004.86 610.493 2079.41 690.957M-140.165 995.639C-89.0152 1010.47 -34.4632 1017.43 20.5166 1021.59C152.24 1031.56 288.89 1025.38 423.28 1003.05C613.772 971.396 799.414 907.301 959.053 816.265C972.977 808.324 986.704 800.182 1000.25 791.868C1109.92 724.506 1209.11 645.157 1332.38 593.231C1338.57 590.62 1344.82 588.089 1351.12 585.632C1479.41 535.634 1628.9 520.475 1763.4 542.181C1897.9 563.887 2016.3 622.222 2090.27 703.553M-136.796 1012.92C-85.2353 1027.54 -30.2489 1034.12 25.0946 1037.91C157.704 1047 294.981 1039.97 429.853 1016.89C621.02 984.187 807.048 919.261 967.094 827.568C981.059 819.569 994.817 811.371 1008.39 803.001C1118.34 735.192 1217.8 655.384 1341.56 603.223C1347.77 600.602 1354.04 598.06 1360.37 595.591C1489.2 545.383 1639.42 530.314 1774.34 552.513C1909.27 574.718 2027.74 633.936 2101.11 716.129M-133.426 1030.21C-81.4553 1044.61 -26.0357 1050.81 29.6739 1054.25C163.17 1062.45 301.083 1054.56 436.439 1030.75C628.289 996.984 814.704 931.226 975.159 838.89C989.155 830.835 1002.95 822.579 1016.56 814.153C1126.79 745.89 1226.52 665.613 1350.77 613.226C1357.01 610.593 1363.3 608.041 1369.66 605.561C1499 555.135 1649.98 540.164 1785.32 562.862C1920.66 585.559 2039.19 645.661 2111.98 728.73M-130.047 1047.49C-77.6554 1061.68 -21.8213 1067.51 34.262 1070.57C168.644 1077.9 307.194 1069.15 443.022 1044.59C635.546 1009.77 822.348 943.185 983.209 850.192C997.236 842.08 1011.08 833.774 1024.72 825.292C1135.22 756.582 1235.23 675.853 1359.97 623.237C1366.23 620.594 1372.56 618.029 1378.94 615.539C1508.82 564.903 1660.53 550.023 1796.29 573.213C1932.05 596.402 2050.64 657.389 2122.85 741.325M-126.679 1064.77C-73.8767 1078.74 -17.6083 1084.2 38.8387 1086.89C174.107 1093.33 313.283 1083.73 449.594 1058.42C642.802 1022.55 829.99 955.129 991.25 861.495C1005.32 853.325 1019.18 844.965 1032.86 836.424C1143.65 767.268 1243.93 686.077 1369.16 633.235C1375.45 630.581 1381.8 628.006 1388.21 625.503C1518.61 574.65 1671.08 559.867 1807.25 583.55C1943.42 607.233 2062.08 669.102 2133.7 753.906M-123.309 1082.06C-70.0867 1095.81 -13.3938 1100.9 43.4267 1103.22C179.581 1108.78 319.394 1098.32 456.188 1072.26C650.07 1035.34 837.644 967.079 999.311 872.795C1013.41 864.569 1027.31 856.151 1041.03 847.56C1152.1 777.957 1252.65 696.307 1378.37 643.231C1384.69 640.565 1391.06 637.979 1397.5 635.465C1528.43 584.394 1681.63 569.711 1818.23 593.892C1954.83 618.073 2073.53 680.821 2144.57 766.499M-119.94 1099.34C-66.3066 1112.88 -9.1893 1117.59 48.0049 1119.54C185.036 1124.22 325.496 1112.91 462.762 1086.11C657.329 1048.14 845.289 979.045 1007.35 884.112C1021.49 875.829 1035.43 867.354 1049.18 858.707C1160.53 788.658 1261.35 706.546 1387.56 653.243C1393.9 650.567 1400.29 647.963 1406.77 645.444C1538.22 594.164 1692.16 579.571 1829.18 604.244C1966.2 628.91 2084.98 692.548 2155.43 779.096M-116.571 1116.63C-62.5267 1129.95 -4.97501 1134.29 52.5841 1135.88C190.501 1139.67 331.587 1127.5 469.337 1099.96C664.587 1060.93 852.924 991.006 1015.4 895.423C1029.57 887.083 1043.54 878.558 1057.33 869.848C1168.95 799.352 1270.04 716.78 1396.75 663.242C1403.12 660.554 1409.54 657.939 1416.03 655.41C1548.02 603.911 1702.7 589.424 1840.14 614.582C1977.58 639.74 2096.42 704.262 2166.28 791.685M-113.201 1133.91C-58.7369 1147.02 -0.761951 1150.98 57.1621 1152.2C195.964 1155.11 337.688 1142.09 475.92 1113.8C671.844 1073.72 860.567 1002.96 1023.45 906.732C1037.66 898.335 1051.67 889.753 1065.48 880.994C1177.38 810.043 1278.75 727.011 1405.96 673.253C1412.34 670.556 1418.79 667.928 1425.31 665.388C1557.82 613.68 1713.25 599.283 1851.1 624.934C1988.95 650.586 2107.85 715.983 2177.13 804.274M-109.822 1151.2C-54.9469 1164.09 3.45246 1167.68 61.76 1168.53C201.448 1170.55 343.81 1156.68 482.515 1127.65C679.122 1086.5 868.233 1014.92 1031.51 918.039C1045.75 909.586 1059.8 900.947 1073.65 892.131C1185.83 820.734 1287.47 737.241 1415.17 683.249C1421.58 680.539 1428.05 677.902 1434.6 675.35C1567.64 623.424 1723.81 609.125 1862.08 635.276C2000.35 661.427 2119.31 727.709 2188.01 816.867M-106.454 1168.48C-51.1582 1181.15 7.66558 1184.37 66.3369 1184.85C206.911 1185.99 349.899 1171.26 489.087 1141.49C686.369 1099.29 875.865 1026.87 1039.55 929.335C1053.82 920.825 1067.91 912.129 1081.79 903.264C1194.25 831.42 1296.17 747.466 1424.35 693.248C1430.79 690.528 1437.29 687.879 1443.85 685.316C1577.43 633.179 1734.34 618.972 1873.02 645.615C2011.71 672.258 2130.74 739.424 2198.85 829.458M-103.084 1185.76C-47.377 1198.23 11.8799 1201.07 70.9149 1201.17C212.376 1201.43 356 1185.85 495.67 1155.33C693.635 1112.07 883.518 1038.82 1047.6 940.644C1061.92 932.077 1076.03 923.326 1089.96 914.402C1202.7 842.111 1304.88 757.697 1433.56 703.244C1440.01 700.513 1446.54 697.853 1453.14 695.279C1587.24 642.925 1744.88 628.817 1884 655.95C2023.12 683.084 2142.19 751.136 2209.72 842.037M-99.7149 1203.05C-43.597 1215.3 16.0943 1217.76 75.4942 1217.51C217.841 1216.88 362.102 1200.44 502.245 1169.18C700.884 1124.87 891.154 1050.78 1055.65 951.953C1070 943.329 1084.15 934.528 1098.11 925.54C1211.13 852.796 1313.59 767.928 1442.76 713.241C1449.24 710.498 1455.79 707.828 1462.42 705.242C1597.05 652.671 1755.43 638.661 1894.96 666.295C2034.48 693.922 2153.64 762.856 2220.57 854.626M-96.3454 1220.33C-39.807 1232.37 20.2988 1234.46 80.0723 1233.83C223.306 1232.33 368.193 1215.03 508.819 1183.03C708.142 1137.66 898.798 1062.74 1063.7 963.27C1078.08 954.589 1092.27 945.731 1106.26 936.695C1219.56 863.503 1322.28 778.176 1451.95 723.261C1458.47 720.507 1465.03 717.826 1471.69 715.229C1606.84 662.448 1765.97 648.528 1905.92 676.655C2045.87 704.781 2165.08 774.591 2231.43 867.236M-92.976 1237.62C-36.0269 1249.44 24.512 1251.15 84.6604 1250.16C228.78 1247.77 374.304 1229.62 515.413 1196.87C715.42 1150.45 906.451 1074.69 1071.76 974.57C1086.18 965.833 1100.4 956.918 1114.42 947.825C1228 874.187 1331 788.398 1461.15 733.25C1467.68 730.479 1474.29 727.793 1480.96 725.186C1616.65 672.186 1776.52 658.372 1916.88 686.984C2057.25 715.595 2176.52 786.297 2242.29 879.809M-89.6079 1254.9C-32.2384 1266.5 28.725 1267.84 89.237 1266.48C234.243 1263.21 380.393 1244.2 521.985 1210.7C722.665 1163.23 914.095 1086.64 1079.8 985.873C1094.25 977.08 1108.51 968.107 1122.57 958.965C1236.43 884.88 1339.69 798.625 1470.34 743.256C1476.9 740.473 1483.53 737.777 1490.23 735.158C1626.44 681.949 1787.05 668.225 1927.84 697.336C2068.63 726.446 2187.96 798.032 2253.14 892.406M-86.2285 1272.18C-28.4483 1283.57 32.9394 1284.54 93.8251 1282.8C239.717 1278.65 386.504 1258.79 528.568 1224.54C729.933 1176.01 921.738 1098.6 1087.85 997.175C1102.34 988.331 1116.64 979.302 1130.72 970.097C1244.86 895.565 1348.41 808.848 1479.54 753.246C1486.12 750.453 1492.77 747.745 1499.5 745.115C1636.25 691.688 1797.59 678.064 1938.8 707.666C2080 737.269 2199.4 809.74 2264 904.988M-82.8591 1289.47C-24.6684 1300.64 37.1538 1301.23 98.4044 1299.13C245.183 1294.1 392.607 1273.38 535.154 1238.4C737.192 1188.81 929.394 1110.56 1095.9 1008.5C1110.43 999.598 1124.75 990.513 1138.89 981.249C1253.3 906.262 1357.12 819.093 1488.76 763.263C1495.36 760.458 1502.04 757.738 1508.79 755.098C1646.06 701.462 1808.15 687.928 1949.78 718.023C2091.4 748.117 2210.86 821.471 2274.87 917.588M-79.4897 1306.75C-20.8785 1317.71 41.3681 1317.93 102.982 1315.46C250.647 1309.54 398.697 1287.97 541.727 1252.24C744.45 1201.6 937.028 1122.52 1103.94 1019.8C1118.51 1010.84 1132.87 1001.7 1147.03 992.389C1261.73 916.956 1365.82 829.326 1497.94 773.263C1504.57 770.447 1511.27 767.717 1518.05 765.065C1655.85 711.211 1818.68 697.775 1960.72 728.369C2102.77 758.963 2222.29 833.194 2285.72 930.186M-76.1204 1324.04C-17.0985 1334.78 45.5725 1334.63 107.57 1331.79C256.12 1324.98 404.808 1302.56 548.311 1266.08C751.707 1214.39 944.681 1134.47 1112 1031.11C1126.59 1022.1 1140.99 1012.9 1155.19 1003.53C1270.16 927.648 1374.52 839.558 1507.14 783.267C1513.79 780.44 1520.52 777.692 1527.33 775.036C1665.65 720.965 1829.22 707.626 1971.69 738.712C2114.16 769.799 2233.74 844.913 2296.58 942.773M-72.7509 1341.32C-13.3085 1351.85 49.7857 1351.32 112.148 1348.11C491.866 1328.58 870.876 1208.36 1163.34 1014.67C1284.39 934.504 1393.71 840.869 1536.6 784.999C1675.46 730.718 1839.77 717.47 1982.65 749.05C2125.52 780.63 2245.17 856.628 2307.43 955.355" stroke="url(#paint0_linear_1_2799)" stroke-miterlimit="10"/>
<path d="M1586 954L1586 819.502C1586 819.502 1482.31 613.804 946.532 754.398C539.622 861.176 378.371 772.94 199.328 646.059C43.516 535.641 -81 625.432 -81 625.432L-80.9999 954" fill="white"/>
<defs>
<linearGradient id="paint0_linear_1_2799" x1="1470.63" y1="1113.63" x2="951.428" y2="455.818" gradientUnits="userSpaceOnUse">
<stop stop-color="white"/>
<stop offset="1" stop-color="white" stop-opacity="0"/>
</linearGradient>
</defs>
</svg>
