<svg width="1439" height="2155" viewBox="0 0 1439 2155" fill="none" xmlns="http://www.w3.org/2000/svg">
<path fill-rule="evenodd" clip-rule="evenodd" d="M1022.54 341.237C1335.07 455.274 1463.74 339.787 1489 267.789V1225.99H1458.59V1402.85H1455.78V1855.61H1425.37V2032.47H20.8403V1402.85H-46.9999V334.472C-36.8826 328.572 -26.7458 323.093 -16.5886 318.02V157.617C232.266 12.4973 492.809 122.418 783.982 245.261L783.983 245.262C861.228 277.851 940.629 311.349 1022.54 341.237Z" fill="#CFE7FE"/>
<path d="M1379.17 941.061C1597.5 785.937 1930.03 760.726 2069 767.511V1233.53H-100V1080.33C45.5 964.63 228.5 926.436 485.788 964.63C710.023 997.917 1106.26 1134.97 1379.17 941.061Z" fill="#6AB6FF"/>
<rect x="-334" y="1094.53" width="1823" height="1699" fill="#6AB6FF"/>
<path d="M1675.52 90.1373C1486.4 -17.735 1198.03 -28.8497 973.69 63.0806C853.409 112.369 754.513 186.572 638.543 241.476C492.439 310.645 319.845 347.51 151.809 345.431C-16.2279 343.351 -178.922 302.36 -307 229.8M-303.646 246.805C-265.516 267.961 -224.363 286.226 -181.022 301.574C-77.1928 338.331 39.3303 358.327 158.356 359.061C327.073 360.098 500.042 322.416 646.552 252.607C659.329 246.518 671.904 240.196 684.318 233.701C784.9 181.088 875.281 117.021 982.842 72.9208C988.241 70.7092 993.679 68.55 999.159 66.4573C1110.62 23.7901 1236.61 5.93316 1357.62 12.249C1478.63 18.5578 1594.63 49.0238 1686.34 102.526M-300.291 263.817C-261.742 284.76 -220.167 302.659 -176.463 317.642C-71.7513 353.531 45.3963 372.688 164.903 372.692C334.292 372.695 507.656 334.193 654.562 263.746C667.38 257.599 679.985 251.222 692.441 244.678C793.302 191.625 883.959 127.104 992.008 82.7808C997.435 80.5578 1002.9 78.3872 1008.4 76.2846C1120.38 33.4113 1247.12 15.6499 1368.54 22.4444C1489.96 29.239 1606.02 60.5738 1697.15 114.93M-296.935 280.829C-257.978 301.561 -215.98 319.093 -171.894 333.708C-66.2999 368.729 51.4821 387.046 171.469 386.313C341.538 385.273 515.277 345.954 662.589 274.867C675.438 268.665 688.086 262.239 700.571 255.632C801.71 202.139 892.633 137.166 1001.17 92.6123C1006.62 90.3708 1012.11 88.1974 1017.64 86.0834C1130.15 42.9954 1257.61 25.3325 1379.46 32.6099C1501.3 39.8874 1617.42 72.0939 1707.96 127.304M-293.57 297.839C-254.194 318.358 -211.774 335.517 -167.325 349.775C-60.8483 383.927 57.5668 401.397 178.025 399.935C348.765 397.86 522.9 357.722 670.607 285.997C683.487 279.74 696.176 273.256 708.692 266.594C810.108 212.655 901.309 147.235 1010.33 102.458C1015.81 100.207 1021.32 98.0218 1026.88 95.8965C1139.91 52.5953 1268.11 35.0279 1390.38 42.7897C1512.64 50.5514 1628.82 83.6283 1718.78 139.699M-290.214 314.852C-250.43 335.159 -207.577 351.95 -162.766 365.843C-55.4068 399.127 63.6329 415.759 184.571 413.558C355.992 410.442 530.501 369.486 678.624 297.12C691.545 290.806 704.255 284.269 716.813 277.557C818.507 223.178 909.974 157.305 1019.49 112.297C1025 110.034 1030.54 107.838 1036.11 105.703C1149.68 62.1939 1278.62 44.7165 1401.29 52.9711C1523.96 61.2257 1640.21 95.1714 1729.59 152.089M-286.859 331.864C-246.664 351.967 -203.39 368.385 -158.206 381.919C-49.9641 414.334 69.71 430.126 191.129 427.195C363.232 423.042 538.125 381.262 686.645 308.264C699.597 301.895 712.347 295.301 724.937 288.534C826.909 233.715 918.652 167.388 1028.66 122.157C1034.18 119.884 1039.75 117.677 1045.35 115.53C1159.44 71.8081 1289.12 54.4263 1412.21 63.1652C1535.31 71.9041 1651.62 106.719 1740.41 164.492M-283.505 348.869C-242.891 368.759 -199.195 384.81 -153.648 397.98C-44.5236 429.526 75.7836 444.471 197.674 440.811C370.447 435.618 545.726 393.026 694.651 319.381C707.644 312.956 720.427 306.313 733.047 299.491C835.298 244.232 927.305 177.446 1037.8 131.992C1043.35 129.707 1048.94 127.49 1054.57 125.332C1169.19 81.4024 1299.6 64.1105 1423.11 73.3337C1546.62 82.557 1662.99 118.242 1751.21 176.876M-280.149 365.881C-239.127 385.559 -194.998 401.243 -149.079 414.047C-39.0734 444.718 81.8596 458.831 204.23 454.433C377.685 448.204 553.338 404.789 702.67 330.511C715.693 324.03 728.517 317.331 741.178 310.452C843.706 254.746 935.99 187.514 1046.97 141.836C1052.55 139.541 1058.16 137.313 1063.82 135.144C1178.95 91.001 1310.12 73.8046 1434.05 83.5193C1557.97 93.2269 1674.4 129.782 1762.03 189.27M-276.794 382.893C-235.353 402.358 -190.811 417.678 -144.52 430.115C-33.6319 459.917 87.9343 473.184 210.776 468.057C384.901 460.787 560.949 416.551 710.677 341.636C723.741 335.098 736.596 328.343 749.288 321.409C852.094 265.264 944.645 197.578 1056.12 151.669C1061.72 149.364 1067.37 147.123 1073.04 144.944C1188.71 100.594 1320.6 83.4958 1444.95 93.6878C1569.29 103.88 1685.78 141.305 1772.83 201.655M-273.429 399.904C-231.579 419.157 -186.606 434.102 -139.951 446.182C-28.1805 475.116 94.0201 487.542 217.343 481.685C392.15 473.379 568.573 428.327 718.706 352.771C731.802 346.178 744.697 339.367 757.421 332.384C860.506 275.799 953.332 207.66 1065.3 161.528C1070.92 159.211 1076.59 156.961 1082.3 154.77C1198.48 110.207 1331.12 93.2043 1455.88 103.881C1580.64 114.557 1697.19 152.853 1783.66 214.056M-270.074 416.916C-227.814 435.958 -182.409 450.535 -135.391 462.257C-22.7377 490.322 100.087 501.911 223.89 495.316C399.367 485.969 576.186 440.096 726.715 363.903C739.841 357.254 752.767 350.388 765.532 343.348C868.895 286.323 961.988 217.732 1074.45 171.368C1080.1 169.04 1085.79 166.772 1091.52 164.577C1208.24 119.799 1341.61 102.894 1466.79 114.062C1591.98 125.229 1708.58 164.388 1794.47 226.446M-266.718 433.928C-224.04 452.757 -178.222 466.969 -130.832 478.325C-17.2962 505.522 106.162 516.264 230.436 508.939C406.595 498.557 583.787 451.86 734.724 375.034C747.89 368.329 760.849 361.414 773.645 354.319C877.286 296.855 970.654 227.809 1083.6 181.224C1089.27 178.886 1094.99 176.606 1100.74 174.401C1217.98 129.417 1352.1 112.6 1477.7 124.252C1603.3 135.904 1719.97 175.931 1805.27 238.851M-263.364 450.933C-220.277 469.55 -174.026 483.395 -126.264 494.384C-11.8461 520.713 112.247 530.615 237.002 522.56C413.841 511.135 591.419 463.627 742.75 386.155C755.948 379.395 768.948 372.423 781.774 365.273C885.693 307.362 979.327 237.864 1092.77 191.054C1098.47 188.704 1104.21 186.414 1109.99 184.198C1227.76 138.999 1362.61 122.279 1488.62 134.417C1614.62 146.555 1731.37 187.452 1816.08 251.225M-260.009 467.946C-216.503 486.349 -169.83 499.828 -121.705 510.453C-6.4044 535.913 118.313 544.976 243.548 536.184C421.059 523.724 599.021 475.391 750.758 397.28C763.997 390.463 777.027 383.436 789.894 376.229C894.091 317.878 988.001 247.926 1101.93 200.893C1107.65 198.533 1113.42 196.232 1119.23 194.004C1237.53 148.598 1373.11 131.968 1499.54 144.597C1625.96 157.226 1742.77 198.986 1826.9 263.614M-256.653 484.958C-212.739 503.15 -165.633 516.261 -117.145 526.528C-0.961533 551.12 124.389 559.336 250.096 549.814C428.288 536.319 606.634 487.161 758.778 408.417C772.048 401.551 785.118 394.461 798.018 387.206C902.493 328.415 996.669 258.01 1111.09 210.746C1116.84 208.375 1122.64 206.062 1128.48 203.823C1247.3 158.204 1383.62 141.671 1510.47 154.783C1637.33 167.895 1754.18 210.526 1837.73 276.015M-253.288 501.969C-208.965 519.949 -161.437 532.687 -112.576 542.595C4.48972 566.318 130.465 573.696 256.661 563.435C435.524 548.899 614.256 498.929 766.804 419.539C780.116 412.616 793.217 405.47 806.148 398.16C910.901 338.929 1005.35 268.071 1120.26 220.585C1126.03 218.202 1131.85 215.88 1137.71 213.629C1257.06 167.802 1394.12 151.366 1521.39 164.956C1648.66 178.545 1765.57 222.054 1848.55 288.397M-249.933 518.981C-205.19 536.748 -157.24 549.12 -108.017 558.663C9.93144 581.518 136.541 588.056 263.209 577.066C442.753 561.494 621.869 510.699 774.814 430.677C788.157 423.699 801.3 416.504 814.261 409.138C919.292 349.461 1014.01 278.157 1129.41 230.439C1135.2 228.04 1141.05 225.713 1146.94 223.451C1266.81 177.411 1404.62 161.07 1532.29 175.145C1659.97 189.22 1776.96 233.597 1859.35 300.795M-246.578 535.986C-201.426 553.549 -153.045 565.545 -103.449 574.723C15.3718 596.71 142.624 602.4 269.763 590.681C449.978 574.068 629.48 522.462 782.83 441.793C796.204 434.76 809.378 427.509 822.38 420.087C927.689 359.97 1022.68 288.212 1138.57 240.271C1144.39 237.86 1150.25 235.523 1156.18 233.25C1276.58 186.995 1415.12 170.752 1543.21 185.318C1671.31 199.885 1788.36 245.124 1870.16 313.184M-243.223 552.998C-197.652 570.348 -148.858 581.98 -98.8906 590.791C20.812 611.903 148.69 616.761 276.319 604.303C457.216 586.655 637.102 534.223 790.849 452.923C804.263 445.833 817.468 438.527 830.501 431.049C936.089 370.492 1031.35 298.282 1147.73 250.109C1153.57 247.689 1159.47 245.339 1165.42 243.056C1286.34 196.595 1425.62 180.44 1554.14 195.491C1682.65 210.542 1799.76 256.659 1880.99 325.564M-239.868 570.01C-193.888 587.148 -144.661 598.413 -94.3303 606.866C26.2549 627.11 154.766 631.121 282.868 617.941C464.445 599.25 644.706 546.001 798.859 464.061C812.304 456.916 825.549 449.553 838.625 442.026C944.49 381.029 1040.03 308.358 1156.89 259.971C1162.76 257.539 1168.68 255.179 1174.65 252.885C1296.1 206.209 1436.11 190.153 1565.05 205.686C1693.99 221.22 1811.15 268.209 1891.8 337.975M-236.512 587.022C-190.124 603.948 -140.464 614.845 -89.7713 622.934C31.6965 642.309 160.842 645.481 289.414 631.564C471.662 611.839 652.318 557.771 806.867 475.193C820.353 467.991 833.631 460.58 846.736 452.99C952.88 391.553 1048.68 318.43 1166.04 269.811C1171.94 267.368 1177.88 264.998 1183.88 262.692C1305.85 215.81 1446.6 199.842 1575.95 215.869C1705.3 231.895 1822.53 279.746 1902.6 350.366M-233.157 604.034C-186.349 620.748 -136.278 631.272 -85.2023 639.001C37.148 657.507 166.918 659.84 295.98 645.185C478.909 624.417 659.94 569.532 814.894 486.314C828.411 479.057 841.73 471.589 854.867 463.951C961.298 402.066 1057.37 328.497 1175.22 279.655C1181.13 277.202 1187.11 274.82 1193.12 272.504C1315.63 225.408 1457.11 209.537 1586.88 226.047C1716.65 242.558 1833.95 291.278 1913.43 362.753M-229.792 621.045C-182.575 637.547 -132.072 647.704 -80.6335 655.068C42.5993 672.706 173.003 674.192 302.536 658.807C486.136 637.006 667.551 581.295 822.913 497.444C836.46 490.132 849.82 482.607 862.988 474.914C969.698 412.589 1066.03 338.568 1184.38 289.494C1190.32 287.03 1196.31 284.637 1202.36 282.31C1325.38 235.001 1467.62 219.225 1597.8 236.22C1727.99 253.216 1845.35 302.805 1924.24 375.142M-226.438 638.05C-178.812 654.34 -127.876 664.13 -76.0759 671.129C48.0396 687.899 179.077 688.545 309.082 672.431C493.362 649.587 675.164 593.065 830.92 508.569C844.508 501.2 857.889 493.621 871.098 485.871C978.086 423.107 1074.7 348.631 1193.52 299.336C1199.49 296.86 1205.5 294.451 1211.58 292.119C1335.13 244.602 1478.1 228.924 1608.71 246.403C1739.31 263.883 1856.73 314.343 1935.04 387.533M-223.082 655.063C-175.038 671.139 -123.689 680.564 -71.5155 687.204C53.4825 703.105 185.145 702.913 315.639 686.06C500.591 662.182 682.776 604.834 838.949 519.704C852.569 512.28 865.99 504.644 879.241 496.845C986.507 433.641 1083.38 358.713 1202.7 309.186C1208.69 306.7 1214.74 304.278 1220.84 301.937C1344.91 254.206 1488.63 238.623 1619.64 256.589C1750.65 274.554 1868.14 325.883 1945.87 399.927M-219.727 672.074C-171.274 687.94 -119.493 696.997 -66.9567 703.272C58.9239 718.305 191.219 717.265 322.185 699.684C507.818 674.763 690.388 616.597 846.957 530.828C860.617 523.347 874.07 515.663 887.351 507.801C994.894 444.151 1092.05 368.776 1211.86 319.026C1217.87 316.529 1223.94 314.097 1230.07 311.744C1354.67 263.806 1499.11 248.314 1630.55 266.763C1761.99 285.211 1879.53 337.411 1956.68 412.317M-216.371 689.087C-167.5 704.739 -115.296 713.43 -62.3877 719.339C64.3754 733.503 197.305 731.624 328.742 713.313C515.056 687.356 698.002 628.374 854.976 541.965C868.668 534.429 882.162 526.689 895.475 518.778C1003.3 454.688 1100.72 378.854 1221.02 328.879C1227.06 326.372 1233.15 323.928 1239.31 321.564C1364.44 273.412 1509.61 258.017 1641.47 276.95C1773.33 295.882 1890.93 348.953 1967.5 424.713M-213.016 706.099C-163.735 721.539 -111.11 729.857 -57.8287 735.407C69.817 748.703 203.37 745.978 335.298 726.935C522.283 699.937 705.623 640.135 862.994 553.088C876.726 545.495 890.251 537.699 903.595 529.734C1011.69 465.204 1109.39 388.915 1230.18 338.718C1236.25 336.199 1242.36 333.746 1248.54 331.37C1374.2 283.012 1520.12 267.706 1652.4 287.13C1784.67 306.554 1902.33 360.486 1978.32 437.108M-209.651 723.11C-159.961 738.338 -106.903 746.289 -53.26 751.474C75.2683 763.901 209.456 760.336 341.854 740.557C529.52 712.524 713.234 651.898 871.01 564.211C884.774 556.563 898.34 548.71 911.714 540.689C1020.09 475.719 1118.05 398.979 1239.33 348.551C1245.43 346.021 1251.57 343.556 1257.77 341.171C1383.96 292.598 1530.61 277.388 1663.29 297.298C1795.98 317.208 1913.71 372.009 1989.11 449.485M-206.297 740.115C-156.188 755.13 -102.708 762.715 -48.7009 767.542C80.7086 779.094 215.532 774.696 348.4 754.181C536.737 725.106 720.847 663.667 879.019 575.343C892.813 567.639 906.411 559.738 919.827 551.661C1028.48 486.251 1126.72 409.056 1248.49 358.405C1254.6 355.866 1260.77 353.389 1267 350.993C1393.71 302.206 1541.1 287.093 1674.21 307.487C1807.31 327.881 1925.1 383.552 1999.92 461.882M-202.941 757.127C-152.423 771.938 -98.5108 779.147 -44.1418 783.61C86.1503 794.293 221.597 789.05 354.957 767.81C543.976 737.7 728.46 675.437 887.038 586.473C900.873 578.712 914.502 570.756 927.958 562.621C1036.89 496.765 1135.4 419.125 1257.66 368.243C1263.8 365.691 1269.99 363.205 1276.25 360.797C1403.48 311.803 1551.61 296.788 1685.14 317.665C1818.67 338.542 1936.51 395.085 2010.75 474.276M-199.586 774.139C-148.649 788.737 -94.3238 795.582 -39.573 799.677C91.6017 809.492 227.683 803.409 361.513 781.433C551.212 750.28 736.081 687.198 895.056 597.603C908.922 589.787 922.592 581.774 936.08 573.591C1045.29 507.295 1144.07 429.201 1266.82 378.096C1272.99 375.526 1279.21 373.036 1285.49 370.618C1413.24 321.41 1562.11 306.491 1696.05 327.853C1829.99 349.216 1947.9 406.628 2021.56 486.674M-196.23 791.151C-144.885 805.537 -90.1271 812.014 -35.0141 815.745C97.0432 824.691 233.749 817.77 368.059 795.056C558.43 762.869 743.684 698.969 903.063 608.727C916.97 600.854 930.671 592.786 944.19 584.548C1053.68 517.812 1152.73 439.266 1275.97 387.93C1282.15 385.351 1288.4 382.849 1294.7 380.419C1422.99 331.004 1572.59 316.175 1706.95 338.022C1841.31 359.876 1959.29 418.157 2032.35 499.051M-192.875 808.163C-141.12 822.338 -85.9315 828.44 -30.4538 831.821C102.486 839.898 239.825 832.13 374.617 808.692C565.668 775.463 751.308 710.745 911.094 619.87C925.032 611.942 938.773 603.817 952.324 595.524C1062.09 528.341 1161.41 449.333 1285.14 397.775C1291.35 395.184 1297.62 392.672 1303.95 390.231C1432.76 340.603 1583.11 325.869 1717.89 348.207C1852.66 370.546 1970.7 429.697 2043.18 511.452M-189.51 825.174C-137.336 839.136 -81.7346 844.873 -25.8849 847.888C107.938 855.097 245.911 846.488 381.173 822.315C572.896 788.051 758.92 722.515 919.111 630.993C933.08 623.009 946.863 614.835 960.445 606.486C1070.49 538.864 1170.08 459.411 1294.3 407.628C1300.54 405.027 1306.84 402.502 1313.19 400.052C1442.53 350.216 1593.61 335.572 1728.81 358.395C1864 381.217 1982.1 441.239 2054 523.848M-186.156 842.179C-133.573 855.929 -77.5391 861.299 -21.3272 863.949C113.378 870.289 251.974 860.835 387.718 835.931C580.121 800.625 766.53 734.27 927.119 642.117C941.128 634.077 954.933 625.848 968.555 617.443C1078.88 549.381 1178.74 469.474 1303.45 417.468C1309.72 414.855 1316.04 412.321 1322.43 409.857C1452.29 359.809 1604.12 345.26 1739.72 368.569C1875.32 391.877 1993.49 452.768 2064.81 536.23M-182.8 859.191C-129.799 872.728 -73.3422 877.732 -16.7582 880.015C118.829 885.487 258.06 875.194 394.284 849.552C587.359 813.211 774.152 746.031 935.146 653.238C949.186 645.143 963.031 636.858 976.696 628.403C1087.3 559.901 1187.43 479.542 1312.63 427.305C1318.92 424.681 1325.26 422.137 1331.68 419.662C1462.06 369.399 1614.62 354.948 1750.65 378.747C1886.68 402.545 2004.9 464.301 2075.64 548.624M-179.445 876.203C-126.035 889.528 -69.1552 894.166 -12.1992 896.083C124.261 900.688 264.136 889.553 400.831 863.182C594.588 825.806 781.766 757.808 943.156 664.377C957.237 656.225 971.113 647.884 984.808 639.374C1095.69 570.432 1196.1 489.619 1321.78 437.159C1328.09 434.526 1334.46 431.963 1340.91 429.484C1471.82 379.014 1625.11 364.652 1761.56 388.935C1898.01 413.211 2016.3 475.842 2086.45 561.021M-176.089 893.216C-122.271 906.329 -64.9585 910.599 -7.63901 912.159C129.704 915.895 270.202 903.915 407.378 876.813C601.815 838.395 789.368 769.579 951.164 675.508C965.276 667.301 979.194 658.911 992.919 650.338C1104.08 580.957 1204.75 499.691 1330.93 447C1337.27 444.355 1343.67 441.781 1350.13 439.291C1481.57 388.607 1635.61 374.35 1772.47 399.11C1909.34 423.87 2027.68 487.371 2097.25 573.411M-172.734 910.228C-118.496 923.128 -60.7629 927.025 -3.08008 928.227C135.144 931.088 276.278 918.275 413.934 890.435C609.043 850.983 796.98 781.342 959.182 686.638C973.335 678.374 987.285 669.929 1001.04 661.308C1112.48 591.48 1213.43 509.76 1340.1 456.853C1346.45 454.198 1352.88 451.612 1359.37 449.112C1491.33 398.221 1646.11 384.052 1783.39 409.298C1920.66 434.544 2039.07 498.907 2108.06 585.801M-169.369 927.239C-114.722 939.927 -56.5661 943.458 1.49872 944.292C140.605 946.285 282.374 932.632 420.501 904.063C616.29 863.568 804.614 793.116 967.211 697.767C981.395 689.447 995.385 680.945 1009.17 672.269C1120.89 602.001 1222.1 519.829 1349.27 466.69C1355.65 464.024 1362.1 461.428 1368.62 458.916C1501.11 407.811 1656.63 393.739 1794.32 419.476C1932.01 445.214 2050.48 510.447 2118.89 598.195M-166.015 944.244C-110.949 956.719 -52.3705 959.884 6.05649 960.353C146.046 961.477 288.437 946.979 427.046 917.68C623.507 876.15 812.214 804.873 975.217 708.884C989.431 700.509 1003.46 691.95 1017.28 683.226C1129.28 612.518 1230.77 529.892 1358.41 476.532C1364.82 473.854 1371.3 471.247 1377.84 468.725C1510.86 417.413 1667.11 403.43 1805.22 429.652C1943.33 455.874 2061.86 521.977 2129.69 610.587M-162.659 961.256C-107.184 973.527 -48.1737 976.317 10.6155 976.422C151.487 976.677 294.513 961.339 433.602 931.302C630.743 888.73 819.835 816.634 983.235 720.014C997.491 711.583 1011.54 702.97 1025.41 694.187C1137.69 623.04 1239.44 539.961 1367.58 486.369C1374.01 483.682 1380.52 481.063 1387.08 478.53C1520.63 427.004 1677.61 413.119 1816.15 439.824C1954.69 466.528 2073.27 533.504 2140.52 622.967M-159.304 978.268C-103.42 990.328 -43.9769 992.75 15.1757 992.497C156.93 991.884 300.591 975.706 440.149 944.933C637.962 901.327 827.439 828.413 991.254 731.144C1005.54 722.657 1019.63 713.995 1033.53 705.15C1146.08 633.555 1248.12 550.03 1376.75 496.208C1383.2 493.509 1389.73 490.881 1396.32 488.336C1530.39 436.596 1688.12 422.808 1827.06 450.005C1966.01 477.195 2084.67 545.038 2151.32 635.357M-155.948 995.28C-99.6454 1007.13 -39.7899 1009.18 19.7348 1008.57C162.372 1007.08 306.656 990.06 446.697 958.563C645.19 913.915 835.052 840.182 999.263 742.283C1013.59 733.739 1027.72 725.021 1041.65 716.128C1154.48 644.094 1256.77 560.116 1385.9 506.069C1392.39 503.359 1398.93 500.721 1405.55 498.165C1540.15 446.218 1698.61 432.519 1837.98 460.2C1977.34 487.882 2096.06 556.588 2162.13 647.768M-152.593 1012.29C-95.8811 1023.93 -35.5942 1025.61 24.3037 1024.63C167.823 1022.28 312.741 1004.42 453.263 972.184C652.437 926.5 842.673 851.943 1007.29 753.404C1021.65 744.805 1035.81 736.031 1049.78 727.082C1162.88 654.608 1265.46 570.177 1395.06 515.901C1401.57 513.174 1408.15 510.53 1414.79 507.964C1549.91 455.803 1709.11 442.207 1848.9 470.366C1988.68 498.525 2107.45 568.108 2172.95 660.142M-149.239 1029.3C-92.1083 1040.72 -31.3988 1042.04 28.8613 1040.69C173.263 1037.47 318.805 1018.77 459.807 985.801C659.652 939.075 850.285 863.706 1015.3 764.528C1029.69 755.874 1043.89 747.043 1057.89 738.046C1171.27 665.132 1274.11 580.241 1404.22 525.748C1410.75 523.01 1417.35 520.356 1424.02 517.778C1559.66 465.411 1719.61 451.904 1859.81 480.554C2000.01 509.205 2118.85 579.658 2183.76 672.539M-145.874 1046.31C-88.334 1057.52 -27.2019 1058.47 33.4303 1056.76C178.715 1052.67 324.891 1033.12 466.363 999.423C666.89 951.662 857.896 875.469 1023.32 775.652C1037.75 766.948 1051.98 758.061 1066.01 749.002C1179.67 675.649 1282.79 590.303 1413.38 535.58C1419.93 532.832 1426.55 530.166 1433.25 527.578C1569.43 474.996 1730.1 461.587 1870.72 490.722C2011.34 519.856 2130.23 591.18 2194.57 684.922M-142.518 1063.32C-84.5698 1074.32 -23.0051 1074.9 37.9905 1072.83C184.158 1067.88 330.968 1047.49 472.922 1013.06C674.119 964.257 865.52 887.244 1031.34 786.795C1045.8 778.036 1060.07 769.094 1074.14 759.977C1188.08 686.177 1291.46 600.386 1422.55 545.439C1429.13 542.678 1435.79 540.002 1442.51 537.403C1579.2 484.615 1740.62 471.295 1881.65 500.914C2022.69 530.533 2141.65 602.726 2205.4 697.323M-139.163 1080.33C-80.7957 1091.12 -18.8083 1091.33 42.5494 1088.9C189.599 1083.08 337.033 1061.84 479.468 1026.68C681.346 976.845 873.122 899.015 1039.34 797.92C1053.85 789.104 1068.15 780.107 1082.25 770.941C1196.47 696.701 1300.13 610.457 1431.69 555.28C1438.3 552.509 1444.98 549.822 1451.72 547.212C1588.95 494.21 1751.1 480.986 1892.56 511.097C2034.01 541.207 2153.03 614.263 2216.19 709.721M-135.808 1097.34C-77.0315 1107.92 -14.6214 1107.77 47.1183 1104.97C195.049 1098.27 343.119 1076.2 486.024 1040.3C688.573 989.426 880.744 910.777 1047.36 809.05C1061.9 800.178 1076.24 791.124 1090.38 781.903C1204.87 707.224 1308.8 620.527 1440.86 565.126C1447.48 562.345 1454.18 559.64 1460.96 557.025C1598.71 503.81 1761.6 490.682 1903.48 521.277C2045.35 551.871 2164.43 625.798 2227.01 722.11M-132.452 1114.36C-73.2573 1124.72 -10.4257 1124.19 51.6774 1121.04C429.814 1101.81 807.246 983.493 1098.5 792.866C1219.04 713.971 1327.9 621.817 1470.2 566.832C1608.48 513.408 1772.11 500.37 1914.39 531.451C2056.67 562.531 2175.82 637.327 2237.82 734.493" stroke="url(#paint0_linear_885_2842)" stroke-miterlimit="10"/>
<path d="M-399.701 1377.66C-210.586 1269.79 77.7897 1258.68 302.128 1350.61C422.409 1399.9 521.305 1474.1 637.275 1529C783.379 1598.17 955.973 1635.04 1124.01 1632.96C1292.05 1630.88 1454.74 1589.89 1582.82 1517.33M1579.46 1534.33C1541.33 1555.49 1500.18 1573.75 1456.84 1589.1C1353.01 1625.86 1236.49 1645.85 1117.46 1646.59C948.746 1647.62 775.777 1609.94 629.267 1540.13C616.489 1534.04 603.914 1527.72 591.501 1521.23C490.919 1468.61 400.537 1404.55 292.976 1360.45C287.577 1358.24 282.139 1356.08 276.659 1353.98C165.196 1311.32 39.2085 1293.46 -81.8043 1299.78C-202.816 1306.08 -318.81 1336.55 -410.519 1390.05M1576.11 1551.34C1537.56 1572.29 1495.99 1590.19 1452.28 1605.17C1347.57 1641.06 1230.42 1660.21 1110.92 1660.22C941.527 1660.22 768.163 1621.72 621.257 1551.27C608.439 1545.13 595.833 1538.75 583.377 1532.2C482.517 1479.15 391.859 1414.63 283.81 1370.31C278.383 1368.08 272.917 1365.91 267.418 1363.81C155.433 1320.94 28.7007 1303.18 -92.7188 1309.97C-214.138 1316.77 -330.201 1348.1 -421.329 1402.46M1572.75 1568.36C1533.8 1589.09 1491.8 1606.62 1447.71 1621.23C1342.12 1656.26 1224.34 1674.57 1104.35 1673.84C934.281 1672.8 760.541 1633.48 613.23 1562.39C600.381 1556.19 587.733 1549.76 575.247 1543.16C474.109 1489.67 383.185 1424.69 274.649 1380.14C269.195 1377.9 263.709 1375.72 258.182 1373.61C145.667 1330.52 18.209 1312.86 -103.638 1320.14C-225.485 1327.41 -341.598 1359.62 -432.144 1414.83M1569.39 1585.37C1530.01 1605.88 1487.59 1623.04 1443.14 1637.3C1336.67 1671.45 1218.25 1688.92 1097.79 1687.46C927.053 1685.39 752.919 1645.25 605.211 1573.52C592.331 1567.27 579.643 1560.78 567.126 1554.12C465.71 1500.18 374.51 1434.76 265.486 1389.98C260.013 1387.73 254.499 1385.55 248.943 1383.42C135.909 1340.12 7.70506 1322.55 -114.56 1330.32C-236.825 1338.08 -352.997 1371.15 -442.963 1427.23M1566.03 1602.38C1526.25 1622.69 1483.4 1639.48 1438.58 1653.37C1331.23 1686.65 1212.19 1703.29 1091.25 1701.08C919.827 1697.97 745.317 1657.01 597.194 1584.65C584.273 1578.33 571.564 1571.8 559.005 1565.08C457.311 1510.7 365.844 1444.83 256.324 1399.82C250.823 1397.56 245.28 1395.36 239.706 1393.23C126.141 1349.72 -2.79778 1332.24 -125.472 1340.5C-248.146 1348.75 -364.387 1382.7 -453.77 1439.62M1562.68 1619.39C1522.48 1639.49 1479.21 1655.91 1434.02 1669.45C1325.78 1701.86 1206.11 1717.65 1084.69 1714.72C912.587 1710.57 737.694 1668.79 589.173 1595.79C576.222 1589.42 563.471 1582.83 550.882 1576.06C448.909 1521.24 357.166 1454.91 247.158 1409.68C241.639 1407.41 236.067 1405.2 230.465 1403.06C116.379 1359.33 -13.3042 1341.95 -136.396 1350.69C-259.488 1359.43 -375.798 1394.25 -464.59 1452.02M1559.32 1636.4C1518.71 1656.29 1475.01 1672.34 1429.47 1685.51C1320.34 1717.05 1200.03 1732 1078.14 1728.34C905.371 1723.14 730.092 1680.55 581.167 1606.91C568.175 1600.48 555.392 1593.84 542.772 1587.02C440.521 1531.76 348.513 1464.97 238.017 1419.52C232.469 1417.23 226.879 1415.02 221.249 1412.86C106.632 1368.93 -23.7861 1351.64 -147.296 1360.86C-270.806 1370.08 -387.175 1405.77 -475.387 1464.4M1555.97 1653.41C1514.95 1673.09 1470.82 1688.77 1424.9 1701.57C1314.89 1732.24 1193.96 1746.36 1071.59 1741.96C898.134 1735.73 722.48 1692.32 573.149 1618.04C560.125 1611.56 547.302 1604.86 534.641 1597.98C432.113 1542.27 339.828 1475.04 228.844 1429.36C223.268 1427.07 217.659 1424.84 212 1422.67C96.8634 1378.53 -34.3001 1361.33 -158.229 1371.05C-282.156 1380.75 -398.585 1417.31 -486.216 1476.8M1552.61 1670.42C1511.17 1689.88 1466.63 1705.2 1420.34 1717.64C1309.45 1747.44 1187.88 1760.71 1065.04 1755.58C890.917 1748.31 714.869 1704.08 565.141 1629.16C552.077 1622.62 539.223 1615.87 526.531 1608.94C423.724 1552.79 331.174 1485.1 219.693 1439.2C214.098 1436.89 208.452 1434.65 202.774 1432.47C87.1061 1388.12 -44.7832 1371.02 -169.129 1381.21C-293.474 1391.41 -409.962 1428.83 -497.012 1489.18M1549.25 1687.43C1507.4 1706.68 1462.42 1721.63 1415.77 1733.71C1304 1762.64 1181.8 1775.07 1058.48 1769.21C883.669 1760.91 707.245 1715.85 557.112 1640.3C544.017 1633.7 531.121 1626.89 518.397 1619.91C415.313 1563.33 322.486 1495.19 210.518 1449.05C204.894 1446.74 199.229 1444.49 193.523 1442.3C77.3352 1397.73 -55.2994 1380.73 -180.063 1391.41C-304.826 1402.08 -421.373 1440.38 -507.842 1501.58M1545.89 1704.44C1503.63 1723.48 1458.23 1738.06 1411.21 1749.78C1298.56 1777.85 1175.73 1789.44 1051.93 1782.84C876.451 1773.5 699.633 1727.62 549.103 1651.43C535.977 1644.78 523.051 1637.91 510.286 1630.87C406.923 1573.85 313.83 1505.26 201.366 1458.89C195.714 1456.57 190.031 1454.3 184.296 1452.1C67.5779 1407.33 -65.7923 1390.42 -190.974 1401.59C-316.157 1412.76 -432.762 1451.91 -518.65 1513.97M1542.54 1721.45C1499.86 1740.28 1454.04 1754.5 1406.65 1765.85C1293.11 1793.05 1169.66 1803.79 1045.38 1796.47C869.223 1786.08 692.031 1739.39 541.095 1662.56C527.928 1655.86 514.97 1648.94 502.174 1641.85C398.532 1584.38 305.164 1515.34 192.221 1468.75C186.551 1466.41 180.83 1464.13 175.076 1461.93C57.8367 1416.94 -76.2777 1400.13 -201.878 1411.78C-327.478 1423.43 -444.152 1463.46 -529.45 1526.38M1539.18 1738.46C1496.1 1757.08 1449.84 1770.92 1402.08 1781.91C1287.66 1808.24 1163.57 1818.14 1038.82 1810.09C861.977 1798.66 684.399 1751.15 533.068 1673.68C519.87 1666.92 506.871 1659.95 494.044 1652.8C390.125 1594.89 296.491 1525.39 183.051 1478.58C177.352 1476.23 171.612 1473.94 165.83 1471.72C48.0609 1426.53 -86.7892 1409.81 -212.797 1421.94C-338.805 1434.08 -455.549 1474.98 -540.265 1538.75M1535.83 1755.47C1492.32 1773.88 1445.65 1787.35 1397.52 1797.98C1282.22 1823.44 1157.51 1832.5 1032.27 1823.71C854.759 1811.25 676.797 1762.92 525.06 1684.81C511.822 1677.99 498.792 1670.96 485.924 1663.76C381.727 1605.4 287.817 1535.45 173.888 1488.42C168.171 1486.06 162.403 1483.76 156.592 1481.53C38.2924 1436.12 -97.2921 1419.49 -223.719 1432.12C-350.146 1444.75 -466.948 1486.51 -551.083 1551.14M1532.47 1772.48C1488.56 1790.68 1441.45 1803.79 1392.96 1814.05C1276.78 1838.65 1151.43 1846.86 1025.72 1837.34C847.53 1823.85 669.185 1774.69 517.041 1695.94C503.77 1689.08 490.7 1681.99 477.801 1674.73C373.325 1615.94 279.149 1545.54 164.724 1498.27C158.978 1495.9 153.182 1493.59 147.342 1491.35C28.5225 1445.73 -107.797 1429.2 -234.652 1442.31C-361.507 1455.42 -478.358 1498.05 -561.913 1563.54M1529.11 1789.5C1484.78 1807.48 1437.26 1820.21 1388.39 1830.12C1271.33 1853.84 1145.35 1861.22 1019.16 1850.96C840.294 1836.43 661.562 1786.46 509.014 1707.07C495.702 1700.14 482.601 1693 469.671 1685.69C364.917 1626.46 270.465 1555.6 155.562 1508.11C149.788 1505.73 143.973 1503.41 138.105 1501.16C18.7542 1455.33 -118.301 1438.89 -245.573 1452.48C-372.844 1466.07 -489.756 1509.58 -572.729 1575.92M1525.75 1806.51C1481.01 1824.27 1433.06 1836.65 1383.84 1846.19C1265.89 1869.04 1139.28 1875.58 1012.61 1864.59C833.065 1849.02 653.949 1798.23 501.004 1718.2C487.661 1711.23 474.519 1704.03 461.557 1696.66C356.526 1636.99 261.807 1565.68 146.407 1517.97C140.616 1515.57 134.771 1513.24 128.875 1510.98C9.00415 1464.94 -128.797 1448.6 -256.476 1462.67C-384.155 1476.75 -501.146 1521.12 -583.528 1588.32M1522.4 1823.51C1477.24 1841.08 1428.86 1853.07 1379.27 1862.25C1260.45 1884.24 1133.19 1889.93 1006.05 1878.21C825.84 1861.59 646.338 1809.99 492.988 1729.32C479.614 1722.29 466.441 1715.04 453.438 1707.61C348.129 1647.5 253.134 1575.74 137.246 1527.8C131.426 1525.39 125.564 1523.05 119.639 1520.78C-0.761787 1474.52 -139.298 1458.28 -267.397 1472.84C-395.495 1487.41 -512.544 1532.65 -594.346 1600.71M1519.04 1840.52C1473.47 1857.87 1424.68 1869.51 1374.71 1878.32C1255.01 1899.43 1127.13 1904.29 999.499 1891.83C818.603 1874.18 638.717 1821.75 484.97 1740.45C471.555 1733.36 458.351 1726.05 445.317 1718.58C339.73 1658.02 244.468 1585.81 128.084 1537.64C122.246 1535.22 116.345 1532.87 110.402 1530.58C-10.5203 1484.12 -149.801 1467.97 -278.317 1483.02C-406.833 1498.07 -523.943 1544.19 -605.172 1613.09M1515.69 1857.54C1469.71 1874.67 1420.48 1885.94 1370.15 1894.39C1249.56 1914.64 1121.05 1918.65 992.951 1905.47C811.374 1886.78 631.113 1833.53 476.96 1751.59C463.515 1744.44 450.269 1737.08 437.194 1729.55C331.328 1668.56 235.792 1595.88 118.929 1547.5C113.062 1545.07 107.142 1542.71 101.17 1540.41C-20.2814 1493.74 -160.288 1477.68 -289.232 1493.21C-418.175 1508.75 -535.334 1555.74 -615.984 1625.5M1512.33 1874.55C1465.94 1891.47 1416.28 1902.37 1365.59 1910.46C1244.12 1929.84 1114.98 1933.01 986.405 1919.09C804.156 1899.37 623.5 1845.3 468.951 1762.72C455.465 1755.52 442.188 1748.11 429.083 1740.52C322.938 1679.08 227.136 1605.96 109.776 1557.34C103.881 1554.89 97.943 1552.52 91.943 1550.22C-30.03 1503.34 -170.781 1487.37 -300.134 1503.4C-429.487 1519.42 -546.713 1567.27 -626.781 1637.89M1508.98 1891.56C1462.17 1908.27 1412.1 1918.8 1361.02 1926.53C1238.67 1945.03 1108.9 1947.37 979.839 1932.71C796.91 1911.94 615.879 1857.06 460.924 1773.84C447.407 1766.58 434.089 1759.12 420.951 1751.48C314.52 1689.59 218.451 1616.02 100.603 1567.18C94.6895 1564.73 88.7128 1562.35 82.6943 1560.03C-39.8085 1512.93 -181.295 1497.06 -311.065 1513.57C-440.836 1530.08 -558.132 1578.8 -637.609 1650.28M1505.61 1908.57C1458.39 1925.07 1407.89 1935.23 1356.45 1942.59C1233.22 1960.23 1102.82 1961.72 973.283 1946.33C789.682 1924.53 608.267 1868.82 452.906 1784.97C439.358 1777.66 425.999 1770.13 412.83 1762.44C306.121 1700.12 209.786 1626.09 91.4413 1577.02C85.4991 1574.56 79.5039 1572.16 73.457 1569.84C-49.5658 1522.53 -191.797 1506.75 -321.986 1523.75C-452.174 1540.74 -569.53 1590.33 -648.427 1662.67M1502.26 1925.58C1454.63 1941.87 1403.69 1951.66 1351.89 1958.66C1227.78 1975.43 1096.74 1976.07 966.737 1959.96C782.456 1937.11 600.655 1880.59 444.899 1796.1C431.31 1788.73 417.929 1781.15 404.72 1773.4C297.733 1710.63 201.122 1636.16 82.2992 1586.86C76.3286 1584.39 70.316 1581.98 64.2395 1579.65C-59.3144 1532.13 -202.282 1516.45 -332.888 1533.93C-463.494 1551.41 -580.909 1601.87 -659.224 1675.06M1498.9 1942.59C1450.86 1958.67 1399.51 1968.09 1347.33 1974.73C1222.34 1990.63 1090.67 1990.44 960.18 1973.59C775.227 1949.71 593.042 1892.36 436.869 1807.23C423.249 1799.81 409.828 1792.17 396.577 1784.37C289.311 1721.17 192.434 1646.24 73.1149 1596.71C67.1258 1594.23 61.0749 1591.8 54.9799 1589.46C-69.094 1541.73 -212.807 1526.15 -343.821 1544.12C-474.835 1562.08 -592.319 1613.41 -670.053 1687.45M1495.55 1959.6C1447.09 1975.47 1395.31 1984.52 1342.78 1990.8C1216.89 2005.83 1084.6 2004.79 953.634 1987.21C768.001 1962.29 585.431 1904.12 428.862 1818.35C415.201 1810.87 401.748 1803.19 388.467 1795.33C280.924 1731.68 183.77 1656.3 63.9628 1606.55C57.9453 1604.06 51.876 1601.62 45.7526 1599.27C-78.8524 1551.33 -223.29 1535.84 -354.732 1554.29C-486.174 1572.74 -603.707 1624.94 -680.861 1699.84M1492.19 1976.61C1443.32 1992.27 1391.11 2000.96 1338.21 2006.87C1211.44 2021.03 1078.51 2019.15 947.076 2000.84C760.762 1974.88 577.817 1915.9 420.842 1829.49C407.151 1821.96 393.656 1814.22 380.344 1806.3C272.522 1742.21 175.103 1666.38 54.7982 1616.41C48.7622 1613.9 42.6645 1611.45 36.5126 1609.09C-88.6223 1560.94 -233.795 1545.54 -365.655 1564.48C-497.514 1583.41 -615.107 1636.48 -691.68 1712.24M1488.83 1993.63C1439.55 2009.07 1386.93 2017.38 1333.65 2022.93C1206 2036.23 1072.45 2033.5 940.52 2014.46C753.535 1987.46 570.195 1927.66 412.825 1840.61C399.093 1833.02 385.567 1825.23 372.224 1817.26C264.124 1752.73 166.429 1676.44 45.6362 1626.24C39.5718 1623.73 33.4556 1621.27 27.2753 1618.9C-98.3808 1570.54 -244.298 1555.23 -376.577 1574.66C-508.855 1594.08 -626.516 1648.01 -702.499 1724.63M1485.47 2010.64C1435.78 2025.86 1382.72 2033.82 1329.08 2039C1200.55 2051.43 1066.36 2047.86 933.965 2028.08C746.298 2000.05 562.584 1939.42 404.808 1851.74C391.045 1844.09 377.479 1836.24 364.104 1828.22C255.726 1763.25 157.765 1686.51 36.4856 1636.08C30.3927 1633.55 24.248 1631.08 18.0492 1628.7C-108.137 1580.12 -254.789 1564.91 -387.476 1584.82C-520.163 1604.73 -637.892 1659.54 -713.294 1737.01M1482.11 2027.64C1432.01 2042.66 1378.53 2050.24 1324.52 2055.07C1195.11 2066.62 1060.29 2062.22 927.419 2041.71C739.081 2012.63 554.971 1951.19 396.799 1862.87C383.005 1855.17 369.407 1847.26 355.991 1839.19C247.335 1773.78 149.098 1696.58 27.3308 1645.93C21.2194 1643.39 15.0463 1640.92 8.81909 1638.52C-117.887 1589.73 -265.285 1574.62 -398.389 1595.01C-531.494 1615.41 -649.283 1671.08 -724.103 1749.41M1478.76 2044.65C1428.24 2059.46 1374.33 2066.67 1319.96 2071.14C1189.67 2081.82 1054.22 2076.58 920.861 2055.34C731.843 2025.23 547.359 1962.96 388.781 1874C374.946 1866.24 361.317 1858.28 347.86 1850.15C238.927 1784.29 140.423 1706.65 18.1589 1655.77C12.0191 1653.22 5.82753 1650.73 -0.428101 1648.32C-127.665 1599.33 -275.789 1584.31 -409.321 1605.19C-542.853 1626.07 -660.692 1682.61 -734.932 1761.8M1475.4 2061.67C1424.47 2076.26 1370.14 2083.11 1315.39 2087.2C1184.22 2097.02 1048.14 2090.94 914.305 2068.96C724.606 2037.81 539.737 1974.72 380.762 1885.13C366.897 1877.31 353.227 1869.3 339.738 1861.12C230.526 1794.82 131.746 1716.73 8.99451 1665.62C2.82753 1663.05 -3.39381 1660.56 -9.66797 1658.14C-137.425 1608.94 -286.294 1594.02 -420.234 1615.38C-554.174 1636.74 -672.082 1694.15 -745.74 1774.2M1472.05 2078.68C1420.7 2093.06 1365.95 2099.54 1310.83 2103.27C1178.78 2112.22 1042.07 2105.3 907.759 2082.58C717.389 2050.4 532.135 1986.5 372.755 1896.25C358.848 1888.38 345.148 1880.31 331.628 1872.07C222.138 1805.34 123.091 1726.79 -0.146729 1675.46C-6.33223 1672.88 -12.5817 1670.38 -18.8843 1667.95C-147.172 1618.53 -296.776 1603.7 -431.134 1625.55C-565.493 1647.4 -683.47 1705.68 -756.536 1786.58M1468.69 2095.69C1416.94 2109.86 1361.75 2115.97 1306.27 2119.35C1173.33 2127.42 1035.99 2119.66 901.201 2096.22C710.15 2062.99 524.511 1998.27 364.724 1907.4C350.787 1899.47 337.045 1891.34 323.495 1883.05C213.727 1815.87 114.406 1736.86 -9.31982 1685.3C-15.5337 1682.71 -21.8018 1680.2 -28.1328 1677.76C-156.941 1628.13 -307.29 1613.4 -442.067 1635.73C-576.844 1658.07 -694.88 1717.22 -767.365 1798.98M1465.33 2112.7C1413.15 2126.66 1357.55 2132.4 1301.7 2135.41C1167.88 2142.62 1029.91 2134.01 894.645 2109.84C702.922 2075.58 516.898 2010.04 356.707 1918.52C342.739 1910.54 328.955 1902.36 315.374 1894.01C205.328 1826.39 105.739 1746.94 -18.4844 1695.15C-24.7168 1692.55 -31.0232 1690.03 -37.3727 1687.58C-166.712 1637.74 -317.795 1623.1 -452.99 1645.92C-588.185 1668.74 -706.28 1728.77 -778.185 1811.37M1461.97 2129.71C1409.39 2143.46 1353.36 2148.83 1297.15 2151.48C1162.44 2157.82 1023.84 2148.36 888.1 2123.46C695.697 2088.15 509.288 2021.8 348.7 1929.64C334.69 1921.6 320.886 1913.37 307.264 1904.97C196.939 1836.91 97.0753 1757 -27.6365 1704.99C-33.8973 1702.38 -40.2222 1699.85 -46.61 1697.38C-176.469 1647.34 -328.298 1632.79 -463.901 1656.1C-599.503 1679.4 -717.668 1740.29 -788.991 1823.76M1458.62 2146.72C1405.62 2160.25 1349.16 2165.26 1292.58 2167.54C1156.99 2173.01 1017.76 2162.72 881.534 2137.08C688.46 2100.74 501.667 2033.56 340.673 1940.76C326.632 1932.67 312.787 1924.38 299.123 1915.93C188.52 1847.43 88.3901 1767.07 -36.8083 1714.83C-43.0976 1712.21 -49.4411 1709.66 -55.8573 1707.19C-186.246 1656.93 -338.801 1642.47 -474.833 1666.27C-610.864 1690.07 -729.077 1751.83 -799.82 1836.15M1455.26 2163.73C1401.85 2177.05 1344.97 2181.69 1288.02 2183.61C1151.56 2188.21 1011.68 2177.08 874.987 2150.71C681.231 2113.33 494.053 2045.33 332.663 1951.9C318.582 1943.75 304.705 1935.41 291.01 1926.9C180.129 1857.96 79.7233 1777.15 -45.963 1724.69C-52.2708 1722.05 -58.6413 1719.49 -65.0872 1717.01C-195.997 1666.54 -349.296 1652.18 -485.746 1676.46C-622.194 1700.74 -740.477 1763.37 -810.629 1848.55M1451.91 2180.74C1398.09 2193.86 1340.78 2198.13 1283.46 2199.69C1146.11 2203.42 1005.62 2191.44 868.44 2164.34C674.003 2125.92 486.45 2057.11 324.654 1963.03C310.542 1954.83 296.624 1946.44 282.899 1937.86C171.74 1868.48 71.0679 1787.22 -55.115 1734.53C-61.4512 1731.88 -67.8503 1729.31 -74.3147 1726.82C-205.755 1676.13 -359.791 1661.88 -496.656 1686.64C-633.522 1711.4 -751.865 1774.9 -821.437 1860.94M1448.55 2197.75C1394.31 2210.65 1336.58 2214.55 1278.9 2215.75C1140.67 2218.61 999.54 2205.8 861.884 2177.96C666.776 2138.51 478.839 2068.87 316.636 1974.16C302.483 1965.9 288.534 1957.46 274.777 1948.83C163.34 1879.01 62.3925 1797.29 -64.2795 1744.38C-70.6343 1741.72 -77.0617 1739.14 -83.5544 1736.64C-215.516 1685.75 -370.296 1671.58 -507.57 1696.82C-644.843 1722.07 -763.254 1786.43 -832.244 1873.33M1445.19 2214.77C1390.54 2227.45 1332.38 2230.98 1274.32 2231.82C1135.21 2233.81 993.444 2220.16 855.317 2191.59C659.528 2151.09 471.205 2080.64 308.608 1985.29C294.424 1976.97 280.434 1968.47 266.646 1959.8C154.931 1889.53 53.7171 1807.36 -73.4514 1754.22C-79.8345 1751.55 -86.2805 1748.95 -92.8016 1746.44C-225.293 1695.34 -380.808 1681.27 -518.501 1707C-656.194 1732.74 -774.664 1797.97 -843.073 1885.72M1441.83 2231.77C1386.77 2244.25 1328.19 2247.41 1269.76 2247.88C1129.77 2249 987.381 2234.51 848.772 2205.21C652.312 2163.68 463.605 2092.4 300.602 1996.41C286.387 1988.04 272.356 1979.48 258.536 1970.75C146.543 1900.04 45.053 1817.42 -82.5936 1764.06C-89.0052 1761.38 -95.4796 1758.77 -102.019 1756.25C-235.041 1704.94 -391.291 1690.96 -529.402 1717.18C-667.513 1743.4 -786.042 1809.5 -853.871 1898.11M1438.48 2248.78C1383 2261.05 1323.99 2263.84 1265.2 2263.95C1124.33 2264.2 981.305 2248.87 842.216 2218.83C645.075 2176.26 455.983 2104.16 292.583 2007.54C278.328 1999.11 264.276 1990.5 250.405 1981.71C138.133 1910.57 36.3775 1827.49 -91.7656 1773.9C-98.1957 1771.21 -104.698 1768.59 -111.266 1766.06C-244.809 1714.53 -401.794 1700.65 -540.333 1727.35C-678.871 1754.05 -797.449 1821.03 -864.697 1910.49M1435.12 2265.79C1379.24 2277.85 1319.8 2280.28 1260.64 2280.02C1118.89 2279.41 975.228 2263.23 835.669 2232.46C637.856 2188.85 448.379 2115.94 284.565 2018.67C270.278 2010.18 256.184 2001.52 242.284 1992.68C129.735 1921.08 27.7022 1837.56 -100.928 1783.73C-107.386 1781.04 -113.907 1778.41 -120.504 1775.86C-254.576 1724.12 -412.297 1710.33 -551.244 1737.53C-690.191 1764.72 -808.848 1832.56 -875.505 1922.88M1431.77 2282.81C1375.46 2294.65 1315.61 2296.71 1256.08 2296.09C1113.45 2294.61 969.163 2277.59 829.122 2246.09C630.629 2201.44 440.767 2127.71 276.555 2029.81C262.228 2021.27 248.103 2012.55 234.17 2003.65C121.343 1931.62 19.0442 1847.64 -110.083 1793.6C-116.57 1790.89 -123.11 1788.25 -129.735 1785.69C-264.328 1733.74 -422.794 1720.05 -562.159 1747.73C-701.525 1775.41 -820.24 1844.11 -886.316 1935.29M1428.41 2299.82C1371.7 2311.45 1311.41 2313.14 1251.51 2312.16C1108 2309.81 963.077 2291.94 822.556 2259.71C623.381 2214.03 433.145 2139.47 268.528 2040.93C254.17 2032.33 240.004 2023.56 226.04 2014.61C112.935 1942.13 10.3601 1857.7 -119.244 1803.43C-125.748 1800.7 -132.328 1798.06 -138.971 1795.49C-274.094 1743.33 -433.296 1729.73 -573.078 1757.89C-712.86 1786.05 -831.636 1855.63 -897.131 1947.67M1425.06 2316.82C1367.93 2328.25 1307.22 2329.56 1246.96 2328.22C1102.55 2325 957.013 2306.29 816.011 2273.33C616.166 2226.6 425.534 2151.23 260.521 2052.05C246.131 2043.4 231.925 2034.57 217.929 2025.57C104.545 1952.66 1.70593 1867.77 -128.397 1813.27C-134.93 1810.54 -141.528 1807.88 -148.2 1805.3C-283.844 1752.94 -443.79 1739.43 -583.991 1768.08C-724.192 1796.73 -843.028 1867.18 -907.94 1960.07M1421.69 2333.83C1364.15 2345.04 1303.02 2346 1242.39 2344.29C1097.1 2340.2 950.928 2320.65 809.455 2286.95C608.928 2239.19 417.922 2163 252.503 2063.18C238.072 2054.47 223.834 2045.59 209.809 2036.53C96.147 1963.18 -6.96828 1877.83 -137.558 1823.11C-144.109 1820.36 -150.736 1817.69 -157.436 1815.1C-293.61 1762.52 -454.283 1749.11 -594.901 1778.25C-735.52 1807.38 -854.415 1878.71 -918.747 1972.45M1418.34 2350.85C1360.39 2361.84 1298.82 2362.43 1237.83 2360.36C1091.66 2355.41 944.85 2335.02 802.897 2300.59C601.7 2251.78 410.299 2174.77 244.483 2074.32C230.02 2065.56 215.752 2056.62 201.676 2047.5C87.7366 1973.7 -15.646 1887.91 -146.734 1832.96C-153.313 1830.2 -159.968 1827.53 -166.687 1824.93C-303.382 1772.14 -464.799 1758.82 -605.835 1788.44C-746.872 1818.06 -865.836 1890.25 -929.577 1984.85M1414.98 2367.86C1356.61 2378.64 1294.63 2378.86 1233.27 2376.43C1086.22 2370.61 938.786 2349.37 796.351 2314.21C594.472 2264.37 402.696 2186.54 236.475 2085.45C221.972 2076.63 207.673 2067.63 193.564 2058.47C79.347 1984.23 -24.3116 1897.98 -155.876 1842.81C-162.484 1840.04 -169.157 1837.35 -175.905 1834.74C-313.13 1781.74 -475.282 1768.51 -616.737 1798.62C-758.193 1828.73 -877.215 1901.79 -940.376 1997.25M1411.63 2384.87C1352.85 2395.44 1290.44 2395.29 1228.7 2392.5C1080.77 2385.8 932.7 2363.73 789.795 2327.83C587.246 2276.95 395.075 2198.3 228.457 2096.58C213.923 2087.7 199.583 2078.65 185.443 2069.43C70.9476 1994.75 -32.977 1908.05 -165.039 1852.65C-171.666 1849.87 -178.366 1847.17 -185.143 1844.55C-322.888 1791.34 -485.785 1778.21 -627.659 1808.8C-769.532 1839.4 -888.614 1913.32 -951.193 2009.64M1408.27 2401.88C1349.08 2412.24 1286.24 2411.72 1224.14 2408.56C846.004 2389.34 468.573 2271.02 177.322 2080.39C56.7819 2001.5 -52.0816 1909.34 -194.38 1854.36C-332.657 1800.93 -496.288 1787.9 -638.57 1818.98C-780.851 1850.06 -900.002 1924.85 -962 2022.02" stroke="url(#paint1_linear_885_2842)" stroke-miterlimit="10"/>
<defs>
<linearGradient id="paint0_linear_885_2842" x1="1404.5" y1="890.26" x2="894.941" y2="237.023" gradientUnits="userSpaceOnUse">
<stop stop-color="white"/>
<stop offset="1" stop-color="white" stop-opacity="0"/>
</linearGradient>
<linearGradient id="paint1_linear_885_2842" x1="-77.1815" y1="1127.08" x2="794.975" y2="2356.58" gradientUnits="userSpaceOnUse">
<stop stop-color="white"/>
<stop offset="1" stop-color="white" stop-opacity="0"/>
</linearGradient>
</defs>
</svg>
