<svg width="460" height="234" viewBox="0 0 460 234" fill="none" xmlns="http://www.w3.org/2000/svg">
<g clip-path="url(#clip0_804_3075)">
<g opacity="0.15">
<path d="M118.507 32.1923C106.916 24.465 91.5001 20.1567 73.367 20.1567H34.0265C22.676 20.1567 14.6112 28.2339 14.6112 39.5842V162.236C14.6112 171.858 19.8056 179.192 27.9506 181.969C30.2527 182.764 32.8098 183.179 35.5418 183.179C47.65 183.179 56.2175 174.607 56.2175 162.236V132.96H73.1193C114.478 132.96 141.71 110.492 141.71 76.1792C141.71 57.2766 133.208 41.9971 118.507 32.1923ZM76.6527 96.3647H56.2175V56.7517H76.6454C82.8306 56.7517 87.9813 58.6398 91.6312 61.9275C95.4123 65.3319 97.576 70.2744 97.576 76.1719C97.5833 88.2876 89.2562 96.3647 76.6527 96.3647Z" fill="black"/>
<path d="M436.174 25.2452C432.575 22.023 427.672 20.1787 421.953 20.1787C409.947 20.1787 401.452 28.686 401.452 40.9475V113.285L354.419 42.4492C349.705 35.378 345.363 29.8305 340.438 26.0543C335.433 22.2126 329.838 20.1787 322.655 20.1787C308.15 20.1787 298.395 29.189 298.395 45.9556V162.345C298.395 171.909 303.56 179.177 311.632 181.926C313.927 182.706 316.455 183.121 319.158 183.121C331.164 183.121 339.666 174.614 339.666 162.352V92.7564L346.368 102.51L386.437 160.836C393.045 170.408 398.924 177.428 407.179 180.818C410.807 182.312 414.901 183.107 419.709 183.107C433.471 183.107 442.723 173.353 442.723 157.33V40.9475C442.716 34.4012 440.298 28.9265 436.174 25.2452Z" fill="black"/>
<path d="M193.727 94.0393C198.82 94.0393 202.965 89.884 202.965 84.7957C202.965 84.1032 202.892 83.4325 202.739 82.7837C201.836 78.6358 198.135 75.5449 193.727 75.5449C189.305 75.5449 185.619 78.6431 184.723 82.7837C184.562 83.4325 184.489 84.1032 184.489 84.7957C184.489 89.884 188.62 94.0393 193.727 94.0393Z" fill="black"/>
<path d="M212.713 52.4726C212.523 52.3778 212.363 52.3049 212.224 52.2466C206.207 49.6587 200.189 47.0854 194.171 44.4902C193.771 44.3226 193.443 44.4028 193.064 44.5631C188.103 46.6845 183.142 48.8277 178.173 50.9563C177.219 51.3646 176.264 51.7728 175.317 52.181C175.15 52.2539 174.975 52.3414 174.727 52.458C174.953 52.5747 175.077 52.6476 175.201 52.7059C178.304 54.0399 181.386 55.3594 184.475 56.6934V65.8713C187.265 64.5009 190.398 63.7281 193.712 63.7281C197.027 63.7281 200.167 64.5009 202.95 65.8859V56.6716C204.262 56.1102 205.558 55.5489 206.87 54.9876C207.015 54.9293 207.168 54.871 207.365 54.7981C207.372 54.9584 207.387 55.0751 207.387 55.199C207.387 58.3774 207.387 61.5703 207.394 64.756C207.394 65.1059 207.27 65.2954 206.964 65.4558C206.148 65.8859 205.595 66.491 205.325 67.2637C205.172 67.6428 205.099 68.0729 205.099 68.5467C205.085 70.2817 205.085 72.0167 205.085 73.7444C205.085 74.2765 205.099 74.2838 205.624 74.2838H211.474C211.678 74.2838 211.816 74.2838 211.897 74.2547C212.057 74.2036 212.057 74.0724 212.057 73.7225C212.057 72.0896 212.057 70.4567 212.064 68.831C212.064 67.3002 211.474 66.1192 210.09 65.4048C209.806 65.2517 209.777 65.033 209.777 64.7633V55.6145C209.777 55.2428 209.769 54.3607 209.755 53.7338C210.505 53.4349 211.612 52.9392 212.203 52.684C212.356 52.6403 212.523 52.5674 212.713 52.4726Z" fill="black"/>
<path d="M255.39 20.1858H180.315C163.719 20.1858 150.045 33.4241 149.833 49.7169C149.739 57.8597 152.835 65.5067 158.583 71.2584C160.637 73.3142 162.94 75.0273 165.402 76.3905C165.409 76.4051 165.424 76.4123 165.438 76.4123C165.562 76.478 165.701 76.5509 165.846 76.6165C166.866 77.1195 168.01 77.4111 169.212 77.4111C171.842 77.4111 174.152 76.0843 175.514 74.065C175.528 74.065 175.528 74.0577 175.536 74.0432C175.66 73.8682 175.769 73.6859 175.878 73.5037C175.885 73.4818 175.9 73.4454 175.929 73.4235C176.505 72.3519 176.84 71.098 176.84 69.7859C176.84 66.9064 175.222 64.3695 172.847 63.0792C172.833 63.0792 172.833 63.0792 172.826 63.0719C171.558 62.3867 170.4 61.5265 169.365 60.484C166.546 57.6629 165.016 53.9086 165.067 49.9065C165.169 41.9168 172.002 35.4289 180.308 35.4289H254.974C258.887 35.4289 262.719 36.7993 265.545 39.5185C268.445 42.3323 270.048 46.072 270.048 50.096V50.3001C269.946 58.3262 263.017 64.8652 254.632 64.785C242.764 64.6684 233.191 74.5316 233.191 86.3994V152.219C233.191 156.404 231.567 160.326 228.609 163.271C225.484 166.398 221.265 168.046 216.836 167.856C208.4 167.477 201.916 160.238 201.916 151.797V112.657C201.916 109.362 199.803 106.614 196.882 105.601C196.044 105.309 195.148 105.156 194.208 105.178H194.019C193.086 105.2 192.212 105.375 191.41 105.703C188.635 106.804 186.675 109.508 186.675 112.657V151.527C186.675 168.6 200.233 182.975 217.288 183.106C225.644 183.179 233.497 179.943 239.369 174.06C245.205 168.228 248.425 160.464 248.425 152.212V86.3921C248.425 82.842 251.332 80.0354 254.88 80.0208C263.156 79.9989 270.689 76.6894 276.182 71.3678C281.704 66.017 285.172 58.6397 285.281 50.4897C285.376 42.3542 282.28 34.6926 276.51 28.9336C270.893 23.2913 263.374 20.1858 255.39 20.1858Z" fill="black"/>
</g>
<path d="M188.686 97.0065C189.626 96.9846 190.522 97.1377 191.352 97.4293C190.318 97.5824 189.276 97.6698 188.19 97.6698C187.411 97.6698 186.639 97.6188 185.881 97.5386C186.682 97.2106 187.564 97.0356 188.489 97.0065H188.686Z" fill="#B56300"/>
<path d="M197.202 74.6048C197.355 75.2536 197.428 75.9242 197.428 76.6095C197.428 81.7051 193.283 85.853 188.19 85.853C183.083 85.853 178.953 81.7051 178.953 76.6095C178.953 75.9242 179.025 75.2536 179.178 74.6048C180.082 70.4569 183.768 67.366 188.19 67.366C192.605 67.366 196.306 70.4569 197.202 74.6048Z" fill="#B56300"/>
<path d="M271.002 20.7619C265.356 15.1269 257.845 12.0068 249.853 12.0068H174.785C158.182 12.0068 144.508 25.2452 144.304 41.5307C144.209 49.6807 147.305 57.3278 153.053 63.0722C155.108 65.1279 157.417 66.8483 159.88 68.2042C159.894 68.2188 159.902 68.2261 159.916 68.2261C160.047 68.2844 160.178 68.3573 160.324 68.4302C161.344 68.9332 162.488 69.2248 163.69 69.2248C166.32 69.2248 168.629 67.9053 169.999 65.8861C170.014 65.8861 170.014 65.8715 170.021 65.8642C170.137 65.6819 170.247 65.507 170.356 65.3247C170.371 65.3029 170.378 65.2664 170.407 65.2373C170.983 64.1657 171.318 62.9191 171.318 61.6069C171.318 58.7201 169.708 56.1833 167.325 54.9003C167.311 54.9003 167.311 54.9003 167.304 54.8857C166.043 54.2004 164.878 53.3475 163.843 52.2978C161.016 49.4693 159.494 45.7224 159.545 41.7202C159.654 33.7379 166.48 27.2426 174.793 27.2426H249.452C253.372 27.2426 257.204 28.6131 260.023 31.3322C262.93 34.1461 264.526 37.8858 264.526 41.9098V42.1139C264.416 50.1473 257.495 56.6863 249.11 56.5988C237.242 56.4749 227.662 66.3453 227.662 78.2132V144.033C227.662 148.218 226.037 152.139 223.087 155.085C219.962 158.212 215.743 159.859 211.314 159.663C202.878 159.276 196.394 152.037 196.394 143.603V104.471C196.394 101.176 194.281 98.4206 191.36 97.4146C190.529 97.123 189.633 96.9699 188.693 96.9918H188.504C187.578 97.0137 186.704 97.1959 185.896 97.524C183.12 98.6174 181.16 101.322 181.16 104.471V143.341C181.16 160.413 194.711 174.789 211.773 174.92C220.122 174.993 227.983 171.756 233.855 165.881C239.69 160.049 242.91 152.285 242.91 144.033V78.2132C242.91 74.6703 245.817 71.8564 249.365 71.8419C257.641 71.82 265.174 68.5104 270.667 63.1888C276.197 57.8381 279.664 50.4608 279.774 42.3034C279.868 34.1752 276.765 26.5209 271.002 20.7619Z" fill="#B56300"/>
<path d="M197.435 76.6168C197.435 81.7124 193.29 85.8603 188.198 85.8603C183.091 85.8603 178.96 81.7124 178.96 76.6168C178.96 75.9316 179.033 75.2609 179.186 74.6121C180.089 70.4642 183.776 67.3733 188.198 67.3733C192.605 67.3733 196.306 70.4642 197.21 74.6121C197.363 75.2536 197.435 75.9316 197.435 76.6168Z" fill="#B56300"/>
<path d="M207.176 44.3007C206.986 44.206 206.826 44.1331 206.695 44.0748C200.677 41.4869 194.66 38.9208 188.635 36.3184C188.241 36.1507 187.899 36.2309 187.527 36.3913C182.566 38.5199 177.605 40.6558 172.644 42.7845C171.682 43.1927 170.735 43.6009 169.78 44.0091C169.613 44.082 169.445 44.1622 169.19 44.2862C169.416 44.4101 169.54 44.4757 169.671 44.5413C172.767 45.8753 175.856 47.1948 178.945 48.5216V57.7068C181.736 56.3363 184.868 55.5635 188.183 55.5635C191.498 55.5635 194.638 56.3363 197.421 57.714V48.4924C198.732 47.9238 200.029 47.3771 201.34 46.8084C201.486 46.7501 201.639 46.6845 201.836 46.6189C201.85 46.772 201.858 46.8959 201.858 47.0126C201.858 50.1982 201.858 53.3839 201.872 56.5695C201.872 56.9195 201.741 57.109 201.442 57.2694C200.626 57.6995 200.073 58.3045 199.81 59.07C199.657 59.4563 199.584 59.8864 199.584 60.353C199.57 62.0807 199.57 63.8156 199.57 65.5433C199.57 66.0755 199.584 66.0828 200.109 66.0828H205.959C206.163 66.0828 206.294 66.0828 206.382 66.0463C206.535 65.9953 206.535 65.8641 206.535 65.5142C206.535 63.8813 206.535 62.241 206.549 60.6227C206.549 59.0991 205.959 57.9036 204.582 57.1965C204.291 57.0434 204.269 56.8247 204.269 56.5477V47.4354C204.269 47.0636 204.254 46.1815 204.247 45.5619C204.99 45.263 206.112 44.7673 206.695 44.5194C206.819 44.4684 206.986 44.3955 207.176 44.3007Z" fill="#B56300"/>
<path d="M112.97 24.0204C101.379 16.2932 85.9633 11.9849 67.8303 11.9849H28.4897C17.1393 11.9849 9.07446 20.0547 9.07446 31.4123V154.057C9.07446 163.686 14.2689 171.02 22.4138 173.797C24.7232 174.592 27.2731 175.008 30.0124 175.008C42.1132 175.008 50.688 166.427 50.688 154.057V124.788H67.5898C108.948 124.788 136.181 102.328 136.181 68.0073C136.173 49.1047 127.672 33.8179 112.97 24.0204ZM71.1159 88.1929H50.6807V48.5726H71.1086C77.2938 48.5726 82.4518 50.4606 86.1017 53.7484C89.8828 57.1527 92.0392 62.0952 92.0392 68C92.0465 80.1157 83.7195 88.1929 71.1159 88.1929Z" fill="#B56300"/>
<path d="M430.645 17.066C427.038 13.8511 422.143 11.9995 416.424 11.9995C404.418 11.9995 395.916 20.5068 395.916 32.7683V105.105L348.882 34.2773C344.168 27.2061 339.826 21.6586 334.894 17.8824C329.889 14.0407 324.301 11.9995 317.111 11.9995C302.606 11.9995 292.851 21.0098 292.851 37.7764V154.159C292.851 163.723 298.016 170.991 306.088 173.739C308.383 174.519 310.911 174.935 313.614 174.935C325.62 174.935 334.122 166.428 334.122 154.166V84.5845L340.824 94.3383L380.901 152.664C387.508 162.229 393.388 169.256 401.642 172.646C405.27 174.14 409.357 174.935 414.165 174.935C427.927 174.935 437.187 165.181 437.187 149.158V32.7683C437.187 26.2293 434.761 20.7473 430.645 17.066Z" fill="#B56300"/>
<path d="M184.635 90.2269C185.575 90.205 186.471 90.3581 187.302 90.6497C186.267 90.8028 185.225 90.8903 184.14 90.8903C183.36 90.8903 182.588 90.8393 181.83 90.7591C182.632 90.431 183.513 90.2561 184.439 90.2269H184.635Z" fill="url(#paint0_linear_804_3075)"/>
<path d="M193.385 69.8372C193.385 74.9328 189.24 79.0808 184.147 79.0808C183.193 79.0808 182.268 78.935 181.401 78.6652C177.634 77.4916 174.902 73.9779 174.902 69.8372C174.902 69.1447 174.975 68.474 175.135 67.8252C176.039 63.6773 179.725 60.5864 184.147 60.5864C185.837 60.5864 187.425 61.0457 188.788 61.833C188.788 61.833 188.795 61.8403 188.802 61.8403C190.988 63.1233 192.598 65.2738 193.152 67.8252C193.312 68.474 193.385 69.152 193.385 69.8372Z" fill="url(#paint1_linear_804_3075)"/>
<path d="M266.952 13.9751C264.547 11.5767 261.801 9.62303 258.821 8.17965C254.814 6.24055 250.385 5.21997 245.802 5.21997H170.735C154.124 5.21997 140.457 18.4583 140.253 34.7438C140.159 42.8939 143.262 50.5409 149.003 56.2853C151.057 58.3483 153.367 60.0615 155.829 61.4247C155.844 61.4392 155.851 61.4465 155.866 61.4465C156.004 61.5048 156.128 61.585 156.274 61.6506C156.66 61.8402 157.068 62.0078 157.498 62.1318C158.175 62.3359 158.896 62.4452 159.639 62.4452C162.262 62.4452 164.579 61.1185 165.949 59.0992C165.956 59.0992 165.956 59.0846 165.97 59.07C166.094 58.8951 166.203 58.7055 166.313 58.5306C166.32 58.5014 166.335 58.4723 166.364 58.4431C166.939 57.3788 167.274 56.1249 167.274 54.8128C167.274 51.926 165.657 49.3891 163.289 48.1061C163.275 48.1061 163.275 48.1061 163.26 48.0915C162 47.4063 160.834 46.5534 159.8 45.5036C156.98 42.6825 155.458 38.9282 155.501 34.9261C155.603 26.9364 162.43 20.4485 170.75 20.4485H245.402C247.988 20.4485 250.531 21.0389 252.774 22.2272C253.933 22.8322 255.018 23.605 255.98 24.5308C258.894 27.3446 260.49 31.077 260.49 35.1083V35.3124C260.38 43.3386 253.459 49.8848 245.074 49.7974C233.206 49.6807 223.626 59.5439 223.626 71.419V137.239C223.626 141.423 222.009 145.345 219.051 148.283C215.926 151.418 211.707 153.058 207.278 152.868C205.726 152.803 204.233 152.497 202.834 151.986C196.671 149.763 192.358 143.683 192.358 136.802V97.6697C192.358 95.0673 191.032 92.8001 189.036 91.4661C188.963 91.4151 188.89 91.364 188.81 91.3203L188.802 91.313C188.336 91.0287 187.848 90.7881 187.324 90.6132C186.493 90.3289 185.59 90.1685 184.657 90.1904H184.468C183.542 90.2195 182.661 90.3945 181.86 90.7225C179.084 91.816 177.131 94.5205 177.131 97.6697V136.539C177.131 149.734 185.225 161.317 196.78 165.954C200.175 167.317 203.868 168.082 207.744 168.119C216.093 168.192 223.947 164.962 229.826 159.079C235.661 153.247 238.889 145.484 238.889 137.232V71.4482C238.889 67.898 241.796 65.0842 245.336 65.0769C253.612 65.0477 261.145 61.7454 266.638 56.4165C272.168 51.0658 275.636 43.6885 275.745 35.5311C275.811 27.3957 272.714 19.734 266.952 13.9751Z" fill="url(#paint2_linear_804_3075)"/>
<path d="M193.385 69.8372C193.385 74.9328 189.24 79.0808 184.147 79.0808C183.193 79.0808 182.268 78.935 181.401 78.6652C177.634 77.4916 174.902 73.9779 174.902 69.8372C174.902 69.1447 174.975 68.474 175.135 67.8252C176.039 63.6773 179.725 60.5864 184.147 60.5864C185.837 60.5864 187.425 61.0457 188.788 61.833C188.788 61.833 188.795 61.8403 188.802 61.8403C190.988 63.1233 192.598 65.2738 193.152 67.8252C193.312 68.474 193.385 69.152 193.385 69.8372Z" fill="url(#paint3_linear_804_3075)"/>
<path d="M202.644 37.7326C202.062 37.9878 200.94 38.4835 200.197 38.7824C200.211 39.402 200.218 40.2841 200.218 40.6558V49.7754C200.218 50.0525 200.248 50.2639 200.532 50.4242C201.916 51.1313 202.499 52.3269 202.499 53.8577C202.484 55.4761 202.484 57.109 202.484 58.7492C202.484 59.0991 202.484 59.2304 202.331 59.2741C202.244 59.3178 202.113 59.3178 201.909 59.3178H196.059C195.527 59.3178 195.512 59.3033 195.512 58.7711C195.512 57.0434 195.512 55.3157 195.527 53.5807C195.527 53.1069 195.6 52.6768 195.76 52.2904C196.022 51.525 196.569 50.9272 197.392 50.4898C197.69 50.3295 197.829 50.1399 197.829 49.7973C197.814 47.0126 197.814 44.2352 197.814 41.4504V40.233C197.814 40.1091 197.8 39.9925 197.785 39.8394C197.596 39.905 197.435 39.9706 197.297 40.0289C195.986 40.5975 194.696 41.1443 193.385 41.7129V50.9272C190.595 49.5495 187.462 48.7767 184.147 48.7767C181.554 48.7767 179.084 49.2506 176.789 50.1035C176.141 50.3513 175.514 50.6211 174.902 50.9199V41.7347C172.345 40.634 169.788 39.5478 167.223 38.4397C166.692 38.2137 166.16 37.9878 165.628 37.7545C165.497 37.6962 165.373 37.6233 165.147 37.4993C165.402 37.3754 165.57 37.2952 165.737 37.2223C166.684 36.8141 167.631 36.4132 168.593 35.9976C173.554 33.869 178.523 31.7258 183.484 29.5972C183.856 29.4368 184.191 29.3566 184.592 29.5315C190.609 32.1267 196.627 34.6928 202.644 37.2806C202.776 37.3317 202.914 37.4119 203.096 37.4921C203.111 37.4993 203.118 37.5066 203.133 37.5139C202.936 37.616 202.768 37.6889 202.644 37.7326Z" fill="url(#paint4_linear_804_3075)"/>
<path d="M189.181 91.4804C189.13 91.4877 189.065 91.495 189.014 91.5023C188.037 91.6481 187.047 91.721 186.027 91.721C185.24 91.721 184.482 91.67 183.724 91.5898C184.526 91.2617 185.4 91.0868 186.325 91.0576H186.799C186.93 91.0576 187.068 91.0649 187.192 91.0795C187.302 91.0868 187.411 91.0941 187.52 91.1086C187.688 91.1232 187.863 91.1524 188.03 91.1815C188.169 91.2034 188.3 91.2326 188.431 91.2617C188.525 91.2836 188.606 91.3055 188.7 91.3273C188.708 91.3273 188.722 91.3346 188.729 91.3346C188.744 91.3419 188.766 91.3419 188.78 91.3492L188.788 91.3565C188.81 91.3565 188.831 91.3638 188.846 91.3711C188.97 91.4002 189.072 91.4367 189.181 91.4804Z" fill="white"/>
<path d="M193.385 69.837C193.385 74.9326 189.239 79.0805 184.147 79.0805C183.193 79.0805 182.267 78.9347 181.4 78.665C178.647 77.0685 176.789 74.0797 176.789 70.6608C176.789 69.9755 176.854 69.3048 177.015 68.6561C177.918 64.5081 181.604 61.4172 186.027 61.4172C186.988 61.4172 187.913 61.563 188.788 61.8328C188.788 61.8328 188.795 61.84 188.802 61.84C190.988 63.1231 192.598 65.2736 193.152 67.825C193.312 68.4738 193.385 69.1518 193.385 69.837Z" fill="white"/>
<path d="M266.952 13.9749C265.997 13.0272 264.985 12.1378 263.935 11.336C262.325 10.1113 260.613 9.04694 258.814 8.18674C255.324 6.78709 251.558 6.05811 247.689 6.05811H172.614C156.011 6.05811 142.337 19.2965 142.133 35.582C142.038 43.732 145.142 51.3791 150.882 57.1235C152.136 58.3773 153.483 59.5072 154.904 60.5059C155.742 61.0891 156.609 61.6359 157.497 62.1389C158.175 62.343 158.896 62.4523 159.639 62.4523C162.262 62.4523 164.579 61.1256 165.948 59.1063C165.956 59.1063 165.956 59.0917 165.97 59.0771C166.094 58.9022 166.203 58.7126 166.313 58.5377C166.32 58.5085 166.335 58.4794 166.364 58.4502C166.939 57.3859 167.274 56.132 167.274 54.8199C167.274 51.9987 165.73 49.5056 163.435 48.2007C163.384 48.1642 163.333 48.1424 163.282 48.1132C163.267 48.1132 163.267 48.1132 163.253 48.0986C161.993 47.4134 160.827 46.5605 159.792 45.5107C156.973 42.6896 155.45 38.9353 155.494 34.9332C155.596 26.9435 162.422 20.4555 170.742 20.4555H245.394C247.981 20.4555 250.523 21.046 252.767 22.2343C253.707 22.5769 254.618 23.0143 255.477 23.5391C256.33 24.0567 257.124 24.6691 257.86 25.3762C260.774 28.1901 262.369 31.9225 262.369 35.9538V36.1579C262.26 44.184 255.339 50.723 246.953 50.6428C241.766 50.5918 237.024 52.4434 233.315 55.5416C230.35 58.0201 228.055 61.2932 226.744 65.0256C225.95 67.3001 225.513 69.7349 225.513 72.2645V138.084C225.513 142.269 223.888 146.191 220.93 149.129C217.805 152.256 213.594 153.903 209.157 153.714C206.877 153.612 204.743 153.007 202.834 152.001C202.273 151.804 201.734 151.571 201.209 151.308C195.927 148.677 192.35 143.078 192.35 136.816V97.6841C192.35 95.0817 191.024 92.8145 189.028 91.4805C189.079 91.4732 189.145 91.4659 189.196 91.4586C189.086 91.4149 188.977 91.3857 188.861 91.3493C188.839 91.342 188.81 91.3347 188.795 91.3274C188.78 91.3201 188.759 91.3201 188.744 91.3128C188.737 91.3128 188.722 91.3055 188.715 91.3055C188.62 91.2764 188.54 91.2545 188.445 91.2399C188.307 91.2035 188.176 91.1816 188.045 91.1597C187.877 91.1233 187.702 91.1014 187.535 91.0868C187.425 91.0723 187.316 91.065 187.207 91.0577C187.076 91.0431 186.945 91.0358 186.813 91.0358H186.34C185.415 91.065 184.54 91.2399 183.739 91.568C180.956 92.6614 179.004 95.366 179.004 98.5152V137.385C179.004 148.166 184.409 157.869 192.693 163.592C193.982 164.488 195.345 165.276 196.772 165.968C200.167 167.331 203.861 168.097 207.737 168.133C209.325 168.148 210.891 168.046 212.436 167.82C219 166.887 225.061 163.854 229.818 159.094C235.654 153.262 238.881 145.498 238.881 137.246V71.448C238.881 67.8978 241.788 65.084 245.329 65.0767C253.605 65.0475 261.138 61.7452 266.631 56.4163C267.01 56.0446 267.389 55.6655 267.746 55.2791C269.727 53.1505 271.403 50.7448 272.7 48.1205C274.587 44.3006 275.672 40.0361 275.73 35.5309C275.81 27.3955 272.714 19.7338 266.952 13.9749Z" fill="white"/>
<path d="M193.385 69.837C193.385 74.9326 189.239 79.0805 184.147 79.0805C183.193 79.0805 182.267 78.9347 181.4 78.665C178.647 77.0685 176.789 74.0797 176.789 70.6608C176.789 69.9755 176.854 69.3048 177.015 68.6561C177.918 64.5081 181.604 61.4172 186.027 61.4172C186.988 61.4172 187.913 61.563 188.788 61.8328C188.788 61.8328 188.795 61.84 188.802 61.84C190.988 63.1231 192.598 65.2736 193.152 67.825C193.312 68.4738 193.385 69.1518 193.385 69.837Z" fill="#F7A81E"/>
<path d="M202.644 37.7324C202.061 37.9875 200.94 38.4832 200.196 38.7821C200.211 39.4017 200.218 40.2838 200.218 40.6556V49.7752C200.218 50.0522 200.247 50.2636 200.532 50.424C201.916 51.1311 202.499 52.3266 202.499 53.8575C202.484 55.4758 202.484 57.1088 202.484 58.749C202.484 59.0989 202.484 59.2301 202.331 59.2738C202.244 59.3176 202.112 59.3176 201.908 59.3176H197.399C197.399 57.6774 197.399 56.0517 197.406 54.4115C197.406 53.9377 197.479 53.5076 197.639 53.1212C197.902 52.3558 198.455 51.7507 199.279 51.3206C199.577 51.1603 199.708 50.9707 199.708 50.6281C199.694 47.4424 199.694 44.2568 199.694 41.0711C199.694 40.9472 199.686 40.8306 199.672 40.6775C199.483 40.7431 199.322 40.8087 199.184 40.867C198.725 41.0638 198.273 41.2607 197.814 41.4502V40.2328C197.814 40.1089 197.8 39.9922 197.785 39.8391C197.596 39.9047 197.435 39.9704 197.297 40.0287C195.986 40.5973 194.696 41.144 193.385 41.7126V50.927C191.017 49.7606 188.409 49.0316 185.655 48.8348C185.16 48.7983 184.65 48.7838 184.147 48.7838C181.553 48.7838 179.084 49.2576 176.789 50.1105V42.5728C176.162 42.3031 175.528 42.0334 174.902 41.7637C173.102 40.9909 171.303 40.2255 169.496 39.4528C168.833 39.1685 168.17 38.8842 167.515 38.5999C167.427 38.5561 167.347 38.5124 167.231 38.4468C167.18 38.4103 167.114 38.3885 167.041 38.3447C167.296 38.2208 167.456 38.1406 167.624 38.0677C168.571 37.6595 169.525 37.2512 170.487 36.843C170.873 36.6826 171.259 36.5077 171.645 36.3473L171.653 36.34C176.221 34.379 180.796 32.4108 185.371 30.4425C185.742 30.2822 186.078 30.202 186.478 30.3696C189.56 31.6964 192.634 33.0231 195.709 34.3426C198.171 35.3996 200.641 36.4494 203.096 37.5064C203.111 37.5137 203.118 37.521 203.132 37.5283C202.936 37.6157 202.768 37.6886 202.644 37.7324Z" fill="#F7A81E"/>
<path d="M108.395 17.4887C108.278 17.4085 108.154 17.3283 108.038 17.2481C96.4468 9.51362 81.0312 5.20532 62.8981 5.20532H23.5576C12.2071 5.20532 4.14233 13.2752 4.14233 24.6327V147.27C4.14233 156.338 8.75392 163.373 16.0829 166.478C16.5419 166.668 17.0009 166.85 17.4817 167.011C19.7911 167.805 22.341 168.221 25.0802 168.221C37.1884 168.221 45.7559 159.648 45.7559 147.27V118.001H62.6577C104.016 118.001 131.249 95.5338 131.249 61.2205C131.249 42.471 122.878 27.2863 108.395 17.4887ZM45.7486 41.8003H66.1838C72.1577 41.8003 77.17 43.5572 80.7908 46.6481C80.9219 46.7501 81.053 46.8595 81.1696 46.9761C84.9507 50.3805 87.1144 55.323 87.1144 61.2278C87.1144 73.3362 78.7873 81.4133 66.1838 81.4133H45.7486V41.8003Z" fill="url(#paint5_linear_804_3075)"/>
<path d="M425.705 10.2864C425.574 10.1698 425.45 10.0604 425.319 9.95837C421.757 6.94037 417.007 5.21997 411.492 5.21997C399.478 5.21997 390.983 13.7272 390.983 25.996V98.3331L343.957 27.505C339.236 20.4339 334.894 14.8936 329.969 11.1102C329.882 11.0446 329.794 10.9717 329.7 10.9133C324.768 7.19552 319.245 5.22726 312.186 5.22726C297.681 5.22726 287.926 14.2375 287.926 31.0114V147.394C287.926 156.397 292.508 163.373 299.779 166.449C300.231 166.639 300.682 166.821 301.156 166.974C303.451 167.754 305.979 168.17 308.682 168.17C320.688 168.17 329.19 159.663 329.19 147.394V77.8049L334.122 84.9781L335.892 87.5587L375.969 145.885C382.146 154.829 387.683 161.551 395.129 165.159C395.646 165.414 396.171 165.648 396.71 165.866C400.338 167.361 404.425 168.155 409.233 168.155C422.995 168.155 432.247 158.401 432.247 142.371V25.9887C432.255 19.4497 429.829 13.9751 425.705 10.2864Z" fill="url(#paint6_linear_804_3075)"/>
<path d="M125.034 35.604C121.96 29.9179 117.8 24.9171 112.686 20.7109C111.323 19.5736 109.888 18.502 108.387 17.4815C101.867 13.924 94.3559 11.3215 86.007 9.79796C80.3245 8.75551 74.2486 8.21606 67.8229 8.21606H28.4824C17.1319 8.21606 9.06714 16.2859 9.06714 27.6435V150.281C9.06714 155.646 10.6772 160.297 13.5257 163.84C14.2834 164.802 15.1358 165.684 16.0756 166.471C16.5346 166.661 16.9935 166.843 17.4744 167.003C19.7838 167.798 22.3336 168.214 25.0729 168.214C28.5844 168.214 31.7972 167.492 34.5875 166.158C40.6124 163.307 44.6922 157.636 45.5664 150.317C45.6975 149.326 45.7558 148.312 45.7558 147.263V117.994H62.6577C64.4863 117.994 66.2857 117.95 68.0488 117.855C106.362 115.989 131.249 94.0102 131.249 61.2132C131.249 51.6854 129.078 43.0615 125.034 35.604ZM45.7485 84.4314V41.8004H66.1837C72.1577 41.8004 77.1699 43.5572 80.7907 46.6481C82.8015 47.4937 84.5791 48.6164 86.1017 49.9941C87.4422 51.2116 88.5933 52.6112 89.4966 54.1931C91.1504 57.0361 92.0465 60.4332 92.0465 64.2385C92.0465 76.3542 83.7194 84.4314 71.1159 84.4314H45.7485Z" fill="#F7A81E"/>
<path d="M425.705 10.2864C425.574 10.1698 425.45 10.0604 425.319 9.95837C422.886 8.92321 420.146 8.32545 417.181 8.24526C416.926 8.23797 416.679 8.23068 416.424 8.23068C404.41 8.23068 395.916 16.7379 395.916 29.0067L395.908 38.9501L395.857 106.046L390.983 98.3258L373.87 70.7629L362.33 52.1666L351.621 34.9115L348.889 30.5084C344.168 23.4373 339.826 17.8897 334.901 14.1136C333.248 12.8379 331.528 11.7663 329.707 10.8988C327.529 9.85631 325.205 9.11275 322.669 8.68265C320.921 8.37648 319.085 8.22339 317.118 8.22339C302.613 8.22339 292.851 17.2336 292.851 34.0076V150.39C292.851 151.053 292.88 151.709 292.924 152.351C293.375 158.226 295.852 163.111 299.779 166.435C300.231 166.624 300.682 166.807 301.156 166.96C302.81 167.521 304.595 167.893 306.467 168.06C307.188 168.119 307.931 168.155 308.682 168.155C320.688 168.155 329.19 159.648 329.19 147.379V77.8049L329.102 73.5039L338.289 86.8662L340.824 90.5621L350.448 104.566L380.893 148.888C385.629 155.748 389.985 161.295 395.121 165.145C395.639 165.4 396.163 165.633 396.702 165.852C400.33 167.346 404.418 168.141 409.226 168.141C422.988 168.141 432.24 158.387 432.24 142.356V25.9887C432.255 19.4497 429.829 13.9751 425.705 10.2864Z" fill="#F7A81E"/>
<path d="M45.7486 84.4312H68.5442L13.5331 163.854C10.6845 160.304 9.07446 155.653 9.07446 150.295V120.873L45.7559 67.927V84.4312H45.7486Z" fill="url(#paint7_linear_804_3075)"/>
<path d="M112.686 20.7108L89.4967 54.193C88.5933 52.6111 87.4422 51.2042 86.1017 49.9941C84.5791 48.6236 82.8015 47.4937 80.7908 46.648C77.17 43.5571 72.1577 41.8003 66.1838 41.8003H63.8452L86.007 9.80518C94.356 11.3288 101.874 13.9312 108.387 17.4887C109.895 18.502 111.323 19.5736 112.686 20.7108Z" fill="url(#paint8_linear_804_3075)"/>
<path d="M203.096 37.4992C203.111 37.5065 203.118 37.5138 203.133 37.5211C202.943 37.6158 202.768 37.6815 202.652 37.7325C202.069 37.9876 200.947 38.4833 200.204 38.7822C200.218 39.4019 200.226 40.2839 200.226 40.6557V49.7753C200.226 50.0523 200.255 50.2637 200.539 50.4241C201.923 51.1312 202.506 52.3267 202.506 53.8576C202.491 55.476 202.491 57.1089 202.491 58.7491C202.491 59.099 202.491 59.2302 202.338 59.274C202.251 59.3177 202.12 59.3177 201.916 59.3177H197.406C197.406 57.6775 197.406 56.0519 197.414 54.4116C197.414 53.9378 197.486 53.5077 197.647 53.1213C197.909 52.3559 198.463 51.7508 199.286 51.3207C199.585 51.1604 199.716 50.9708 199.716 50.6282C199.701 47.4426 199.701 44.2569 199.701 41.0712C199.701 40.9473 199.694 40.8307 199.679 40.6776C199.49 40.7432 199.33 40.8088 199.191 40.8671C198.732 41.0639 198.281 41.2608 197.822 41.4503V40.2329C197.822 40.109 197.807 39.9923 197.792 39.8392C197.603 39.9049 197.443 39.9705 197.304 40.0288C195.993 40.5974 194.703 41.1441 193.392 41.7127V50.9271C191.024 49.7607 188.416 49.0317 185.662 48.8349L195.709 34.3281C198.164 35.3924 200.634 36.4422 203.096 37.4992Z" fill="url(#paint9_linear_804_3075)"/>
<path d="M239.712 6.05811L229.724 20.4701H205.311L215.292 6.05811H239.712Z" fill="url(#paint10_linear_804_3075)"/>
<path d="M34.5875 166.172L45.5664 150.331C44.6849 157.65 40.6125 163.322 34.5875 166.172Z" fill="url(#paint11_linear_804_3075)"/>
<path d="M125.034 35.6038C129.078 43.0613 131.249 51.6852 131.249 61.2276C131.249 94.0246 106.362 116.003 68.0488 117.87L125.034 35.6038Z" fill="url(#paint12_linear_804_3075)"/>
<path d="M170.48 36.8358C170.866 36.6754 171.252 36.5005 171.638 36.3401L169.489 39.4456C168.826 39.1613 168.163 38.877 167.507 38.5926C167.42 38.5489 167.34 38.5052 167.223 38.4396C167.172 38.4031 167.107 38.3812 167.034 38.3375C167.289 38.2136 167.449 38.1334 167.617 38.0605C168.564 37.6523 169.526 37.244 170.48 36.8358Z" fill="url(#paint13_linear_804_3075)"/>
<path d="M192.627 6.05811L182.639 20.4701H170.735C162.415 20.4701 155.589 26.9581 155.487 34.9478C155.436 38.9426 156.958 42.6969 159.785 45.5253C160.82 46.5751 161.985 47.428 163.246 48.1132C163.26 48.1278 163.26 48.1278 163.275 48.1278C163.326 48.1569 163.377 48.1788 163.428 48.2153L154.904 60.5132C153.476 59.5072 152.136 58.3846 150.882 57.1307C145.142 51.3863 142.038 43.7393 142.133 35.5893C142.337 19.2965 156.011 6.0654 172.614 6.0654H192.627V6.05811Z" fill="url(#paint14_linear_804_3075)"/>
<path d="M201.187 151.323L192.671 163.614C184.387 157.891 178.982 148.181 178.982 137.407V133.966L192.328 114.691V136.831C192.336 143.093 195.906 148.684 201.187 151.323Z" fill="url(#paint15_linear_804_3075)"/>
<path d="M275.716 35.5382C275.657 40.0433 274.572 44.3079 272.685 48.1278L267.731 55.2864C267.367 55.6728 266.995 56.0591 266.616 56.4236C261.131 61.7525 253.598 65.0548 245.314 65.0839C241.766 65.0912 238.867 67.9051 238.867 71.4553V96.9551L225.506 116.244V72.2863C225.506 69.7567 225.943 67.3219 226.737 65.0475L233.308 55.5634C237.009 52.4652 241.759 50.6136 246.946 50.6646C255.332 50.7448 262.253 44.2131 262.362 36.1797V35.9756C262.362 31.9443 260.766 28.2046 257.852 25.398C257.124 24.6982 256.322 24.0786 255.47 23.561L263.935 11.3359C264.985 12.1378 265.997 13.0272 266.952 13.9749C272.714 19.7338 275.81 27.3955 275.716 35.5382Z" fill="url(#paint16_linear_804_3075)"/>
<path d="M292.924 152.358L329.197 100.002V135.256L306.474 168.053C304.602 167.893 302.817 167.513 301.163 166.952C300.69 166.792 300.238 166.617 299.786 166.427C295.852 163.118 293.375 158.233 292.924 152.358Z" fill="url(#paint17_linear_804_3075)"/>
<path d="M373.87 70.7626L350.455 104.573L340.824 90.5691L338.289 86.8732L362.33 52.1663L373.87 70.7626Z" fill="url(#paint18_linear_804_3075)"/>
<path d="M417.181 8.24505L395.908 38.9499L395.916 29.0065C395.916 16.7377 404.41 8.23047 416.424 8.23047C416.671 8.23776 416.926 8.23776 417.181 8.24505Z" fill="url(#paint19_linear_804_3075)"/>
<path d="M212.414 167.834L238.86 129.665V137.268C238.86 145.513 235.632 153.276 229.797 159.116C225.039 163.876 218.978 166.901 212.414 167.834Z" fill="url(#paint20_linear_804_3075)"/>
<path d="M351.621 34.9185L292.851 119.758V51.7216L322.662 8.6897C325.197 9.1198 327.514 9.86336 329.7 10.9058C331.521 11.7733 333.24 12.8449 334.894 14.1206C339.826 17.8968 344.168 23.437 348.882 30.5155L351.621 34.9185Z" fill="url(#paint21_linear_804_3075)"/>
<path d="M193.152 67.825C193.312 68.4738 193.385 69.1518 193.385 69.837C193.385 74.9326 189.239 79.0805 184.147 79.0805C183.193 79.0805 182.267 78.9347 181.401 78.665C178.647 77.0685 176.789 74.0797 176.789 70.6608C176.789 69.9755 176.855 69.3048 177.015 68.6561C177.918 64.5081 181.605 61.4172 186.027 61.4172C186.988 61.4172 187.914 61.563 188.788 61.8328C188.788 61.8328 188.795 61.84 188.802 61.84C190.988 63.1231 192.598 65.2736 193.152 67.825Z" fill="url(#paint22_linear_804_3075)"/>
<path d="M240.149 219.541C239.493 219.541 239.144 219.279 238.663 218.623L232.048 209.591H227.757V218.222C227.757 218.965 227.188 219.49 226.445 219.49C225.702 219.49 225.17 218.965 225.17 218.222V190.52C225.17 189.777 225.695 189.252 226.445 189.252C227.188 189.252 227.757 189.777 227.757 190.52V207.265H232.048L238.532 199.246C238.925 198.678 239.318 198.372 239.93 198.372C241.023 198.372 241.46 199.378 240.848 200.216L234.277 208.322L241.111 217.573C241.817 218.572 241.162 219.541 240.149 219.541Z" fill="white"/>
<path d="M263.44 207.921C263.44 208.971 262.828 209.627 261.728 209.627H245.832C246.137 214.103 249.423 217.602 254.064 217.602C258.355 217.602 259.717 215.415 260.723 215.415C261.335 215.415 261.728 215.809 261.728 216.377C261.728 217.821 258.442 219.927 253.976 219.927C247.667 219.927 243.202 214.978 243.202 208.927C243.202 202.877 247.449 197.97 253.452 197.97C259.761 197.978 263.44 203.059 263.44 207.921ZM245.832 207.746H260.854C260.417 203.059 257.35 200.252 253.408 200.252C249.292 200.252 246.312 203.496 245.832 207.746Z" fill="white"/>
<path d="M268.984 189.252C269.727 189.252 270.295 189.777 270.295 190.528V218.229C270.295 218.973 269.727 219.498 268.984 219.498C268.241 219.498 267.717 218.973 267.717 218.229V190.528C267.709 189.777 268.234 189.252 268.984 189.252Z" fill="white"/>
<path d="M295.991 199.684V218.222C295.991 218.965 295.466 219.49 294.723 219.49C293.936 219.49 293.412 218.965 293.412 218.222V215.24C291.7 218.047 288.858 219.927 285.223 219.927C279.395 219.927 274.973 215.109 274.973 208.927C274.973 202.789 279.307 197.97 285.223 197.97C288.858 197.97 291.707 199.764 293.412 202.57V199.676C293.412 198.933 293.936 198.408 294.723 198.408C295.466 198.415 295.991 198.94 295.991 199.684ZM293.412 208.891C293.412 204.16 290.126 200.391 285.529 200.391C280.932 200.391 277.559 204.16 277.559 208.891C277.559 213.622 280.932 217.529 285.529 217.529C290.126 217.522 293.412 213.622 293.412 208.891Z" fill="white"/>
<path d="M308.47 219.935C303.786 219.935 300.238 217.391 300.238 215.904C300.238 215.204 300.719 214.898 301.331 214.898C302.467 214.898 303.917 217.704 308.689 217.704C311.8 217.704 313.592 216.21 313.592 214.023C313.592 208.322 300.974 211.085 300.974 203.591C300.974 200.391 303.735 197.985 308.332 197.985C312.142 197.985 315.253 199.778 315.253 201.098C315.253 201.71 314.816 202.06 314.248 202.06C313.067 202.06 311.661 200.223 308.157 200.223C305.308 200.223 303.516 201.623 303.516 203.511C303.516 208.774 316.134 206.23 316.134 213.899C316.134 217.434 313.293 219.935 308.47 219.935Z" fill="white"/>
<path d="M345.203 192.941C345.203 194.566 346.5 195.864 348.08 195.864C349.705 195.864 351.002 194.566 351.002 192.941C351.002 191.359 349.705 190.061 348.08 190.061C346.5 190.061 345.203 191.359 345.203 192.941Z" fill="#FFD600"/>
<path d="M342.376 208.905C342.376 215.393 337.852 219.877 332.373 219.877C329.634 219.877 327.5 218.79 325.977 217.004V225.708C325.977 227.276 324.891 228.406 323.325 228.406C321.715 228.406 320.63 227.276 320.63 225.708V200.981C320.63 199.414 321.715 198.328 323.325 198.328C324.76 198.328 325.802 199.246 325.977 200.639C327.456 198.896 329.59 197.898 332.373 197.898C338.114 197.898 342.376 202.643 342.376 208.905ZM337.029 208.949C337.029 205.552 334.727 202.855 331.506 202.855C328.33 202.855 325.977 205.552 325.977 208.949C325.977 212.259 328.33 214.912 331.506 214.912C334.719 214.92 337.029 212.259 337.029 208.949Z" fill="white"/>
<path d="M348.102 219.446C346.536 219.446 345.45 218.36 345.45 216.793V200.988C345.45 199.421 346.536 198.335 348.059 198.335C349.669 198.335 350.754 199.421 350.754 200.988V216.793C350.754 218.353 349.669 219.446 348.102 219.446Z" fill="white"/>
<path d="M374.001 206.689V216.786C374.001 218.353 372.916 219.439 371.35 219.439C369.783 219.439 368.654 218.353 368.654 216.786V207.469C368.654 204.641 367 202.855 364.436 202.855C361.828 202.855 360.218 204.641 360.218 207.469V216.786C360.218 218.353 359.132 219.439 357.566 219.439C356 219.439 354.914 218.353 354.914 216.786V200.981C354.914 199.414 356 198.328 357.522 198.328C359.001 198.328 359.999 199.203 360.174 200.551C361.478 198.853 363.525 197.898 366.046 197.898C370.869 197.898 374.001 201.251 374.001 206.689Z" fill="white"/>
<path d="M389.774 214.263C391.209 214.263 391.945 215.218 391.945 216.268C391.945 218.266 389.774 219.877 386.335 219.877C382.03 219.877 379.291 217.267 379.291 212.171V203.161H377.375C375.983 203.161 375.029 202.206 375.029 200.77C375.029 199.421 375.983 198.459 377.375 198.459H379.334V195.631C379.334 194.02 380.42 192.933 381.942 192.933C383.552 192.933 384.638 194.02 384.638 195.631V198.459H388.557C389.905 198.459 390.86 199.414 390.86 200.814C390.86 202.206 389.905 203.161 388.557 203.161H384.725V212.784C384.725 214.351 385.425 214.92 386.598 214.92C387.771 214.92 388.769 214.263 389.774 214.263Z" fill="white"/>
<path d="M413.961 200.989V216.793C413.961 218.36 412.876 219.446 411.309 219.446C409.787 219.446 408.701 218.448 408.614 217.012C407.135 218.798 405 219.884 402.261 219.884C396.739 219.884 392.251 215.401 392.251 208.869C392.251 202.6 396.469 197.898 402.261 197.898C405 197.898 407.135 198.896 408.614 200.639C408.789 199.246 409.83 198.328 411.309 198.328C412.876 198.328 413.961 199.421 413.961 200.989ZM408.614 208.869C408.614 205.516 406.304 202.862 403.135 202.862C399.915 202.862 397.569 205.516 397.569 208.869C397.569 212.222 399.922 214.919 403.135 214.919C406.304 214.919 408.614 212.215 408.614 208.869Z" fill="white"/>
<path d="M432.255 200.77C432.255 202.337 431.169 203.292 429.646 203.292C428.816 203.292 427.905 203.03 426.689 203.03C424.773 203.03 423.512 204.466 423.512 206.689V216.786C423.512 218.353 422.427 219.439 420.86 219.439C419.294 219.439 418.208 218.353 418.208 216.786V200.981C418.208 199.414 419.294 198.328 420.817 198.328C422.339 198.328 423.381 199.283 423.512 200.675C424.641 199.064 426.383 197.89 428.692 197.89C430.426 197.898 432.255 198.809 432.255 200.77Z" fill="white"/>
<path d="M184.169 204.736V218.47C184.169 219.06 183.739 219.498 183.171 219.498C182.581 219.498 182.144 219.067 182.144 218.47V217.741C181.298 218.944 179.98 219.724 178.319 219.724C175.361 219.724 173.037 217.289 173.037 213.986C173.037 210.75 175.266 208.271 178.319 208.271C179.98 208.271 181.306 209 182.144 210.188V204.743C182.144 204.152 182.552 203.737 183.171 203.737C183.761 203.73 184.169 204.145 184.169 204.736ZM182.144 213.979C182.144 211.836 180.687 210.152 178.618 210.152C176.57 210.152 175.07 211.836 175.07 213.979C175.07 216.1 176.57 217.828 178.618 217.828C180.687 217.828 182.144 216.1 182.144 213.979Z" fill="white"/>
<path d="M198.426 209.496V218.491C198.426 219.082 198.018 219.497 197.421 219.497C196.809 219.497 196.394 219.089 196.394 218.491V217.74C195.556 218.943 194.23 219.723 192.569 219.723C189.611 219.723 187.287 217.289 187.287 213.986C187.287 210.75 189.516 208.271 192.569 208.271C194.23 208.271 195.556 209 196.394 210.188V209.503C196.394 208.913 196.802 208.504 197.421 208.504C198.011 208.49 198.426 208.905 198.426 209.496ZM196.394 213.979C196.394 211.836 194.937 210.152 192.868 210.152C190.82 210.152 189.312 211.836 189.312 213.979C189.312 216.1 190.813 217.828 192.868 217.828C194.937 217.828 196.394 216.1 196.394 213.979Z" fill="white"/>
<path d="M208.83 209.43C208.83 209.999 208.443 210.363 207.853 210.363C207.489 210.363 207.081 210.203 206.418 210.203C205.165 210.203 204.371 211.231 204.371 212.842V218.492C204.371 219.082 203.941 219.49 203.366 219.49C202.754 219.49 202.338 219.082 202.338 218.492V209.496C202.338 208.905 202.746 208.497 203.344 208.497C203.934 208.497 204.371 208.905 204.371 209.496V209.86C204.961 208.927 205.894 208.264 207.125 208.264C207.89 208.264 208.83 208.607 208.83 209.43Z" fill="white"/>
<path d="M213.492 205.392C213.492 206.077 212.924 206.646 212.239 206.646C211.532 206.646 210.986 206.077 210.986 205.392C210.986 204.707 211.532 204.138 212.239 204.138C212.924 204.145 213.492 204.714 213.492 205.392ZM212.261 219.498C211.649 219.498 211.234 219.089 211.234 218.499V209.503C211.234 208.913 211.642 208.505 212.232 208.505C212.822 208.505 213.259 208.913 213.259 209.503V218.499C213.266 219.089 212.836 219.498 212.261 219.498Z" fill="white"/>
</g>
<defs>
<linearGradient id="paint0_linear_804_3075" x1="181.996" y1="192.895" x2="187.397" y2="-21.3189" gradientUnits="userSpaceOnUse">
<stop offset="1.24826e-07" stop-color="#8738FF"/>
<stop offset="0.5979" stop-color="#B892FF"/>
<stop offset="1" stop-color="#D7CBFF"/>
</linearGradient>
<linearGradient id="paint1_linear_804_3075" x1="181.045" y1="192.87" x2="186.446" y2="-21.3424" gradientUnits="userSpaceOnUse">
<stop offset="1.24826e-07" stop-color="#8738FF"/>
<stop offset="0.5979" stop-color="#B892FF"/>
<stop offset="1" stop-color="#D7CBFF"/>
</linearGradient>
<linearGradient id="paint2_linear_804_3075" x1="207.035" y1="-16.6168" x2="210.512" y2="172.604" gradientUnits="userSpaceOnUse">
<stop stop-color="#E9EB7B"/>
<stop offset="0.1842" stop-color="#EAE776" stop-opacity="0.8158"/>
<stop offset="0.4065" stop-color="#ECDD67" stop-opacity="0.5935"/>
<stop offset="0.6485" stop-color="#F0CB4F" stop-opacity="0.3515"/>
<stop offset="0.9029" stop-color="#F5B32D" stop-opacity="0.0971"/>
<stop offset="1" stop-color="#F7A81E" stop-opacity="0"/>
</linearGradient>
<linearGradient id="paint3_linear_804_3075" x1="181.045" y1="192.87" x2="186.446" y2="-21.3424" gradientUnits="userSpaceOnUse">
<stop stop-color="#E9EB7B"/>
<stop offset="0.1842" stop-color="#EAE776" stop-opacity="0.8158"/>
<stop offset="0.4065" stop-color="#ECDD67" stop-opacity="0.5935"/>
<stop offset="0.6485" stop-color="#F0CB4F" stop-opacity="0.3515"/>
<stop offset="0.9029" stop-color="#F5B32D" stop-opacity="0.0971"/>
<stop offset="1" stop-color="#F7A81E" stop-opacity="0"/>
</linearGradient>
<linearGradient id="paint4_linear_804_3075" x1="180.225" y1="192.85" x2="185.625" y2="-21.3633" gradientUnits="userSpaceOnUse">
<stop stop-color="#E9EB7B"/>
<stop offset="0.1842" stop-color="#EAE776" stop-opacity="0.8158"/>
<stop offset="0.4065" stop-color="#ECDD67" stop-opacity="0.5935"/>
<stop offset="0.6485" stop-color="#F0CB4F" stop-opacity="0.3515"/>
<stop offset="0.9029" stop-color="#F5B32D" stop-opacity="0.0971"/>
<stop offset="1" stop-color="#F7A81E" stop-opacity="0"/>
</linearGradient>
<linearGradient id="paint5_linear_804_3075" x1="70.2155" y1="5.44705" x2="44.3201" y2="396.771" gradientUnits="userSpaceOnUse">
<stop stop-color="#E9EB7B"/>
<stop offset="0.1842" stop-color="#EAE776" stop-opacity="0.8158"/>
<stop offset="0.4065" stop-color="#ECDD67" stop-opacity="0.5935"/>
<stop offset="0.6485" stop-color="#F0CB4F" stop-opacity="0.3515"/>
<stop offset="0.9029" stop-color="#F5B32D" stop-opacity="0.0971"/>
<stop offset="1" stop-color="#F7A81E" stop-opacity="0"/>
</linearGradient>
<linearGradient id="paint6_linear_804_3075" x1="364.164" y1="25.0232" x2="338.269" y2="416.348" gradientUnits="userSpaceOnUse">
<stop stop-color="#E9EB7B"/>
<stop offset="0.1842" stop-color="#EAE776" stop-opacity="0.8158"/>
<stop offset="0.4065" stop-color="#ECDD67" stop-opacity="0.5935"/>
<stop offset="0.6485" stop-color="#F0CB4F" stop-opacity="0.3515"/>
<stop offset="0.9029" stop-color="#F5B32D" stop-opacity="0.0971"/>
<stop offset="1" stop-color="#F7A81E" stop-opacity="0"/>
</linearGradient>
<linearGradient id="paint7_linear_804_3075" x1="15.4466" y1="228.959" x2="103.852" y2="-248.374" gradientUnits="userSpaceOnUse">
<stop offset="0.00418835" stop-color="white" stop-opacity="0"/>
<stop offset="1" stop-color="white"/>
</linearGradient>
<linearGradient id="paint8_linear_804_3075" x1="50.4965" y1="235.451" x2="138.901" y2="-241.883" gradientUnits="userSpaceOnUse">
<stop offset="0.00418835" stop-color="white" stop-opacity="0"/>
<stop offset="1" stop-color="white"/>
</linearGradient>
<linearGradient id="paint9_linear_804_3075" x1="156.85" y1="255.148" x2="245.255" y2="-222.185" gradientUnits="userSpaceOnUse">
<stop offset="0.00418835" stop-color="white" stop-opacity="0"/>
<stop offset="1" stop-color="white"/>
</linearGradient>
<linearGradient id="paint10_linear_804_3075" x1="177.075" y1="258.894" x2="265.48" y2="-218.44" gradientUnits="userSpaceOnUse">
<stop offset="0.00418835" stop-color="white" stop-opacity="0"/>
<stop offset="1" stop-color="white"/>
</linearGradient>
<linearGradient id="paint11_linear_804_3075" x1="26.6348" y1="231.031" x2="115.04" y2="-246.302" gradientUnits="userSpaceOnUse">
<stop offset="0.00418835" stop-color="white" stop-opacity="0"/>
<stop offset="1" stop-color="white"/>
</linearGradient>
<linearGradient id="paint12_linear_804_3075" x1="72.4276" y1="239.512" x2="160.833" y2="-237.821" gradientUnits="userSpaceOnUse">
<stop offset="0.00418835" stop-color="white" stop-opacity="0"/>
<stop offset="1" stop-color="white"/>
</linearGradient>
<linearGradient id="paint13_linear_804_3075" x1="129.97" y1="250.17" x2="218.375" y2="-227.164" gradientUnits="userSpaceOnUse">
<stop offset="0.00418835" stop-color="white" stop-opacity="0"/>
<stop offset="1" stop-color="white"/>
</linearGradient>
<linearGradient id="paint14_linear_804_3075" x1="124.915" y1="249.234" x2="213.32" y2="-228.1" gradientUnits="userSpaceOnUse">
<stop offset="0.00418835" stop-color="white" stop-opacity="0"/>
<stop offset="1" stop-color="white"/>
</linearGradient>
<linearGradient id="paint15_linear_804_3075" x1="168.866" y1="257.374" x2="257.271" y2="-219.96" gradientUnits="userSpaceOnUse">
<stop offset="0.00418835" stop-color="white" stop-opacity="0"/>
<stop offset="1" stop-color="white"/>
</linearGradient>
<linearGradient id="paint16_linear_804_3075" x1="211.537" y1="265.276" x2="299.942" y2="-212.057" gradientUnits="userSpaceOnUse">
<stop offset="0.00418835" stop-color="white" stop-opacity="0"/>
<stop offset="1" stop-color="white"/>
</linearGradient>
<linearGradient id="paint17_linear_804_3075" x1="286.039" y1="279.075" x2="374.444" y2="-198.259" gradientUnits="userSpaceOnUse">
<stop offset="0.00418835" stop-color="white" stop-opacity="0"/>
<stop offset="1" stop-color="white"/>
</linearGradient>
<linearGradient id="paint18_linear_804_3075" x1="317.946" y1="284.984" x2="406.351" y2="-192.349" gradientUnits="userSpaceOnUse">
<stop offset="0.00418835" stop-color="white" stop-opacity="0"/>
<stop offset="1" stop-color="white"/>
</linearGradient>
<linearGradient id="paint19_linear_804_3075" x1="355.768" y1="291.989" x2="444.173" y2="-185.345" gradientUnits="userSpaceOnUse">
<stop offset="0.00418835" stop-color="white" stop-opacity="0"/>
<stop offset="1" stop-color="white"/>
</linearGradient>
<linearGradient id="paint20_linear_804_3075" x1="205.265" y1="264.115" x2="293.67" y2="-213.219" gradientUnits="userSpaceOnUse">
<stop offset="0.00418835" stop-color="white" stop-opacity="0"/>
<stop offset="1" stop-color="white"/>
</linearGradient>
<linearGradient id="paint21_linear_804_3075" x1="278.871" y1="277.747" x2="367.276" y2="-199.586" gradientUnits="userSpaceOnUse">
<stop offset="0.00418835" stop-color="white" stop-opacity="0"/>
<stop offset="1" stop-color="white"/>
</linearGradient>
<linearGradient id="paint22_linear_804_3075" x1="151.084" y1="254.08" x2="239.488" y2="-223.253" gradientUnits="userSpaceOnUse">
<stop offset="0.00418835" stop-color="white" stop-opacity="0"/>
<stop offset="1" stop-color="white"/>
</linearGradient>
<clipPath id="clip0_804_3075">
<rect width="460" height="233.407" fill="white" transform="translate(0 0.106201)"/>
</clipPath>
</defs>
</svg>
