<svg width="47" height="40" viewBox="0 0 47 40" fill="none" xmlns="http://www.w3.org/2000/svg">
<path fill-rule="evenodd" clip-rule="evenodd" d="M22.6499 21.511C23.3998 20.4265 23.8436 19.0832 23.8436 17.6285C23.8436 14.029 21.1267 11.1111 17.7754 11.1111C14.424 11.1111 11.7072 14.029 11.7072 17.6285C11.7072 19.1608 12.1996 20.5696 13.0236 21.6824C9.28493 24.503 6.70978 30.4316 6.70978 37.2889C6.70978 37.3809 6.71024 37.4728 6.71117 37.5645H29.1963C29.1973 37.4728 29.1977 37.3809 29.1977 37.2889C29.1977 30.2895 26.5147 24.2575 22.6499 21.511Z" fill="white"/>
<ellipse cx="35.794" cy="12.4127" rx="3.63559" ry="3.90476" fill="#F89500"/>
<rect x="1.86206" y="2" width="43.627" height="36.4444" rx="5" stroke="white" stroke-width="3"/>
</svg>
