<svg width="41" height="63" viewBox="0 0 41 63" fill="none" xmlns="http://www.w3.org/2000/svg">
<path fill-rule="evenodd" clip-rule="evenodd" d="M13.7582 32.4241C14.3714 31.5374 14.7342 30.439 14.7342 29.2496C14.7342 26.3063 12.5127 23.9203 9.77228 23.9203C7.03189 23.9203 4.81036 26.3063 4.81036 29.2496C4.81036 30.5026 5.21295 31.6545 5.88678 32.5644C2.82977 34.8709 0.724152 39.7186 0.724152 45.3257C0.724152 45.4009 0.724531 45.476 0.725286 45.551H19.1113C19.1121 45.476 19.1124 45.4009 19.1124 45.3257C19.1124 39.6022 16.9185 34.6699 13.7582 32.4241Z" fill="white"/>
<path fill-rule="evenodd" clip-rule="evenodd" d="M35.2404 19.6058C35.8535 18.7191 36.2163 17.6208 36.2163 16.4315C36.2163 13.4882 33.9947 11.1022 31.2543 11.1022C28.5139 11.1022 26.2924 13.4882 26.2924 16.4315C26.2924 17.6845 26.695 18.8365 27.3689 19.7464C24.312 22.0529 22.2065 26.9006 22.2065 32.5075C22.2065 32.5828 22.2069 32.6579 22.2076 32.7329H40.5937C40.5944 32.6579 40.5948 32.5828 40.5948 32.5075C40.5948 26.784 38.4008 21.8516 35.2404 19.6058Z" fill="#F89500"/>
<path d="M23.1352 6.23795C23.5143 8.10765 23.8762 9.98071 24.2342 11.8544C24.3853 12.6392 23.9013 13.3599 23.118 13.5145C21.3993 13.8543 19.6783 14.1831 17.9573 14.503C17.1976 14.6429 16.4283 14.1114 16.2998 13.3913C16.1713 12.6713 16.6408 11.9734 17.4111 11.7927C18.0601 11.6398 18.7179 11.5255 19.3718 11.3933C17.6169 10.4197 15.7902 10.2262 13.9204 10.651C9.77399 11.5925 6.87316 15.4694 6.78077 20.1568C6.77235 20.5192 6.77196 20.9232 6.62611 21.2283C6.3322 21.8372 5.7969 22.0683 5.16373 21.8786C4.55601 21.6955 4.2568 21.2214 4.22816 20.5516C4.11996 18.0803 4.67343 15.7967 5.85444 13.7124C8.97439 8.21287 14.9201 6.23622 20.5668 8.7981C20.6872 8.85269 20.8133 8.89176 21.0233 8.9713C20.8778 8.19374 20.7434 7.49438 20.6192 6.7919C20.4631 5.918 20.9035 5.09228 21.5915 4.95755C22.2761 4.82385 22.959 5.36983 23.1352 6.23795Z" fill="white"/>
<path d="M17.8687 56.8795C17.4574 55.0177 17.0633 53.1522 16.6729 51.286C16.5084 50.5043 16.9798 49.7741 17.7602 49.6039C19.4728 49.2299 21.1879 48.8669 22.9031 48.5128C23.6602 48.3578 24.4385 48.8739 24.5794 49.5912C24.7203 50.3085 24.263 51.0157 23.4959 51.2117C22.8497 51.3776 22.194 51.5049 21.5425 51.6501C23.3139 52.5886 25.1436 52.7457 27.0058 52.2837C31.1352 51.2598 33.9686 47.3257 33.98 42.6373C33.9822 42.2748 33.9756 41.8709 34.1161 41.5629C34.3995 40.9482 34.9307 40.7066 35.567 40.8836C36.1778 41.0546 36.4852 41.5226 36.5254 42.1917C36.6762 44.6605 36.1623 46.9546 35.0175 49.0622C31.993 54.6229 26.0824 56.7176 20.3925 54.2687C20.2712 54.2165 20.1444 54.1799 19.9331 54.1046C20.092 54.8791 20.2385 55.5757 20.3748 56.2756C20.546 57.1462 20.1198 57.9806 19.4343 58.129C18.7521 58.2763 18.0599 57.744 17.8687 56.8795Z" fill="white"/>
</svg>
