<svg width="50" height="53" viewBox="0 0 50 53" fill="none" xmlns="http://www.w3.org/2000/svg">
<g clip-path="url(#clip0_885_8818)">
<path d="M23.8765 33.461L30.5626 28.5128C31.8484 27.5613 31.8484 25.4388 30.5626 24.4873L23.8765 19.539C22.4536 18.4859 20.561 19.6347 20.561 21.5515V31.4474C20.561 33.3654 22.4536 34.5142 23.8765 33.461Z" fill="white"/>
<g clip-path="url(#clip1_885_8818)">
<path d="M38.6661 41.2207C36.0798 44.0719 32.9524 45.8723 29.3725 46.6596C19.7685 48.7776 10.9185 43.2965 7.56147 33.2112C7.4905 32.9909 7.39194 32.7803 7.24902 32.4261C6.52853 33.4877 5.87406 34.4608 5.20876 35.4274C4.35126 36.677 3.15076 36.9265 2.11486 36.083C1.26032 35.3886 1.10557 33.9035 1.83396 32.7835C3.51643 30.2012 5.2196 27.6329 6.93855 25.0776C7.62159 24.0602 9.03893 23.9328 10.0453 24.7525C12.2531 26.5453 14.456 28.3457 16.6559 30.1472C17.7746 31.062 18.0713 32.5978 17.3498 33.667C16.6736 34.6747 15.4751 34.7729 14.2677 33.87C13.4132 33.2296 12.5912 32.5319 11.4981 31.6538C11.712 32.3235 11.8125 32.7177 11.9643 33.087C15.9305 42.8277 27.3845 45.6649 34.967 38.7906C35.2814 38.5044 35.5791 38.1934 35.9004 37.9147C36.8801 37.0658 38.0096 37.1274 38.7952 38.0594C39.5788 38.9883 39.5541 40.2422 38.6661 41.2207Z" fill="white"/>
<path d="M48.8457 20.2812C47.181 22.8301 45.4936 25.3606 43.8012 27.8868C43.0936 28.9463 41.757 29.1191 40.7211 28.2831C38.4473 26.4492 36.1833 24.6002 33.9291 22.7415C32.9356 21.9196 32.6794 20.345 33.3397 19.3859C34.0001 18.4269 35.2952 18.2605 36.3459 19.0511C37.232 19.7164 38.0846 20.4357 38.9529 21.1301C38.1023 17.8015 36.3035 15.2408 33.7685 13.3065C28.1474 9.01663 20.63 9.56421 15.3066 14.6144C14.8936 15.0032 14.4432 15.4482 13.9425 15.5972C12.9401 15.891 12.0924 15.4579 11.6055 14.4351C11.1393 13.4523 11.3374 12.5451 12.052 11.7696C14.6856 8.90539 17.8397 7.09852 21.4638 6.31766C31.0304 4.26238 39.7887 9.72297 43.1616 19.8039C43.2335 20.0188 43.3291 20.224 43.472 20.5815C44.1778 19.5371 44.8086 18.5932 45.4542 17.659C46.2555 16.4947 47.661 16.1502 48.5697 16.8857C49.4736 17.6179 49.6185 19.0975 48.8457 20.2812Z" fill="white"/>
<path d="M23.9851 33.4553L31.2867 28.1956C32.6902 27.1836 32.6902 24.9285 31.2867 23.9166L23.9851 18.6569C22.4308 17.5369 20.3649 18.7584 20.3649 20.7964V31.3169C20.3649 33.3527 22.4317 34.5742 23.9851 33.4553Z" fill="#F89500"/>
</g>
</g>
<defs>
<clipPath id="clip0_885_8818">
<rect width="49.3464" height="53" fill="white"/>
</clipPath>
<clipPath id="clip1_885_8818">
<rect width="47.9757" height="41.2222" fill="white" transform="translate(1.37073 5.88892)"/>
</clipPath>
</defs>
</svg>
