<svg width="47" height="38" viewBox="0 0 47 38" fill="none" xmlns="http://www.w3.org/2000/svg">
<rect y="12" width="31.6562" height="26" rx="4" fill="#F89500"/>
<path fill-rule="evenodd" clip-rule="evenodd" d="M5.60339 10.0622C5.83277 10.0213 6.06891 10 6.31003 10H29.9662C32.1754 10 33.9662 11.7909 33.9662 14V32C33.9662 32.703 33.7849 33.3637 33.4664 33.9378C35.3385 33.6041 36.7597 31.968 36.7597 30V12C36.7597 9.79086 34.9689 8 32.7597 8H9.10352C7.59741 8 6.28572 8.83239 5.60339 10.0622Z" fill="white"/>
<path fill-rule="evenodd" clip-rule="evenodd" d="M10.2588 6.06222C10.4882 6.02134 10.7243 6 10.9654 6H34.6216C36.8308 6 38.6216 7.79086 38.6216 10V28C38.6216 28.703 38.4403 29.3637 38.1217 29.9378C39.9939 29.6041 41.4151 27.968 41.4151 26V8C41.4151 5.79086 39.6242 4 37.4151 4H13.7589C12.2528 4 10.9411 4.83239 10.2588 6.06222Z" fill="white"/>
<path fill-rule="evenodd" clip-rule="evenodd" d="M14.9142 2.06222C15.1436 2.02134 15.3797 2 15.6208 2H39.277C41.4862 2 43.277 3.79086 43.277 6V24C43.277 24.703 43.0956 25.3637 42.7771 25.9378C44.6492 25.6041 46.0705 23.968 46.0705 22V4C46.0705 1.79086 44.2796 0 42.0705 0H18.4143C16.9082 0 15.5965 0.832389 14.9142 2.06222Z" fill="white"/>
<path d="M9.64247 27.42C9.60247 25.39 6.53247 26.02 6.53247 25.01C6.53247 24.69 6.80247 24.48 7.32247 24.48C7.87247 24.48 8.21247 24.77 8.25247 25.2H9.59247C9.51247 24.1 8.70247 23.37 7.36247 23.37C5.99247 23.37 5.17247 24.11 5.17247 25.03C5.17247 27.06 8.30247 26.43 8.30247 27.42C8.30247 27.74 8.00247 27.99 7.45247 27.99C6.89247 27.99 6.50247 27.67 6.45247 27.25H5.04247C5.10247 28.28 6.07247 29.09 7.46247 29.09C8.81247 29.09 9.64247 28.37 9.64247 27.42ZM16.1417 26.23C16.1417 24.48 14.8917 23.37 13.2917 23.37C11.6917 23.37 10.4417 24.48 10.4417 26.23C10.4417 27.97 11.6517 29.09 13.2517 29.09C14.8617 29.09 16.1417 27.97 16.1417 26.23ZM11.8617 26.23C11.8617 25.12 12.5317 24.59 13.2717 24.59C14.0117 24.59 14.7017 25.12 14.7017 26.23C14.7017 27.33 13.9917 27.87 13.2517 27.87C12.5017 27.87 11.8617 27.33 11.8617 26.23ZM16.8086 26.21C16.8086 27.94 17.9286 29.09 19.3286 29.09C20.2086 29.09 20.8386 28.67 21.1686 28.19V29H22.5786V23.46H21.1686V24.25C20.8386 23.79 20.2286 23.37 19.3386 23.37C17.9286 23.37 16.8086 24.48 16.8086 26.21ZM21.1686 26.23C21.1686 27.28 20.4686 27.86 19.6986 27.86C18.9486 27.86 18.2386 27.26 18.2386 26.21C18.2386 25.16 18.9486 24.6 19.6986 24.6C20.4686 24.6 21.1686 25.18 21.1686 26.23ZM23.946 29H25.346V21.6H23.946V29Z" fill="#F4F9FF"/>
</svg>
