<svg width="56" height="49" viewBox="0 0 56 49" fill="none" xmlns="http://www.w3.org/2000/svg">
<path d="M20.8929 42.9C31.6933 42.9 40.2693 33.5296 40.2693 22.2C40.2693 10.8704 31.6933 1.5 20.8929 1.5C10.0925 1.5 1.51648 10.8704 1.51648 22.2C1.51648 33.5296 10.0925 42.9 20.8929 42.9Z" stroke="white" stroke-width="3"/>
<path fill-rule="evenodd" clip-rule="evenodd" d="M27.131 29.5722C28.0253 28.2791 28.5544 26.6773 28.5544 24.9428C28.5544 20.6508 25.3148 17.1714 21.3187 17.1714C17.3225 17.1714 14.083 20.6508 14.083 24.9428C14.083 26.7699 14.67 28.4497 15.6526 29.7766C11.1946 33.1399 8.12402 40.2092 8.12402 48.3858C8.12402 48.4955 8.12458 48.605 8.12568 48.7144H34.937C34.9381 48.605 34.9387 48.4955 34.9387 48.3858C34.9387 40.0397 31.7394 32.8472 27.131 29.5722Z" fill="white"/>
<path d="M41.6032 33.5758L39.9139 31.9066C38.7256 30.7325 36.7352 31.0733 36.0053 32.5759C35.4164 33.7882 35.9222 35.2483 37.1348 35.8365L39.6487 37.0558C40.8601 37.6434 41.8041 38.691 42.274 39.9527C42.6234 40.8907 43.2352 41.7221 44.0309 42.3293L47.7251 45.1485C49.4533 46.4673 51.9331 46.0732 53.1673 44.2837C54.2914 42.6538 53.9782 40.4343 52.4469 39.1791L48.6011 36.0269C47.6106 35.215 46.3694 34.7713 45.0887 34.7713H44.5138C43.4241 34.7713 42.3783 34.3418 41.6032 33.5758Z" fill="white"/>
<ellipse cx="32.5978" cy="39.6571" rx="7.02288" ry="7.54285" fill="#F89500"/>
<path d="M42.0963 33.4164C41.9325 33.5328 41.7824 33.6419 41.6305 33.7481C38.3216 36.0555 35.5052 38.874 33.1127 42.1319C32.6717 42.733 32.2475 43.3463 31.8179 43.9564C31.7724 44.0209 31.7466 44.0997 31.7113 44.1721L31.3108 44.113C31.2786 44.0398 31.2544 43.9605 31.2122 43.8937C30.148 42.1987 29.0814 40.5053 28.0157 38.811C27.9802 38.7543 27.9477 38.6954 27.9185 38.6452C27.9251 38.625 27.9254 38.6159 27.9298 38.6106C28.2844 38.1886 28.2834 38.1894 28.712 38.5258C29.5167 39.1577 30.3226 39.7885 31.1284 40.4193C31.1811 40.4605 31.2367 40.4977 31.3001 40.5437C34.3766 37.4014 37.7033 34.6196 41.8083 32.8878C41.9076 33.0704 41.9961 33.2332 42.0963 33.4164Z" fill="white"/>
<path fill-rule="evenodd" clip-rule="evenodd" d="M35.6614 22.3567C35.6673 22.1692 35.6702 21.981 35.6702 21.792C35.6702 12.7153 28.8194 5.35718 20.3683 5.35718C19.8541 5.35718 19.3458 5.38442 18.8447 5.43763C27.4332 6.26098 34.3529 13.3121 35.6614 22.3567Z" fill="white"/>
</svg>
