<svg width="46" height="48" viewBox="0 0 46 48" fill="none" xmlns="http://www.w3.org/2000/svg">
<path d="M22.1438 45.587C33.635 45.587 42.7711 35.6151 42.7711 23.5435C42.7711 11.4719 33.635 1.5 22.1438 1.5C10.6525 1.5 1.51648 11.4719 1.51648 23.5435C1.51648 35.6151 10.6525 45.587 22.1438 45.587Z" stroke="white" stroke-width="3"/>
<path fill-rule="evenodd" clip-rule="evenodd" d="M28.3631 27.5183C29.3198 26.1348 29.8859 24.421 29.8859 22.5652C29.8859 17.9729 26.4196 14.25 22.1439 14.25C17.8681 14.25 14.4018 17.9729 14.4018 22.5652C14.4018 24.5202 15.03 26.3175 16.0813 27.7372C11.3115 31.3359 8.02612 38.8998 8.02612 47.6484C8.02612 47.7658 8.02671 47.883 8.02789 48H36.7153C36.7165 47.883 36.7171 47.7658 36.7171 47.6484C36.7171 38.7183 33.294 31.0225 28.3631 27.5183Z" fill="white"/>
<ellipse cx="34.2124" cy="35.8635" rx="7.5143" ry="8.07066" fill="#F89500"/>
<path d="M44.9991 28.5855C44.8239 28.71 44.6633 28.8268 44.5008 28.9404C40.9603 31.4092 37.9469 34.425 35.3869 37.9109C34.915 38.554 34.4612 39.2102 34.0015 39.863C33.9528 39.932 33.9252 40.0163 33.8874 40.0938L33.459 40.0306C33.4244 39.9523 33.3986 39.8674 33.3534 39.7959C32.2148 37.9824 31.0735 36.1704 29.9333 34.3576C29.8953 34.297 29.8605 34.2339 29.8293 34.1801C29.8363 34.1586 29.8367 34.1488 29.8414 34.1431C30.2208 33.6916 30.2197 33.6925 30.6783 34.0524C31.5393 34.7286 32.4015 35.4035 33.2638 36.0784C33.3202 36.1225 33.3796 36.1623 33.4475 36.2116C36.7393 32.8493 40.2988 29.8729 44.691 28.0199C44.7973 28.2153 44.892 28.3894 44.9991 28.5855Z" fill="white"/>
<path fill-rule="evenodd" clip-rule="evenodd" d="M22.2766 29.9022H19.8208L21.6626 34.0784L19.4115 41.7714L22.2766 47.2664L25.1416 41.7714L22.8905 34.0784L24.7323 29.9022H22.2766Z" fill="#F89500"/>
</svg>
