<svg width="49" height="54" viewBox="0 0 49 54" fill="none" xmlns="http://www.w3.org/2000/svg">
<path d="M22.1797 45.664C33.6907 45.664 42.8428 35.6749 42.8428 23.582C42.8428 11.4892 33.6907 1.5 22.1797 1.5C10.6686 1.5 1.51648 11.4892 1.51648 23.582C1.51648 35.6749 10.6686 45.664 22.1797 45.664Z" stroke="white" stroke-width="3"/>
<path fill-rule="evenodd" clip-rule="evenodd" d="M28.8669 31.4846C29.8255 30.0985 30.3926 28.3815 30.3926 26.5222C30.3926 21.9212 26.9199 18.1914 22.636 18.1914C18.3522 18.1914 14.8795 21.9212 14.8795 26.5222C14.8795 28.4808 15.5088 30.2816 16.5621 31.7039C11.7833 35.3093 8.49182 42.8874 8.49182 51.6525C8.49182 51.7701 8.49241 51.8875 8.4936 52.0047H37.2348C37.236 51.8875 37.2366 51.7701 37.2366 51.6525C37.2366 42.7056 33.807 34.9954 28.8669 31.4846Z" fill="white"/>
<ellipse cx="35.4115" cy="44.164" rx="9.12532" ry="9.80096" fill="#F89500"/>
<path d="M48.6122 35.1726C48.3971 35.3253 48.2001 35.4686 48.0007 35.608C43.6563 38.6374 39.9587 42.3379 36.8175 46.6153C36.2385 47.4045 35.6816 48.2096 35.1175 49.0107C35.0577 49.0953 35.0239 49.1988 34.9775 49.2938L34.4518 49.2163C34.4094 49.1202 34.3778 49.0161 34.3223 48.9283C32.9251 46.703 31.5247 44.4796 30.1256 42.2552C30.079 42.1808 30.0363 42.1034 29.998 42.0375C30.0066 42.011 30.0071 41.999 30.0128 41.992C30.4784 41.438 30.4771 41.4391 31.0397 41.8807C32.0963 42.7104 33.1543 43.5385 34.2123 44.3667C34.2815 44.4209 34.3544 44.4696 34.4377 44.5301C38.4769 40.4045 42.8446 36.7522 48.2341 34.4785C48.3645 34.7183 48.4807 34.932 48.6122 35.1726Z" fill="white"/>
<path fill-rule="evenodd" clip-rule="evenodd" d="M10.7731 10.8408L22.1797 6.0364V5.94031L22.2938 5.98835L22.4079 5.94031V6.0364L33.8145 10.8408L28.1112 13.4832V18.074C26.5374 16.9117 24.6309 16.2313 22.5765 16.2313C20.373 16.2313 18.3398 17.014 16.7046 18.3346V13.5889L10.7731 10.8408Z" fill="white"/>
</svg>
