<svg width="15" height="12" viewBox="0 0 15 12" fill="none" xmlns="http://www.w3.org/2000/svg">
<path d="M13.3885 1H1.60248C1.27065 1 1 1.25538 1 1.5685V10.4801C1 10.7933 1.27065 11.0486 1.60248 11.0486H13.3885C13.7203 11.0486 13.991 10.7933 13.991 10.4801V1.5685C13.991 1.25538 13.7203 1 13.3885 1ZM13.5885 10.4801C13.5885 10.5845 13.4991 10.6689 13.3885 10.6689H1.60248C1.49187 10.6689 1.40244 10.5845 1.40244 10.4801V1.5685C1.40244 1.46413 1.49187 1.37974 1.60248 1.37974H13.3885C13.4991 1.37974 13.5885 1.46413 13.5885 1.5685V10.4801Z" fill="white" stroke="white" stroke-width="0.1"/>
<path d="M13.1421 1.82631C13.1068 1.78856 13.0597 1.76413 13.0056 1.75969C12.9515 1.75525 12.8997 1.77079 12.8597 1.8041L7.75509 5.91905C7.60683 6.03675 7.38796 6.03675 7.23734 5.91905L2.1351 1.80188C2.08097 1.75747 2.00566 1.74637 1.93741 1.76857C1.86916 1.79078 1.81974 1.8463 1.80797 1.91292C1.7962 1.97954 1.82209 2.04838 1.87622 2.09057L6.97846 6.20996C7.27735 6.44758 7.71273 6.44758 8.01162 6.20996L13.1162 2.09279C13.1562 2.05948 13.1821 2.01507 13.1868 1.96399C13.1915 1.91514 13.175 1.86406 13.1421 1.82631Z" fill="white" stroke="white" stroke-width="0.1"/>
<path d="M5.61249 6.24135L1.85875 9.97212C1.80697 10.021 1.78815 10.092 1.80933 10.1587C1.83051 10.2253 1.88699 10.2741 1.95759 10.2897C2.0282 10.3052 2.10351 10.283 2.15058 10.2297L5.90431 6.49895C5.95609 6.4501 5.97492 6.37904 5.95373 6.31242C5.93255 6.24579 5.87607 6.19694 5.80547 6.18139C5.73486 6.16585 5.66191 6.19028 5.61249 6.24135Z" fill="white" stroke="white" stroke-width="0.1"/>
<path d="M9.38056 6.24056C9.33113 6.18949 9.25818 6.16728 9.18757 6.1806C9.11697 6.19615 9.06049 6.245 9.03931 6.31162C9.01813 6.37824 9.03695 6.44931 9.08873 6.49816L12.8425 10.2289C12.9178 10.3022 13.0425 10.3044 13.1225 10.2356C13.2025 10.1645 13.2072 10.0468 13.1343 9.97132L9.38056 6.24056Z" fill="white" stroke="white" stroke-width="0.1"/>
</svg>
