<svg width="19" height="18" viewBox="0 0 19 18" fill="none" xmlns="http://www.w3.org/2000/svg">
<path fill-rule="evenodd" clip-rule="evenodd" d="M4.33686 17.9999C2.21921 17.9999 0.101562 16.0026 0.101562 14.0053V4.01884C0.101562 2.02155 2.21921 0.0242538 4.33686 0.0242538H13.8446C15.9839 0.0242538 18.1016 2.02155 18.1016 4.01884V14.0053C18.1016 16.0026 15.9839 17.9999 13.8663 17.9999H4.33686ZM9.23365 4.01881C6.39751 4.01881 4.10156 6.28243 4.10156 8.94548C4.10156 11.7417 6.3975 14.0053 9.09858 14.0053C11.9347 14.0053 14.0956 11.7417 14.0956 9.07865C14.2306 6.28243 12.0698 4.01881 9.23365 4.01881ZM9.23365 12.2743C7.34289 12.2743 5.85727 10.8096 5.85727 8.94548C5.85727 7.08134 7.34289 5.61667 9.23365 5.74982C11.1244 5.74982 12.61 7.2145 12.61 9.07865C12.4749 10.8096 10.9893 12.2743 9.23365 12.2743ZM13.1016 4.01883C13.1016 4.64298 13.6016 5.01746 14.1016 5.01746C14.6016 5.01746 15.1016 4.64298 15.1016 4.01883C15.1016 3.39468 14.6016 3.02016 14.1016 3.02016C13.4766 3.02016 13.1016 3.51951 13.1016 4.01883Z" fill="white"/>
</svg>
