<svg width="20" height="18" viewBox="0 0 20 18" fill="none" xmlns="http://www.w3.org/2000/svg">
<path d="M4.81342 2.18346C4.81342 3.39084 3.84689 4.35677 2.39708 4.35677C0.947275 4.35677 0.101562 3.39084 0.101562 2.18346C0.101562 0.855341 0.947275 0.0101894 2.39708 0.0101894C3.84689 -0.110549 4.69261 0.855341 4.81342 2.18346Z" fill="white"/>
<path d="M4.57601 5.44283H0.226562V17.9996H4.57601V5.44283Z" fill="white"/>
<path d="M6.38672 9.42759C6.38672 7.85799 6.38672 6.52989 6.38672 5.44325H10.2529V7.25432L10.3737 7.13357C10.9778 6.2884 12.4276 5.08101 14.7231 5.08101C17.6228 5.08101 19.7975 6.77134 19.7975 10.5142V18H15.448V10.9972C15.448 9.42761 14.8439 8.22021 13.2733 8.22021C12.0651 8.22021 11.3402 8.94465 11.0986 9.66908C10.9778 9.91056 10.9778 10.2728 10.9778 10.635V17.8793H6.62833V9.42759H6.38672Z" fill="white"/>
</svg>
