<svg width="13" height="12" viewBox="0 0 13 12" fill="none" xmlns="http://www.w3.org/2000/svg">
<path d="M11.7027 9.34874L9.47865 7.88831C9.19528 7.70444 8.81744 7.76573 8.6092 8.0278L7.96086 8.84784C7.87714 8.95563 7.72686 8.98733 7.60664 8.92182L7.48427 8.85418C7.07638 8.63438 6.56758 8.36174 5.54141 7.3536C4.51738 6.34546 4.2383 5.84456 4.01718 5.44088L3.95062 5.32041C3.88193 5.20205 3.91413 5.05199 4.02362 4.96957L4.85658 4.33129C5.12278 4.12628 5.18504 3.75219 4.99827 3.47532L3.51053 1.28362C3.31946 1.00041 2.93733 0.915866 2.64107 1.09129L1.7115 1.6408C1.41954 1.80988 1.20486 2.08463 1.11254 2.40589C0.777642 3.60847 1.02882 5.68182 4.1331 8.73794C6.60193 11.1685 8.4396 11.8215 9.70192 11.8215C9.99174 11.8237 10.2816 11.7856 10.5628 11.7116C10.8891 11.6208 11.1682 11.4094 11.3399 11.122L11.9003 10.2068C12.0784 9.91516 11.9904 9.53685 11.7027 9.34874ZM11.5847 10.0208L11.0265 10.936C10.9041 11.1431 10.7023 11.2974 10.4683 11.3629C9.34126 11.6673 7.37264 11.4158 4.39287 8.48221C1.4131 5.54867 1.15548 3.61058 1.46462 2.50099C1.53117 2.26851 1.68789 2.07195 1.89828 1.94937L2.82784 1.39986C2.95665 1.32377 3.12196 1.3597 3.20568 1.4844L4.01074 2.67641L4.68698 3.6761C4.76856 3.79657 4.74065 3.95931 4.62472 4.04808L3.79176 4.68636C3.53844 4.87657 3.46545 5.22319 3.62216 5.49583L3.68871 5.61418C3.92272 6.03688 4.21468 6.56315 5.27735 7.60933C6.34002 8.65552 6.87458 8.94295 7.30394 9.17332L7.42416 9.23884C7.70324 9.39313 8.05317 9.32127 8.24639 9.07187L8.89472 8.25184C8.98489 8.13771 9.15019 8.11235 9.27256 8.19054L11.4967 9.65098C11.6233 9.73129 11.662 9.89614 11.5847 10.0208Z" fill="white" stroke="white" stroke-width="0.1"/>
</svg>
