<svg width="23" height="18" viewBox="0 0 23 18" fill="none" xmlns="http://www.w3.org/2000/svg">
<path fill-rule="evenodd" clip-rule="evenodd" d="M6.76103 13.8642C4.38265 13.746 2.95562 11.9736 2.59887 10.7919C3.19346 10.9101 3.90698 10.9101 4.50158 10.6738C3.43131 10.4374 2.59887 9.84663 2.00427 9.01948C1.40968 8.19233 1.05292 7.24699 1.05292 6.18352C1.64751 6.53801 2.36102 6.65617 3.07454 6.77434C1.05291 5.12004 0.696168 3.11129 1.76644 0.748009C4.26374 3.58394 7.35563 5.23823 11.0421 5.47456C11.0421 5.23823 10.9232 4.88373 10.9232 4.6474C10.8043 3.22943 11.2799 2.0478 12.3502 1.22066C13.5394 0.157182 14.8475 -0.197302 16.3935 0.157189C17.2259 0.275353 18.0583 0.748008 18.6529 1.33883C18.7718 1.45699 18.7718 1.45696 18.8908 1.45696C19.7232 1.22064 20.5556 0.984322 21.2691 0.511666C21.3881 0.511666 21.388 0.393495 21.507 0.393495C21.388 0.866151 21.1502 1.33882 20.7935 1.81148C20.4367 2.16597 20.0799 2.52045 19.7232 2.87494C20.5556 2.75678 21.2691 2.52044 22.1016 2.16595C21.7448 2.75677 21.388 3.11128 20.9124 3.58393C20.6745 3.82026 20.3178 4.05657 19.961 4.41106C19.8421 4.52922 19.8421 4.52924 19.8421 4.76557C19.8421 6.06537 19.7232 7.36516 19.3664 8.54679C19.0097 9.61027 18.6529 10.5556 18.0583 11.6191C17.4637 12.6825 16.7502 13.6278 15.9178 14.455C14.7286 15.5185 13.4205 16.4638 11.9935 17.0546C10.5664 17.6454 9.1394 17.8817 7.59346 17.9999C6.52319 17.9999 5.45292 17.9999 4.38265 17.7636C3.31238 17.5273 2.36102 17.1728 1.29075 16.7001C0.933995 16.4638 0.458319 16.2275 0.101562 15.9911C2.59886 15.873 4.85833 15.2821 6.76103 13.8642Z" fill="white"/>
</svg>
